<svg width="120" height="121" viewBox="0 0 120 121" fill="none" xmlns="http://www.w3.org/2000/svg">
<path d="M66.4938 0.0653687C66.2618 0.131634 65.7151 0.197899 65.2843 0.214466C63.5612 0.247597 57.9941 1.65573 55.9728 2.5503C55.7905 2.63314 55.2769 2.8485 54.813 3.03073C53.6035 3.49458 50.4057 5.01868 49.9087 5.38313C49.6767 5.53223 49.2956 5.73103 49.0471 5.78072C48.7986 5.84699 48.5998 5.96295 48.5998 6.02922C48.5998 6.09548 48.4672 6.19488 48.3181 6.26115C48.1524 6.31084 47.8045 6.50964 47.5228 6.69187C47.2577 6.8741 46.8601 7.08946 46.6447 7.18885C46.4293 7.27169 46.0151 7.53675 45.7168 7.76867C45.4186 8.0006 45.1204 8.18283 45.0707 8.18283C44.6896 8.18283 39.3545 12.0593 37.8468 13.4178C36.6207 14.5277 34.3508 16.9464 34.3508 17.1452C34.3508 17.1949 34.2017 17.4268 34.0029 17.6422C33.5058 18.2054 32.0147 20.5578 31.5839 21.4358C31.4016 21.85 31.0371 22.5789 30.8052 23.0759C29.9933 24.7325 29.6619 26.5382 29.7448 28.6421C29.8442 30.7129 30.3081 31.7897 31.7164 33.2144C33.191 34.6888 34.765 35.3349 37.2503 35.4674C38.9569 35.5503 40.183 35.4177 41.8895 34.9373C42.4363 34.7882 43.1653 34.606 43.5132 34.5066C43.8612 34.4238 44.2588 34.2912 44.4245 34.1918C44.8056 33.993 46.9429 33.0322 47.0423 33.0322C47.3406 33.0322 50.8365 30.8952 54.0674 28.7415C56.2047 27.3168 58.077 26.0744 58.2427 25.9915C58.3918 25.8922 59.4025 25.2958 60.4794 24.6497C61.5564 24.0202 62.8818 23.2581 63.4286 22.9765C63.9754 22.6949 64.7541 22.2807 65.1683 22.0653C65.5825 21.8666 66.3612 21.5021 66.908 21.3033C67.4548 21.0879 68.1341 20.8063 68.3992 20.6903C68.6808 20.5744 69.0785 20.3922 69.3104 20.2928C69.9566 20.0277 71.4146 19.7626 72.8395 19.6632C75.9213 19.4644 78.0752 20.8229 79.1853 23.6723C79.4504 24.3515 79.5001 24.9147 79.5001 26.9027C79.5001 29.3214 79.2847 30.6467 78.6385 32.2039C78.506 32.5187 78.3237 32.9659 78.2243 33.1979C77.3959 35.1858 75.6893 38.0352 73.7342 40.6195C71.8786 43.1045 67.8855 47.2295 65.2511 49.3997C64.3399 50.1617 63.3292 50.99 63.0144 51.2551C62.3185 51.8349 61.5067 52.4147 60.612 53.0111C60.2474 53.243 59.651 53.6406 59.2865 53.9057C58.2592 54.6015 55.5254 56.0593 53.9845 56.7219C53.5372 56.9207 52.9242 57.1858 52.6259 57.3183C52.3443 57.4509 51.9632 57.5502 51.7809 57.5502C51.6152 57.5502 51.2342 57.6331 50.9359 57.7325C49.859 58.1135 48.7655 57.3846 48.7655 56.2746C48.7655 54.9162 49.4116 54.0548 53.4875 50.0126C57.8947 45.6391 58.3752 44.993 58.3752 43.3364C58.3752 41.6301 57.5633 40.4704 55.7408 39.5427C54.9455 39.1286 54.6473 39.0789 53.2555 39.0789C51.6318 39.0789 50.6874 39.3108 49.511 40.0232C49.2459 40.1888 48.8317 40.4042 48.5998 40.5201C48.3678 40.6361 48.1524 40.7686 48.1027 40.8183C48.053 40.868 47.7216 41.1165 47.3571 41.3982C46.479 42.0608 44.9381 43.6346 44.06 44.7777C43.447 45.5729 42.9996 46.3183 41.9558 48.2732C41.0942 49.8966 40.3155 52.9117 40.3155 54.6677C40.3155 58.2295 42.1712 61.0789 45.0375 61.8906C45.8991 62.1391 49.4116 62.1391 50.6211 61.9072C51.8141 61.6587 54.9289 60.6978 55.1278 60.5156C55.2272 60.4328 55.3929 60.3665 55.5254 60.3665C55.9562 60.3665 60.8771 57.865 62.567 56.7716C62.9481 56.5231 63.3789 56.2415 63.5446 56.1421C63.6937 56.0593 64.4724 55.5789 65.2843 55.0819C66.0796 54.5849 66.7754 54.121 66.8252 54.0713C66.8749 54.0051 67.4382 53.5909 68.0678 53.1602C68.714 52.7129 69.4595 52.1994 69.7246 52.0171C70.0063 51.8183 70.785 51.2219 71.4643 50.6753C75.7722 47.246 79.5829 43.5849 81.8031 40.7355C82.1676 40.2882 82.499 39.8741 82.5487 39.8244C82.6812 39.725 83.8079 38.1015 84.5866 36.8756C84.9346 36.362 85.4648 35.4509 85.763 34.8545C86.0778 34.2581 86.5086 33.4464 86.724 33.0322C86.9394 32.618 87.4033 31.5412 87.7678 30.6301C88.1157 29.719 88.4637 28.8244 88.5299 28.6421C88.9938 27.4659 89.7063 24.4343 90.0211 22.2641C90.369 19.8123 90.1039 15.7867 89.4246 13.5669C89.143 12.6557 89.0767 12.4901 88.4637 11.1648C87.1382 8.31536 85.0174 5.73103 82.5818 4.04127C82.2505 3.80934 81.8362 3.49458 81.654 3.31235C81.0575 2.78223 78.0255 1.4238 76.2526 0.910248C75.3082 0.62862 73.8999 0.330429 73.1212 0.214466C71.3318 -0.0174637 67.0405 -0.133427 66.4938 0.0653687Z" fill="#FF0000"/>
<path d="M114.526 81.9855C114.476 82.0186 113.714 82.1677 112.803 82.3168C111.891 82.4493 110.4 82.6978 109.489 82.8635L107.832 83.1451V98.3861C107.832 114.936 107.799 114.24 108.777 116.311C109.108 117.023 109.572 117.636 110.284 118.282C112.041 119.889 113.681 120.386 117.177 120.403C120.159 120.403 120.043 120.519 119.977 117.769L119.927 115.781L118.651 115.665C116.382 115.466 115.288 114.555 115.039 112.666C114.973 112.103 114.923 105.013 114.94 96.9282C114.957 82.9298 114.923 81.5879 114.526 81.9855Z" fill="#FF0000"/>
<path d="M68.648 82.3169C64.9698 82.8636 63.7437 83.0955 63.5946 83.2777C63.4786 83.4103 63.4621 88.6949 63.5118 98.8003C63.5946 112.915 63.6278 114.19 63.8928 114.87C64.5225 116.476 64.8538 117.04 65.6988 117.885C67.4385 119.624 69.6587 120.336 73.3038 120.336C75.3251 120.336 75.6068 120.303 75.7393 120.038C75.905 119.723 75.9879 116.841 75.8553 116.178C75.7559 115.764 75.6896 115.748 74.447 115.648C72.873 115.549 71.9452 115.019 71.299 113.876L70.8848 113.13L70.8351 104.549C70.8019 98.1542 70.8351 95.9012 70.9842 95.719C71.1333 95.5368 71.6966 95.4871 73.4695 95.4871C76.2033 95.4871 75.9713 95.7521 75.905 92.588L75.8553 90.4343L73.5357 90.3515C72.26 90.3018 71.1167 90.2024 71.0173 90.1362C70.8516 90.0368 70.8019 89.0262 70.8019 86.0277V82.0684L70.4374 82.085C70.222 82.1015 69.4267 82.2009 68.648 82.3169Z" fill="#FF0000"/>
<path d="M11.238 89.7883C9.99536 89.9042 7.01302 90.6166 6.10175 91.0142C5.9195 91.097 5.58813 91.213 5.35617 91.2792C4.62715 91.478 2.20815 92.6874 2.20815 92.853C2.20815 92.9359 2.35726 93.3169 2.52295 93.7145C3.61647 96.1166 4.03069 96.978 4.11353 96.978C4.16323 96.978 4.32892 96.9118 4.49461 96.8289C5.3396 96.3982 6.36685 95.9841 7.17871 95.7356C7.67576 95.5865 8.27223 95.3877 8.50419 95.3048C9.43203 94.9735 11.9007 94.8079 13.044 94.9901C15.2973 95.3545 16.1257 96.3982 16.2583 99.0654C16.3245 100.54 16.3245 100.573 15.9435 100.672C15.7281 100.739 14.2038 100.788 12.5635 100.788C8.62017 100.788 7.41067 101.02 4.85911 102.263C2.67207 103.323 1.04835 105.327 0.26963 107.912C-0.128014 109.287 -0.0783088 111.855 0.369041 113.213C1.86021 117.719 5.40587 120.353 10.3433 120.618C14.8334 120.867 19.456 119.525 22.4218 117.139L23.4987 116.261L23.5484 107.498C23.5981 97.3425 23.5816 96.9946 22.3555 94.5097C21.8087 93.3832 19.9696 91.594 18.8264 91.097C18.2962 90.8485 17.7163 90.6 17.534 90.5172C16.2914 89.9705 13.1434 89.6061 11.238 89.7883ZM16.1257 105.758C16.2251 105.891 16.2914 107.862 16.2914 110.248C16.2914 114.952 16.3577 114.654 15.1316 115.3C14.6677 115.549 14.1541 115.599 12.5469 115.615H10.5421L9.71369 115.052C9.26634 114.754 8.73615 114.257 8.55389 113.975C7.32782 112.186 7.41067 108.989 8.70301 107.415C9.08409 106.934 10.5421 105.924 10.8072 105.924C10.9729 105.924 11.1552 105.858 11.2546 105.775C11.4865 105.526 12.2487 105.46 14.1872 105.493C15.579 105.51 16.0097 105.559 16.1257 105.758Z" fill="#FF0000"/>
<path d="M52.5762 90.1861C49.2791 90.9647 46.6447 92.3728 43.9937 94.7915L43.2979 95.421V107.514C43.2979 114.157 43.2979 119.724 43.2979 119.889C43.2979 120.154 43.5464 120.171 46.9098 120.138L50.5052 120.088L50.5549 108.541L50.588 97.0113L51.2176 96.5144C51.9632 95.918 52.3277 95.7357 53.2887 95.4044C54.4319 95.0234 56.2213 94.8412 57.5634 94.9903C58.2261 95.0565 58.8557 95.0897 58.9551 95.04C59.0711 95.0068 59.3693 94.4436 59.6344 93.7809C59.883 93.1183 60.2806 92.2568 60.4794 91.8592C61.0262 90.8156 60.9765 90.5505 60.2475 90.3848C59.8995 90.302 59.2699 90.1529 58.8226 90.0535C57.6462 89.7553 54.0508 89.8382 52.5762 90.1861Z" fill="#FF0000"/>
<path d="M88.613 90.2191C88.0663 90.3019 87.5526 90.451 87.4698 90.5338C87.3704 90.6167 87.2047 90.6829 87.0722 90.6829C86.9396 90.6829 86.3431 90.9148 85.7632 91.213C84.4875 91.8426 82.5324 93.6483 81.704 94.9901C80.9749 96.1663 80.1299 97.9224 79.9974 98.5519C79.9311 98.8169 79.8317 99.198 79.7489 99.3802C79.6826 99.5624 79.4838 100.275 79.3181 100.954C78.8707 102.743 78.8707 108.475 79.3015 110.148C79.6992 111.689 80.5939 114.041 80.7595 114.041C80.8424 114.041 80.9087 114.124 80.9087 114.224C80.9087 114.853 82.8803 117.355 84.2721 118.481C84.8851 118.978 86.2603 119.69 87.2875 120.038C88.3976 120.419 90.8498 120.833 91.9433 120.833C94.296 120.833 98.5376 119.823 99.9459 118.928C100.277 118.73 100.725 118.498 100.957 118.431C101.454 118.282 102.547 117.603 102.68 117.371C102.829 117.139 100.973 113.379 100.725 113.379C100.609 113.379 100.31 113.528 100.078 113.71C99.8465 113.892 99.5648 114.041 99.4323 114.041C99.3163 114.041 99.0678 114.141 98.8855 114.273C98.7033 114.389 97.8417 114.737 96.9801 115.035C95.5055 115.549 95.257 115.582 93.0865 115.599C91.032 115.599 90.6841 115.565 90.0214 115.251C87.7018 114.141 86.3763 111.341 86.3763 107.564C86.3763 106.752 86.3928 106.073 86.426 106.056C86.4425 106.023 90.1208 105.974 94.5777 105.924L102.696 105.841L102.647 104.184C102.547 100.937 101.686 96.5639 100.94 95.57C100.874 95.4706 100.642 95.0564 100.426 94.6423C99.5317 92.8697 97.6429 91.3456 95.4061 90.6001C93.7658 90.0368 90.7669 89.8712 88.613 90.2191ZM92.1753 95.4871C92.8711 95.6694 94.3292 96.8456 94.3292 97.21C94.3292 97.3094 94.4452 97.6076 94.5777 97.8561C94.9588 98.6016 95.257 101.053 94.9919 101.368C94.8262 101.584 94.1801 101.617 90.8332 101.617H86.8733L86.7739 101.202C86.5585 100.358 87.1384 98.088 87.8012 97.21C88.5302 96.2326 89.1764 95.7356 90.1373 95.454C90.6675 95.3049 91.1811 95.2055 91.2971 95.2386C91.3965 95.2718 91.7942 95.3877 92.1753 95.4871Z" fill="#FF0000"/>
<path d="M31.5346 78.5566C30.2754 79.2027 29.8943 79.5174 29.3475 80.3292C28.8173 81.1409 28.8008 81.2072 28.8008 82.8969V84.653L29.4304 85.5144C30.176 86.5249 30.673 86.8894 31.7665 87.2704C33.2411 87.7508 34.5169 87.5686 35.9915 86.6409C37.7644 85.5144 38.3774 82.6319 37.3004 80.5114C36.9194 79.7659 36.588 79.418 35.5939 78.7885C34.6992 78.2087 32.4293 78.0762 31.5346 78.5566Z" fill="#FF0000"/>
<path d="M35.5939 90.5173C35.3288 90.6001 34.5833 90.7492 33.9371 90.8321C33.3075 90.9149 32.1477 91.0806 31.369 91.1965C30.5902 91.2959 29.9109 91.445 29.8281 91.4947C29.679 91.6272 29.6624 119.773 29.795 120.022C29.8612 120.105 31.3358 120.171 33.2743 120.171C36.6543 120.171 36.6709 120.171 36.7537 119.79C36.8034 119.591 36.82 112.898 36.8034 104.93C36.7537 90.567 36.7537 90.4345 36.4224 90.4013C36.2401 90.3848 35.8756 90.4345 35.5939 90.5173Z" fill="#FF0000"/>
</svg>
