<svg width="225" height="548" viewBox="0 0 225 548" fill="none" xmlns="http://www.w3.org/2000/svg">
<g filter="url(#filter0_ii_155_891)">
<rect x="4.93018" y="0.5" width="216" height="290" rx="20" fill="#FCCB04"/>
</g>
<g clip-path="url(#clip0_155_891)">
<path d="M112.929 89.5C71.5084 89.5 37.9302 106.291 37.9302 127C37.9302 147.709 71.5084 164.5 112.929 164.5C154.349 164.5 187.93 147.709 187.93 127C187.93 106.291 154.347 89.5 112.929 89.5ZM112.929 158.581C74.7786 158.581 43.8515 144.442 43.8515 127C43.8515 109.558 74.7786 95.4215 112.929 95.4215C151.079 95.4215 182.009 109.558 182.009 127C182.009 144.442 151.082 158.581 112.929 158.581ZM103.473 120.422V114.501H124.639V120.422H117.019V139.507H111.09V120.422H103.473ZM150.172 114.501V139.507H144.25L133.511 124.624V139.507H127.592V114.501H133.511L144.25 129.384V114.501H150.172ZM75.5142 139.507V114.501H81.4355L88.0131 124.619L94.5906 114.501H100.512V139.507H94.5906V125.36L90.0927 132.263H85.9255L81.4276 125.36V139.507H75.5142Z" fill="#1D1D1B"/>
</g>
<g filter="url(#filter1_iif_155_891)">
<rect x="4.93018" y="300.5" width="216" height="290" rx="20" fill="url(#paint0_linear_155_891)"/>
</g>
<defs>
<filter id="filter0_ii_155_891" x="-3.06982" y="-5.5" width="230" height="304" filterUnits="userSpaceOnUse" color-interpolation-filters="sRGB">
<feFlood flood-opacity="0" result="BackgroundImageFix"/>
<feBlend mode="normal" in="SourceGraphic" in2="BackgroundImageFix" result="shape"/>
<feColorMatrix in="SourceAlpha" type="matrix" values="0 0 0 0 0 0 0 0 0 0 0 0 0 0 0 0 0 0 127 0" result="hardAlpha"/>
<feMorphology radius="2" operator="erode" in="SourceAlpha" result="effect1_innerShadow_155_891"/>
<feOffset dx="6" dy="-6"/>
<feGaussianBlur stdDeviation="3"/>
<feComposite in2="hardAlpha" operator="arithmetic" k2="-1" k3="1"/>
<feColorMatrix type="matrix" values="0 0 0 0 0.0198497 0 0 0 0 0.0198497 0 0 0 0 0.0198497 0 0 0 0.3 0"/>
<feBlend mode="normal" in2="shape" result="effect1_innerShadow_155_891"/>
<feColorMatrix in="SourceAlpha" type="matrix" values="0 0 0 0 0 0 0 0 0 0 0 0 0 0 0 0 0 0 127 0" result="hardAlpha"/>
<feMorphology radius="2" operator="erode" in="SourceAlpha" result="effect2_innerShadow_155_891"/>
<feOffset dx="-10" dy="10"/>
<feGaussianBlur stdDeviation="3"/>
<feComposite in2="hardAlpha" operator="arithmetic" k2="-1" k3="1"/>
<feColorMatrix type="matrix" values="0 0 0 0 1 0 0 0 0 1 0 0 0 0 1 0 0 0 0.3 0"/>
<feBlend mode="normal" in2="effect1_innerShadow_155_891" result="effect2_innerShadow_155_891"/>
</filter>
<filter id="filter1_iif_155_891" x="-3.06982" y="292.5" width="232" height="306" filterUnits="userSpaceOnUse" color-interpolation-filters="sRGB">
<feFlood flood-opacity="0" result="BackgroundImageFix"/>
<feBlend mode="normal" in="SourceGraphic" in2="BackgroundImageFix" result="shape"/>
<feColorMatrix in="SourceAlpha" type="matrix" values="0 0 0 0 0 0 0 0 0 0 0 0 0 0 0 0 0 0 127 0" result="hardAlpha"/>
<feMorphology radius="2" operator="erode" in="SourceAlpha" result="effect1_innerShadow_155_891"/>
<feOffset dx="10" dy="10"/>
<feGaussianBlur stdDeviation="3"/>
<feComposite in2="hardAlpha" operator="arithmetic" k2="-1" k3="1"/>
<feColorMatrix type="matrix" values="0 0 0 0 0.0198497 0 0 0 0 0.0198497 0 0 0 0 0.0198497 0 0 0 0.25 0"/>
<feBlend mode="normal" in2="shape" result="effect1_innerShadow_155_891"/>
<feColorMatrix in="SourceAlpha" type="matrix" values="0 0 0 0 0 0 0 0 0 0 0 0 0 0 0 0 0 0 127 0" result="hardAlpha"/>
<feMorphology radius="2" operator="erode" in="SourceAlpha" result="effect2_innerShadow_155_891"/>
<feOffset dx="-10" dy="-10"/>
<feGaussianBlur stdDeviation="3"/>
<feComposite in2="hardAlpha" operator="arithmetic" k2="-1" k3="1"/>
<feColorMatrix type="matrix" values="0 0 0 0 1 0 0 0 0 1 0 0 0 0 1 0 0 0 0.25 0"/>
<feBlend mode="normal" in2="effect1_innerShadow_155_891" result="effect2_innerShadow_155_891"/>
<feGaussianBlur stdDeviation="2" result="effect3_foregroundBlur_155_891"/>
</filter>
<linearGradient id="paint0_linear_155_891" x1="112.93" y1="300.5" x2="112.93" y2="590.5" gradientUnits="userSpaceOnUse">
<stop stop-color="#FCCB04"/>
<stop offset="0.0480398" stop-color="white" stop-opacity="0"/>
</linearGradient>
<clipPath id="clip0_155_891">
<rect width="150" height="75" fill="white" transform="translate(37.9302 89.5)"/>
</clipPath>
</defs>
</svg>
