<svg width="150" height="75" viewBox="0 0 150 75" fill="none" xmlns="http://www.w3.org/2000/svg">
<path d="M74.9987 0C33.5782 0 0 16.7907 0 37.5C0 58.2093 33.5782 75 74.9987 75C116.419 75 150 58.2093 150 37.5C150 16.7907 116.416 0 74.9987 0ZM74.9987 69.0812C36.8485 69.0812 5.92137 54.9416 5.92137 37.5C5.92137 20.0584 36.8485 5.92147 74.9987 5.92147C113.149 5.92147 144.079 20.0584 144.079 37.5C144.079 54.9416 113.152 69.0812 74.9987 69.0812ZM65.5425 30.9224V25.0009H86.7091V30.9224H79.0891V50.0071H73.1598V30.9224H65.5425ZM112.241 25.0009V50.0071H106.32L95.5806 35.124V50.0071H89.6619V25.0009H95.5806L106.32 39.8839V25.0009H112.241ZM37.584 50.0071V25.0009H43.5054L50.0829 35.1187L56.6604 25.0009H62.5818V50.0071H56.6604V35.8596L52.1625 42.7626H47.9953L43.4974 35.8596V50.0071H37.584Z" fill="#1D1D1B"/>
</svg>
