<?xml version="1.0" encoding="utf-8"?>
<!-- Generator: Adobe Illustrator 27.5.0, SVG Export Plug-In . SVG Version: 6.00 Build 0)  -->
<svg version="1.1" id="Layer_1" xmlns="http://www.w3.org/2000/svg" xmlns:xlink="http://www.w3.org/1999/xlink" x="0px" y="0px"
	 viewBox="0 0 282.599 317.91" style="enable-background:new 0 0 282.599 317.91;" xml:space="preserve">
<g>
	<g>
		<g>
			<g>
				<path style="fill:#B56D51;" d="M254.825,196.042c1.624-6.494-1.472-13.369-5.224-18.536c-3.488-4.804-8.428-9.763-14.73-9.975
					c-5.798-0.195-11.056,3.302-15.117,7.114c-1.599,1.501-3.098,3.121-4.494,4.828c-2.62,8.992-6.052,28.502-6.917,32.021
					c-1.018,4.142-2.007,8.305-2.6,12.537c-0.578,4.121-0.865,8.499-0.003,12.604c1.171,5.57,7.45,5.903,11.907,5.114
					c2.379-0.421,4.768-1.16,6.934-2.264c2.926-1.491,4.962-4.068,6.506-6.965c1.592-2.989,2.654-6.224,4.132-9.266
					c1.745-3.592,4.27-6.683,6.913-9.61c3.465-3.838,7.329-7.507,10.258-11.829C253.416,199.974,254.319,198.063,254.825,196.042z"
					/>
				<path style="opacity:0.64;fill:#EB936D;" d="M226.767,223.128c1.361-6.534,2.677-13.069,4.217-19.564
					c1.548-6.531,3.207-13.035,4.841-19.545c1.287-5.13,2.554-10.265,3.741-15.419c-1.469-0.625-3.034-1.013-4.694-1.069
					c-5.798-0.195-11.056,3.302-15.117,7.114c-1.599,1.501-3.098,3.121-4.494,4.828c-2.62,8.992-6.052,28.502-6.917,32.021
					c-1.018,4.142-2.007,8.305-2.6,12.537c-0.578,4.121-0.865,8.499-0.003,12.604c1.171,5.57,7.45,5.903,11.907,5.114
					c1.9-0.337,3.805-0.88,5.599-1.645C224.351,234.431,225.589,228.785,226.767,223.128z"/>
				<path style="opacity:0.65;fill:#92422B;" d="M247.915,189.747c-0.126-1.192-0.242-2.382-0.428-3.567
					c-0.346-2.205-0.936-4.638-2.353-6.422c-1.186-1.493-2.905-2.342-4.785-1.741c-1.949,0.624-3.52,2.254-4.802,3.78
					c-1.467,1.746-2.737,3.653-3.914,5.603c-1.204,1.995-2.396,4.035-3.283,6.194c-0.634,1.545-1.111,3.194-1.203,4.869
					c-0.094,1.715,0.316,3.328,0.941,4.914c0.557,1.413,1.255,2.809,2.209,3.996c0.381,0.474,0.779,0.935,1.146,1.42
					c0.354,0.469,0.902,1.124,0.92,1.746c0.029,1.059-1.524,2.153-2.212,2.773c-1.124,1.012-2.17,1.985-3.045,3.227
					c-0.964,1.368-1.798,2.861-2.282,4.47c-0.51,1.698-0.567,3.307-0.011,4.999c0.095,0.29,0.574,0.062,0.567-0.184
					c-0.045-1.506,0.057-3.127,0.477-4.578c0.161-0.557,0.379-1.092,0.62-1.615c0.537,0.427,1.408,0.587,2.003,0.593
					c0.95,0.009,1.884-0.311,2.713-0.755c1.793-0.961,3.132-2.405,4.466-3.903c0.135-0.152-0.042-0.321-0.194-0.19
					c-1.309,1.121-2.652,2.313-4.147,3.182c-0.699,0.407-1.497,0.751-2.316,0.779c-0.406,0.014-0.803-0.048-1.184-0.192
					c-0.309-0.117-0.577-0.309-0.871-0.442c0.279-0.502,0.577-0.994,0.904-1.467c0.74-1.074,1.579-1.949,2.556-2.806
					c0.902-0.792,1.852-1.564,2.583-2.525c0.582-0.765,0.901-1.595,0.548-2.534c-0.435-1.158-1.297-2.098-2.031-3.072
					c-0.895-1.186-1.515-2.579-2.023-3.968c-0.582-1.588-0.898-3.135-0.7-4.83c0.33-2.814,1.707-5.377,3.092-7.799
					c0.956-1.67,1.956-3.316,3.059-4.894c1.166-1.668,2.465-3.395,4.114-4.618c1.359-1.008,2.65-1.263,4.044-0.156
					c1.838,1.459,2.46,4.016,2.986,6.182c0.555,2.285,1.003,4.581,1.626,6.849c0.094,0.342,0.689,0.037,0.611-0.268
					C248.061,191.801,248.023,190.768,247.915,189.747z"/>
			</g>
			<g>
				<path style="fill:#B56D51;" d="M19.5,196.042c-1.625-6.494,1.472-13.369,5.224-18.536c3.488-4.804,8.428-9.763,14.73-9.975
					c5.798-0.195,11.056,3.302,15.117,7.114c1.599,1.501,3.098,3.121,4.494,4.828c2.62,8.992,6.052,28.502,6.917,32.021
					c1.018,4.142,2.007,8.305,2.6,12.537c0.578,4.121,0.865,8.499,0.003,12.604c-1.171,5.57-7.45,5.903-11.907,5.114
					c-2.379-0.421-4.768-1.16-6.934-2.264c-2.926-1.491-4.962-4.068-6.506-6.965c-1.592-2.989-2.654-6.224-4.132-9.266
					c-1.745-3.592-4.27-6.683-6.913-9.61c-3.465-3.838-7.329-7.507-10.258-11.829C20.908,199.974,20.005,198.063,19.5,196.042z"/>
				<path style="opacity:0.64;fill:#EB936D;" d="M68.581,224.031c-0.594-4.233-1.582-8.395-2.6-12.537
					c-0.865-3.519-4.297-23.029-6.917-32.021c-1.396-1.708-2.895-3.327-4.494-4.828c-4.061-3.813-9.319-7.309-15.117-7.114
					c-0.76,0.026-1.499,0.122-2.219,0.276c2.65,3.283,4.413,7.275,5.663,11.278c1.754,5.622,2.601,11.486,3.296,17.319
					c0.814,6.83,1.563,13.663,2.63,20.46c1.223,7.793,2.784,15.542,4.938,23.134c0.11,0.389,0.229,0.776,0.343,1.164
					c0.852,0.238,1.713,0.433,2.573,0.585c4.457,0.79,10.737,0.456,11.907-5.114C69.447,232.531,69.16,228.153,68.581,224.031z"/>
				<path style="opacity:0.65;fill:#92422B;" d="M26.409,189.747c0.126-1.192,0.243-2.382,0.428-3.567
					c0.346-2.205,0.936-4.638,2.353-6.422c1.186-1.493,2.905-2.342,4.785-1.741c1.95,0.624,3.52,2.254,4.802,3.78
					c1.467,1.746,2.737,3.653,3.914,5.603c1.204,1.995,2.396,4.035,3.282,6.194c0.634,1.545,1.111,3.194,1.203,4.869
					c0.095,1.715-0.316,3.328-0.941,4.914c-0.556,1.413-1.255,2.809-2.209,3.996c-0.381,0.474-0.779,0.935-1.146,1.42
					c-0.354,0.469-0.902,1.124-0.92,1.746c-0.029,1.059,1.525,2.153,2.212,2.773c1.124,1.012,2.17,1.985,3.045,3.227
					c0.964,1.368,1.799,2.861,2.282,4.47c0.51,1.698,0.567,3.307,0.011,4.999c-0.095,0.29-0.574,0.062-0.567-0.184
					c0.045-1.506-0.057-3.127-0.477-4.578c-0.161-0.557-0.379-1.092-0.62-1.615c-0.537,0.427-1.408,0.587-2.003,0.593
					c-0.95,0.009-1.884-0.311-2.713-0.755c-1.793-0.961-3.131-2.405-4.466-3.903c-0.135-0.152,0.042-0.321,0.194-0.19
					c1.309,1.121,2.653,2.313,4.147,3.182c0.699,0.407,1.497,0.751,2.316,0.779c0.406,0.014,0.803-0.048,1.184-0.192
					c0.309-0.117,0.576-0.309,0.871-0.442c-0.279-0.502-0.578-0.994-0.904-1.467c-0.74-1.074-1.579-1.949-2.556-2.806
					c-0.902-0.792-1.852-1.564-2.583-2.525c-0.582-0.765-0.901-1.595-0.549-2.534c0.435-1.158,1.297-2.098,2.031-3.072
					c0.895-1.186,1.515-2.579,2.023-3.968c0.582-1.588,0.898-3.135,0.7-4.83c-0.33-2.814-1.707-5.377-3.092-7.799
					c-0.956-1.67-1.956-3.316-3.059-4.894c-1.167-1.668-2.465-3.395-4.114-4.618c-1.359-1.008-2.65-1.263-4.044-0.156
					c-1.838,1.459-2.46,4.016-2.986,6.182c-0.555,2.285-1.003,4.581-1.626,6.849c-0.094,0.342-0.689,0.037-0.611-0.268
					C26.263,191.801,26.302,190.768,26.409,189.747z"/>
			</g>
			<path style="fill:#B56D51;" d="M226.495,135.859c-4.258-57.262-82.628-68.06-82.628-68.06l-12.878,0.009
				c0,0-78.355,10.902-82.537,68.17c-4.181,57.268,6.099,107.293,13.341,120.549c7.242,13.257,45.242,49.399,53.081,53.01
				c4.023,1.853,17.1,3.605,17.1,3.605c0.38,0,2.563-0.002,5.617-0.118c3.053,0.112,5.596-0.308,5.596-0.308
				c6.062-0.444,13.096-1.351,17.116-3.21c7.834-3.622,45.786-39.815,53.01-53.081C220.538,243.159,230.753,193.121,226.495,135.859
				z"/>
			<path style="opacity:0.64;fill:#EB936D;" d="M147.793,233.691c-4.804-0.92-9.901-1.809-14.755-0.682
				c-1.871,0.434-3.722,0.929-5.618,1.253c-2.168,0.371-4.674,0.769-6.821,0.083c-0.002-0.001-0.004-0.001-0.006-0.002
				c0.975,1.271,2.193,2.358,3.57,3.214c2.653,1.65,5.752,2.533,8.839,2.895c3.302,0.387,6.68,0.216,9.929-0.486
				c3.059-0.661,6.068-1.794,8.64-3.602c0.842-0.592,1.632-1.267,2.333-2.019C151.865,234.549,149.552,234.028,147.793,233.691z"/>
			<path style="opacity:0.23;fill:#EA95A2;" d="M160.559,259.315c-6.68-1.014-13.403-1.796-20.159-2.024
				c-3.343-0.113-6.691-0.09-10.032,0.09c-1.689,0.091-3.376,0.223-5.059,0.395c-1.044,0.107-2.099,0.193-3.131,0.398
				c-3.692,0.733-7.257,2.003-10.96,2.705c-1.778,0.337-3.632,0.619-5.445,0.455c-0.085-0.008-0.17-0.02-0.255-0.03
				c0.044,0.038,0.09,0.076,0.134,0.114c5.059,4.365,10.062,9.113,16.337,11.682c5.288,2.165,11.171,2.803,16.845,2.623
				c5.964-0.19,11.955-1.329,17.51-3.528c2.611-1.034,5.141-2.325,7.443-3.938c2.298-1.609,4.377-3.505,6.526-5.302
				c1.167-0.976,2.364-1.928,3.622-2.786c-1.318,0.141-2.645,0.202-3.971,0.181C166.792,260.301,163.686,259.79,160.559,259.315z"/>
			<g>
				<path style="fill:#28292C;" d="M165.199,165.896c8.98-3.374,18.273-4.522,27.518-4.984c6.94-0.346,14.443-0.047,20.713,3.488
					c-0.84-1.6-1.857-3.057-3.061-4.309c-5.371-5.581-12.881-6.846-19.867-6.983c-4.495-0.088-8.994,0.428-13.493,0.743
					c-3.66,0.256-7.347,0.571-10.954,1.564c-2.696,1.792-5.169,4.05-7.325,6.814c-2.412,3.093-4.367,6.624-6.228,10.215
					C156.536,169.696,160.811,167.545,165.199,165.896z"/>
				<g>
					<path style="fill:#FFFFFF;" d="M207.503,177.633c-0.01-0.198-0.089-0.369-0.298-0.424c-3.718-0.985-7.615-1.335-11.441-1.624
						c-3.73-0.281-7.479-0.356-11.212-0.087c-3.779,0.273-7.545,0.877-11.16,2.033c-3.154,1.008-6.278,2.401-8.453,4.995
						c-1.192,1.422-2.152,3.124-3.044,4.747c-0.062,0.114-0.123,0.23-0.185,0.346c-0.156,0.044-0.305,0.134-0.374,0.26
						c-1.001,1.818-1.263,3.836-1.857,5.798c-0.059,0.194-0.036,0.405,0.143,0.53c7.49,5.202,16.773,7.074,25.781,6.43
						c4.133-0.295,8.436-1.073,12.076-3.148c3.181-1.814,5.652-4.731,7.32-7.959C206.685,185.882,207.702,181.744,207.503,177.633z"
						/>
					<g>
						<g>
							<g>
								<g>
									<path style="fill:#92422B;" d="M193.072,175.243c-6.715-0.802-13.884-1.014-20.376,1.17
										c-1.155,1.489-2.016,3.232-2.454,5.176c-1.62,7.196,3.033,14.314,10.393,15.898c7.36,1.584,14.641-2.965,16.261-10.161
										c1.008-4.478-0.415-8.923-3.405-12.026C193.352,175.283,193.212,175.26,193.072,175.243z"/>
									<path style="fill:#1A1716;" d="M185.754,174.755c-0.138-0.03-0.275-0.044-0.412-0.068c-1.362-0.02-2.724,0.011-4.079,0.104
										c-3.689,0.845-6.748,3.67-7.617,7.53c-1.206,5.359,2.258,10.659,7.739,11.838c5.481,1.18,10.902-2.208,12.108-7.566
										C194.7,181.235,191.235,175.935,185.754,174.755z"/>
									<path style="fill:#FFFFFF;" d="M181.868,174.753c-1.799,0.099-3.588,0.305-5.344,0.653
										c-0.425,0.479-0.737,1.066-0.887,1.729c-0.478,2.122,0.895,4.221,3.065,4.688c2.171,0.467,4.318-0.875,4.795-2.997
										C183.858,177.224,183.163,175.636,181.868,174.753z"/>
									<path style="fill:#FFFFFF;" d="M175.184,182.999c-0.141,0.627-0.775,1.023-1.416,0.885
										c-0.641-0.138-1.046-0.758-0.905-1.384c0.141-0.627,0.775-1.023,1.416-0.885
										C174.919,181.752,175.325,182.372,175.184,182.999z"/>
								</g>
							</g>
						</g>
					</g>
					<path style="fill:#501C04;" d="M209.901,177.466c-1.015-0.417-2.099-0.615-3.129-0.987c-1.058-0.382-2.111-0.728-3.193-1.036
						c-2.132-0.607-4.262-1.046-6.456-1.356c-4.045-0.572-8.194-0.932-12.281-0.869c-4.107,0.063-8.274,0.647-12.086,2.24
						c-3.831,1.601-7.118,4.204-9.58,7.547c-1.202,1.633-2.19,3.46-3.066,5.286c-0.849,1.767-1.563,3.706-0.899,5.652
						c0.11,0.324,0.53,0.03,0.572-0.186c0.335-1.73,1.249-3.428,2.11-4.949c0.848-1.499,1.787-2.989,2.798-4.383
						c2.108-2.907,4.873-5.23,8.18-6.641c7.121-3.039,14.879-2.188,22.368-1.521c2.39,0.213,4.772,0.507,7.154,0.804
						c1.206,0.151,2.406,0.316,3.614,0.44c1.215,0.124,2.4,0.441,3.618,0.539C209.902,178.067,210.258,177.613,209.901,177.466z"/>
				</g>
			</g>
			<g>
				<path style="fill:#28292C;" d="M109.731,165.896c-8.979-3.374-18.273-4.522-27.518-4.984c-6.94-0.346-14.443-0.047-20.713,3.488
					c0.84-1.6,1.857-3.057,3.061-4.309c5.371-5.581,12.881-6.846,19.867-6.983c4.495-0.088,8.994,0.428,13.493,0.743
					c3.66,0.256,7.347,0.571,10.954,1.564c2.696,1.792,5.169,4.05,7.325,6.814c2.412,3.093,4.367,6.624,6.228,10.215
					C118.395,169.696,114.12,167.545,109.731,165.896z"/>
				<g>
					<path style="fill:#FFFFFF;" d="M70.129,189.528c1.668,3.228,4.139,6.145,7.321,7.959c3.64,2.075,7.943,2.853,12.076,3.148
						c9.007,0.643,18.291-1.228,25.781-6.43c0.179-0.124,0.202-0.335,0.143-0.53c-0.594-1.962-0.855-3.98-1.857-5.798
						c-0.07-0.126-0.218-0.216-0.374-0.26c-0.062-0.115-0.122-0.232-0.185-0.346c-0.891-1.623-1.851-3.325-3.044-4.747
						c-2.175-2.593-5.299-3.986-8.453-4.995c-3.615-1.156-7.38-1.76-11.16-2.033c-3.733-0.269-7.482-0.194-11.212,0.087
						c-3.826,0.288-7.723,0.639-11.441,1.624c-0.209,0.055-0.288,0.227-0.298,0.424C67.228,181.744,68.245,185.882,70.129,189.528z"
						/>
					<g>
						<g>
							<g>
								<g>
									<path style="fill:#92422B;" d="M81.859,175.243c6.715-0.802,13.884-1.014,20.376,1.17c1.155,1.489,2.016,3.232,2.454,5.176
										c1.62,7.196-3.033,14.314-10.393,15.898c-7.36,1.584-14.641-2.965-16.261-10.161c-1.008-4.478,0.415-8.923,3.405-12.026
										C81.579,175.283,81.718,175.26,81.859,175.243z"/>
									<path style="fill:#1A1716;" d="M89.177,174.755c0.138-0.03,0.275-0.044,0.412-0.068c1.362-0.02,2.724,0.011,4.079,0.104
										c3.689,0.845,6.748,3.67,7.617,7.53c1.206,5.359-2.258,10.659-7.739,11.838c-5.481,1.18-10.902-2.208-12.108-7.566
										C80.231,181.235,83.696,175.935,89.177,174.755z"/>
									<path style="fill:#FFFFFF;" d="M93.062,174.753c1.8,0.099,3.588,0.305,5.344,0.653c0.425,0.479,0.737,1.066,0.887,1.729
										c0.478,2.122-0.894,4.221-3.065,4.688c-2.171,0.467-4.318-0.875-4.795-2.997C91.072,177.224,91.767,175.636,93.062,174.753
										z"/>
									<path style="fill:#FFFFFF;" d="M99.747,182.999c0.141,0.627,0.775,1.023,1.416,0.885c0.641-0.138,1.046-0.758,0.905-1.384
										c-0.141-0.627-0.775-1.023-1.416-0.885C100.011,181.752,99.606,182.372,99.747,182.999z"/>
								</g>
							</g>
						</g>
					</g>
					<path style="fill:#501C04;" d="M65.029,177.466c1.015-0.417,2.099-0.615,3.129-0.987c1.058-0.382,2.111-0.728,3.193-1.036
						c2.132-0.607,4.262-1.046,6.456-1.356c4.045-0.572,8.194-0.932,12.281-0.869c4.107,0.063,8.274,0.647,12.086,2.24
						c3.832,1.601,7.119,4.204,9.58,7.547c1.202,1.633,2.19,3.46,3.066,5.286c0.849,1.767,1.563,3.706,0.899,5.652
						c-0.11,0.324-0.53,0.03-0.572-0.186c-0.335-1.73-1.249-3.428-2.109-4.949c-0.848-1.499-1.787-2.989-2.798-4.383
						c-2.108-2.907-4.873-5.23-8.179-6.641c-7.121-3.039-14.879-2.188-22.368-1.521c-2.39,0.213-4.772,0.507-7.153,0.804
						c-1.206,0.151-2.406,0.316-3.614,0.44c-1.215,0.124-2.4,0.441-3.618,0.539C65.028,178.067,64.672,177.613,65.029,177.466z"/>
				</g>
			</g>
			<path style="fill:#010003;" d="M127.72,96.165c0,0,40.773-11.227,76.819,14.182c0,0,10.637-47.864-31.319-45.501
				C131.266,67.21,127.72,96.165,127.72,96.165z"/>
			<path style="fill:#27282B;" d="M276.536,59.81c-2.324,1.844-5.425,1.925-8.277,1.648c-2.963-0.288-5.885-1.057-8.721-1.938
				c-3.593-1.116-6.93-2.874-9.957-5.101c-3.064-2.254-5.741-4.988-8.514-7.58c-5.57-5.206-11.407-10.34-18.366-13.613
				c-6.008-2.825-12.713-4.287-19.36-3.982c-5.394,0.247-10.862,1.604-15.472,4.412c-0.131-0.616-0.291-1.23-0.487-1.839
				c-1.666-5.175-4.994-9.667-8.866-13.416c-7.197-6.968-16.783-10.9-26.581-12.442c-11.93-1.878-24.367-1.441-36.235,0.651
				c-11.708,2.064-23.548,5.394-33.722,11.698c-2.174,1.347-4.282,2.802-6.336,4.337c-2.793,1.525-5.52,3.171-8.165,4.939
				c-6.146,4.109-11.898,8.766-17.667,13.38c-5.351,4.28-10.741,8.556-16.436,12.374c-5.171,3.467-11.326,6.96-17.787,6.277
				c-1.597-0.169-3.162-0.648-4.602-1.354c-0.813-0.398-2.358,0.884-1.408,1.479c2.271,1.422,4.309,3.193,6.631,4.534
				c2.472,1.427,5.201,2.197,8.051,2.333c1.126,0.053,2.252,0.018,3.377-0.081c-1.682,1.05-3.277,2.24-4.817,3.487
				c-4.528,3.664-8.677,7.916-11.647,12.96c-3.165,5.375-4.93,11.672-5.977,17.784c-1.092,6.377-1.205,12.884-0.561,19.314
				c0.661,6.608,2.22,13.343,5.976,18.926c0.573,0.851,1.911-0.14,1.99-0.882c0.44-4.158,1.466-8.261,2.927-12.223
				c-0.042,0.194-0.089,0.386-0.13,0.58c-1.553,7.44-2.302,15.49,0.633,22.688c1.385,3.398,3.374,6.501,5.738,9.298
				c2.533,2.996,5.255,5.819,7.742,8.858c4.837,5.913,9.211,12.234,12.88,18.939c2.118,3.87,4.009,7.87,5.583,11.993
				c1.07,2.802,2.03,5.693,2.688,8.641c0.276,1.762,0.551,3.524,0.812,5.289c0.147,0.997,1.98,0.206,1.915-0.622
				c-0.006-0.07-0.015-0.14-0.021-0.21c0.001,0,0.001,0,0.002-0.001c-0.002-0.014-0.004-0.028-0.006-0.042
				c-0.145-1.72-0.408-3.427-0.761-5.119c-1.312-9.103-2.331-18.337-1.807-27.507c0.293-5.125,1.082-10.236,2.007-15.282
				c0.913-4.985,2.126-9.917,3.66-14.748c0.089-0.279,0.183-0.557,0.274-0.836c2.018-0.919,3.977-1.969,5.866-3.03
				c4.369-2.453,8.524-5.266,12.455-8.373c7.332-5.794,14.168-12.431,20.048-19.715c0.604,2.271,1.45,4.483,2.542,6.601
				c2.688,5.214,6.808,9.543,11.837,12.557c5.518,3.307,11.84,4.84,18.161,5.69c3.493,0.47,7.003,0.58,10.505,0.926
				c2.007,0.199,5.148,0.798,6.653-1c0.133-0.159,0.28-0.433,0.125-0.632c-1.072-1.378-2.552-2.31-4.005-3.236
				c-1.593-1.015-3.017-2.112-4.279-3.527c-2.581-2.895-4.395-6.416-5.503-10.121c-2.011-6.726-2.04-14.148,0.014-20.866
				c2.06-6.738,6.253-12.428,12.091-16.371c5.714-3.859,12.891-6.478,19.863-5.67c3.725,0.432,7.696,2.135,9.987,5.207
				c2.183,2.928,2.467,6.618,3.094,10.09c-0.116,0.209-0.04,0.42,0.153,0.458c0.098,0.055,0.245,0.006,0.368-0.087
				c1.79-0.773,3.523-1.717,5.468-2.057c1.891-0.331,3.851-0.16,5.657,0.489c4.092,1.469,6.741,5.363,8.407,9.2
				c3.557,8.192,2.752,17.782-0.875,25.806c-1.053,2.33-2.384,4.544-4.026,6.508c-1.663,1.989-3.632,3.681-5.668,5.277
				c-0.452,0.354-0.687,1.21,0.12,1.257c6.491,0.378,12.775-1.798,17.84-5.837c3.434-2.739,6.259-6.15,8.44-9.941
				c1.131,2.663,2.246,5.332,3.195,8.068c1.053,3.035,1.763,6.18,2.483,9.308c0.738,3.207,1.398,6.428,2.056,9.652
				c0.65,3.184,1.342,6.363,1.909,9.564c0.579,3.272,0.931,6.58,1.149,9.895c0.431,6.558,0.391,13.137,0.66,19.702
				c0.107,2.603,0.07,5.186,0.073,7.79c0.002,1.253,0.041,2.507,0.129,3.757c0.069,0.987,0.108,2.074,0.425,3.017
				c0.292,0.869,1.544,0.133,1.609-0.523c0.179-1.814,0.27-3.612,0.606-5.411c0.35-1.875,0.88-3.704,1.393-5.538
				c0.998-3.566,2.033-7.15,3.194-10.667c1.289-3.906,2.781-7.739,4.22-11.591c1.383-3.702,2.586-7.466,4.069-11.13
				c0.721-1.781,1.474-3.549,2.255-5.305c1.412-2.142,2.877-4.248,4.311-6.342c5.939-8.675,11.963-17.939,14.28-28.342
				c0.108-0.484,0.206-0.969,0.297-1.454c0.201,1.761,0.266,3.514,0.129,5.294c-0.186,2.432-0.572,4.848-0.527,7.293
				c0.021,1.142,1.529,0.693,1.922,0.034c5.836-9.785,9.39-20.819,9.394-32.271c0.001-2.829-0.156-5.681-0.799-8.443
				c-0.618-2.652-1.635-5.179-2.79-7.638c-1.167-2.486-2.458-4.875-4.188-7.019c-0.657-0.815-1.365-1.587-2.103-2.329
				c-0.268-0.363-0.544-0.72-0.827-1.073c0.654-0.093,1.304-0.204,1.948-0.339c2.573-0.537,5.06-1.453,7.313-2.813
				c2.077-1.254,3.769-2.951,5.242-4.862c1.554-2.016,3.316-4.688,3.259-7.344C278.337,59.376,277.173,59.305,276.536,59.81z"/>
			<path style="opacity:0.31;fill:#90452C;" d="M95.583,113.962c2.454-4.7,4.963-9.411,6.655-14.453
				c1.528-4.553,2.258-9.285,1.994-14.058c-0.008,0.029-0.015,0.058-0.024,0.086c-1.76,6.031-5.132,11.503-8.988,16.411
				c-4.047,5.151-8.749,9.786-13.787,13.964c-2.38,1.973-4.824,3.858-7.44,5.509c-2.898,1.828-5.92,3.464-9.069,4.816
				c-3.139,1.348-6.396,2.421-9.743,3.115c-1.667,0.346-3.343,0.553-5.03,0.76c-1.66,0.204-3.327,0.243-4.992,0.065
				c-5.699-0.61-10.75-3.59-16.29-4.849c0.694,1.276,1.494,2.492,2.428,3.607c3.76,4.49,9.131,7.042,14.507,9.062
				c0.312,0.117,0.361,0.587,0,0.684c-1.611,0.434-3.281,0.647-4.948,0.678c-5.468,0.101-11.841-1.796-14.788-6.694
				c0.004,1.466,0.093,2.932,0.248,4.39c0.398,3.736,1.22,7.441,2.421,11c1.126,3.338,2.608,6.602,4.678,9.466
				c0.225,0.311-0.198,0.63-0.485,0.485c-3.41-1.724-5.86-4.775-7.527-8.151c-1.574-3.188-2.543-6.649-3.227-10.126
				c-0.331-1.682-0.591-3.378-0.811-5.078c-0.244-1.894-0.479-3.798-0.517-5.709c-0.178-8.851,3.174-17.479,8.392-24.536
				c-0.153,0.031-0.306,0.063-0.457,0.101c-3.927,1.008-7.145,4.113-9.732,7.079c-2.971,3.407-5.467,7.245-7.585,11.232
				c-0.867,1.631-1.701,3.303-2.358,5.032c-0.773,2.035-1.078,4.213-1.086,6.382c0.721,1.655,1.572,3.253,2.589,4.764
				c0.573,0.851,1.911-0.14,1.99-0.882c0.44-4.158,1.466-8.261,2.927-12.223c-0.042,0.194-0.089,0.386-0.13,0.58
				c-1.553,7.44-2.302,15.49,0.633,22.688c1.385,3.398,3.374,6.501,5.738,9.298c2.533,2.996,5.255,5.819,7.742,8.858
				c4.837,5.913,9.211,12.234,12.88,18.939c2.118,3.87,4.009,7.87,5.583,11.993c1.07,2.802,2.03,5.693,2.688,8.641
				c0.276,1.762,0.551,3.524,0.812,5.289c0.147,0.997,1.98,0.206,1.915-0.622c-0.006-0.07-0.015-0.14-0.021-0.21
				c0.001,0,0.001,0,0.002-0.001c-0.002-0.014-0.004-0.028-0.006-0.042c-0.145-1.72-0.408-3.427-0.761-5.119
				c-1.312-9.102-2.331-18.337-1.807-27.507c0.293-5.125,1.082-10.236,2.007-15.281c0.913-4.985,2.126-9.917,3.66-14.748
				c0.089-0.279,0.183-0.557,0.274-0.836c2.018-0.919,3.977-1.969,5.866-3.03c4.369-2.453,8.524-5.266,12.455-8.373
				c6.383-5.044,12.388-10.728,17.715-16.92C93.678,117.634,94.626,115.796,95.583,113.962z"/>
			<path style="opacity:0.31;fill:#90452C;" d="M176.342,96.805c0.098,0.055,0.245,0.006,0.368-0.087
				c1.79-0.773,3.523-1.717,5.468-2.058c1.891-0.331,3.851-0.16,5.657,0.489c4.092,1.469,6.741,5.363,8.407,9.2
				c3.557,8.192,2.752,17.782-0.875,25.806c-0.934,2.066-2.088,4.041-3.483,5.832c0.218-0.208,0.436-0.417,0.649-0.632
				c4.505-4.563,7.697-10.371,9.619-16.46c0.91-2.884,1.603-5.903,1.843-8.924c0.186-2.35,0.021-4.732-0.373-7.052
				c-0.813-4.781-2.588-9.893-6.11-13.372c-1.568-1.549-3.533-2.69-5.736-3.001c-2.649-0.374-5.285,0.46-7.598,1.703
				c-0.278,0.149-0.589-0.096-0.521-0.401c0.21-0.937,0.417-1.875,0.619-2.814c1.615-7.478,3.041-15.019,5.398-22.31
				c2.159-6.679,5.111-13.274,9.387-18.881c3.384-4.438,7.642-8.258,12.701-10.683c1.802-0.864,3.68-1.536,5.604-2.017
				c-4.523-1.431-9.288-2.116-14.025-1.899c-5.394,0.247-10.862,1.604-15.472,4.412c-0.131-0.616-0.291-1.23-0.487-1.839
				c-1.666-5.175-4.994-9.667-8.866-13.416c-3.191-3.09-6.853-5.58-10.794-7.532c0.039,0.036,0.08,0.07,0.119,0.106
				c4.857,4.472,8.201,10.305,9.902,16.664c0.942,3.522,1.351,7.12,1.507,10.755c0.164,3.823,0.179,7.661-0.166,11.475
				c-0.66,7.295-2.707,15.256-8.638,20.087c-3.15,2.566-7.03,2.971-10.942,3.203c-4.863,0.289-9.698,1.124-14.321,2.684
				c-7.953,2.683-15.561,7.636-19.925,14.967c-3.924,6.592-4.594,14.421-2.996,21.827c0.886,4.109,2.159,8.102,4.266,11.76
				c2.082,3.614,4.867,6.768,8.126,9.363c1.758,1.4,3.734,2.544,5.775,3.522c-1.395-0.926-2.656-1.938-3.786-3.205
				c-2.581-2.895-4.395-6.417-5.503-10.121c-2.011-6.726-2.04-14.148,0.014-20.866c2.06-6.738,6.253-12.428,12.091-16.372
				c5.714-3.859,12.891-6.478,19.863-5.669c3.725,0.432,7.696,2.135,9.987,5.207c2.183,2.928,2.467,6.618,3.094,10.09
				C176.073,96.556,176.149,96.767,176.342,96.805z"/>
			<path style="opacity:0.31;fill:#90452C;" d="M273.417,63.455c-4.754,2.829-10.268,3.873-15.746,3.278
				c-5.396-0.586-10.547-2.525-15.366-4.979c2.792,3.273,5.599,6.535,8.288,9.894c5.448,6.805,10.588,14.11,13.531,22.385
				c1.433,4.029,2.289,8.275,2.33,12.559c0.044,4.59-0.867,9.132-2.521,13.405c-0.125,0.323-0.568,0.348-0.684,0
				c-0.715-2.14-1.467-4.268-2.298-6.366c-1.378-3.48-2.982-6.877-4.932-10.075c-1.535-2.517-3.283-4.889-5.208-7.114
				c2.366,4.936,3.431,10.418,3.545,15.872c0.123,5.84-0.802,11.706-2.507,17.286c-1.388,4.541-3.34,8.954-5.443,13.207
				c-2.242,4.534-4.779,8.971-7.88,12.977c-2.565,3.313-5.758,6.797-9.874,8.099c-0.192,0.061-0.376-0.072-0.436-0.248
				c-1.356-3.979-2.058-8.12-2.713-12.26c-0.575-3.636-1.149-7.283-2.178-10.824c-0.971-3.343-2.485-6.439-3.978-9.57
				c-2.472-5.181-5.16-10.678-9.337-14.731c0.376,2.669,0.447,5.373,0.162,8.058c-0.329,3.086-1.097,6.045-2.198,8.872
				c1.549-1.78,2.922-3.712,4.1-5.761c1.131,2.663,2.246,5.332,3.195,8.068c1.053,3.035,1.763,6.18,2.483,9.308
				c0.738,3.206,1.398,6.428,2.056,9.652c0.65,3.184,1.342,6.363,1.909,9.564c0.579,3.273,0.931,6.581,1.149,9.896
				c0.431,6.558,0.391,13.137,0.66,19.702c0.107,2.603,0.07,5.186,0.073,7.79c0.002,1.253,0.041,2.507,0.129,3.757
				c0.069,0.987,0.108,2.074,0.425,3.017c0.292,0.869,1.544,0.133,1.609-0.523c0.179-1.814,0.27-3.612,0.606-5.411
				c0.35-1.875,0.88-3.704,1.393-5.538c0.998-3.566,2.033-7.15,3.194-10.667c1.289-3.906,2.781-7.739,4.22-11.591
				c1.383-3.701,2.586-7.466,4.069-11.13c0.721-1.781,1.474-3.549,2.255-5.305c1.412-2.142,2.877-4.248,4.311-6.342
				c5.939-8.675,11.963-17.939,14.28-28.342c0.108-0.484,0.206-0.969,0.297-1.454c0.201,1.761,0.266,3.514,0.129,5.294
				c-0.186,2.432-0.572,4.848-0.527,7.294c0.021,1.142,1.529,0.693,1.922,0.034c5.836-9.784,9.39-20.819,9.394-32.271
				c0.001-2.829-0.156-5.682-0.799-8.444c-0.618-2.652-1.635-5.179-2.789-7.638c-1.167-2.486-2.458-4.875-4.188-7.019
				c-0.657-0.815-1.365-1.587-2.103-2.329c-0.268-0.363-0.544-0.72-0.827-1.074c0.654-0.092,1.304-0.204,1.948-0.339
				c2.573-0.537,5.06-1.453,7.313-2.813c2.077-1.254,3.769-2.951,5.242-4.862c1.554-2.017,3.316-4.688,3.259-7.344
				c-0.005-0.212-0.065-0.38-0.16-0.51C276.728,61.203,275.141,62.43,273.417,63.455z"/>
			<g>
				<path style="opacity:0.65;fill:#92422B;" d="M176.192,259.017c-0.599-0.336-1.666,0.137-2.217,0.36
					c-1.308,0.53-2.567,1.028-3.946,1.426c-0.01,0.003-0.017,0.008-0.026,0.012c-0.13,0.016-0.258,0.036-0.388,0.051
					c-5.769,0.675-11.631,1.004-17.454,1.071c-5.771,0.067-11.545,0.118-17.316,0.079c-2.909-0.02-5.825,0.007-8.731-0.108
					c-2.809-0.111-5.612-0.293-8.415-0.475c-2.685-0.174-5.36-0.415-8.049-0.551c-2-0.101-4.454-0.213-6.032-1.375
					c-0.004,0.003-0.008,0.007-0.012,0.01c-0.521-0.254-1.475,0.31-1.084,0.77c1.21,1.424,3.508,1.687,5.452,1.838
					c2.465,0.192,4.949,0.336,7.418,0.476c6.32,0.358,12.662,0.225,18.992,0.19c6.407-0.036,12.797-0.067,19.199-0.284
					c6.2-0.21,12.513-0.289,18.636-1.186c1.049-0.154,2.138-0.272,3.09-0.695C175.818,260.401,177.032,259.487,176.192,259.017z"/>
				<path style="opacity:0.28;fill:#EB936D;" d="M166.648,259.507c-7.861-0.23-15.342-2.366-23.147-2.954
					c-7.818-0.589-15.487,0.315-23.162,1.488c-2.187,0.334-4.377,0.662-6.557,1.022c-1.863,0.308-3.821,0.877-5.707,0.369
					c-0.051-0.014-0.15,0.061-0.086,0.092c1.302,0.625,2.796,0.52,4.233,0.358c1.817-0.205,3.627-0.494,5.438-0.731
					c3.994-0.523,7.998-1.073,12.019-1.435c7.849-0.706,15.879-0.435,23.661,0.637c4.368,0.602,8.794,1.386,13.244,1.31
					C166.686,259.66,166.791,259.511,166.648,259.507z"/>
				<path style="opacity:0.28;fill:#EB936D;" d="M151.616,272.936c-1.242-0.074-2.516,0.094-3.748,0.226
					c-1.344,0.144-2.682,0.322-4.032,0.431c-2.666,0.215-5.341,0.176-8.013,0.064c-2.568-0.108-5.161-0.275-7.7-0.623
					c-2.427-0.332-4.987-0.748-7.277-1.502c-0.166-0.055-0.441,0.17-0.266,0.283c1.006,0.65,1.966,1.156,3.164,1.547
					c1.136,0.371,2.358,0.598,3.559,0.763c2.567,0.354,5.177,0.541,7.773,0.66c2.737,0.126,5.524,0.139,8.246-0.163
					c1.327-0.147,2.642-0.363,3.956-0.571c1.41-0.223,2.848-0.41,4.237-0.71C151.734,273.295,151.981,272.958,151.616,272.936z"/>
			</g>
			<g>
				<path style="opacity:0.65;fill:#92422B;" d="M136.351,239.85c-0.514-0.158-1.031-0.217-1.562-0.324
					c-0.646-0.13-1.257-0.328-1.882-0.503c-1.298-0.365-2.611-0.676-3.881-1.101c-2.507-0.839-5.151-1.896-6.932-3.53
					c-0.853-0.782-1.382-1.681-1.784-2.636c-0.486-1.153-0.142-2.314,0.385-3.421c0.618-1.299,1.406-2.545,2.063-3.832
					c0.51-1,0.934-2.031,1.342-3.063c-1.787,3.041-3.572,6.081-5.626,8.998c-0.156,0.495-0.258,1-0.266,1.517
					c-0.015,1.053,0.489,2.062,1.267,2.937c1.666,1.874,4.344,3.228,7.07,4.059c1.595,0.486,3.24,0.855,4.918,1.118
					c0.777,0.121,1.577,0.165,2.366,0.212c0.755,0.046,1.478,0.131,2.231,0.063C136.312,240.32,136.767,239.977,136.351,239.85z"/>
				<path style="opacity:0.65;fill:#92422B;" d="M139.121,239.85c0.514-0.158,1.031-0.217,1.562-0.324
					c0.646-0.13,1.257-0.328,1.882-0.503c1.298-0.365,2.611-0.676,3.881-1.101c2.507-0.839,5.152-1.896,6.932-3.53
					c0.853-0.782,1.382-1.681,1.784-2.636c0.486-1.153,0.142-2.314-0.385-3.421c-0.618-1.299-1.406-2.545-2.063-3.832
					c-0.51-1-0.934-2.031-1.342-3.063c1.787,3.041,3.572,6.081,5.626,8.998c0.156,0.495,0.258,1,0.266,1.517
					c0.015,1.053-0.489,2.062-1.267,2.937c-1.666,1.874-4.344,3.228-7.07,4.059c-1.594,0.486-3.24,0.855-4.918,1.118
					c-0.777,0.121-1.577,0.165-2.366,0.212c-0.755,0.046-1.478,0.131-2.231,0.063C139.16,240.32,138.706,239.977,139.121,239.85z"/>
			</g>
		</g>
		<g style="opacity:0.26;">
			<path style="fill:#E14A31;" d="M176.162,206.598c-0.021-0.064-0.061-0.114-0.12-0.151c-0.058-0.041-0.122-0.063-0.192-0.066
				c-0.074-0.017-0.149-0.015-0.224,0.005c-0.053,0.017-0.105,0.034-0.158,0.051c-0.109,0.049-0.206,0.116-0.289,0.203
				c-0.034,0.044-0.068,0.087-0.102,0.131c-0.055,0.085-0.086,0.178-0.095,0.279v0.184c-0.009,0.07,0.004,0.134,0.039,0.192
				c0.021,0.064,0.061,0.114,0.12,0.151c0.058,0.041,0.122,0.063,0.192,0.066c0.074,0.017,0.149,0.015,0.224-0.005
				c0.053-0.017,0.105-0.034,0.158-0.051c0.11-0.049,0.206-0.116,0.289-0.203c0.034-0.044,0.068-0.087,0.102-0.131
				c0.055-0.085,0.086-0.178,0.096-0.279v-0.184C176.21,206.721,176.197,206.657,176.162,206.598z"/>
			<path style="fill:#E14A31;" d="M182.221,205.107c-0.588,0-1.138,1.045-0.358,1.045
				C182.451,206.152,183.001,205.107,182.221,205.107z"/>
			<path style="fill:#E14A31;" d="M189.287,204.674c-0.01-0.087-0.027-0.171-0.052-0.254c-0.01-0.031-0.025-0.061-0.04-0.09
				c-0.014-0.087-0.045-0.17-0.124-0.219c-0.114-0.07-0.232-0.069-0.362-0.054c-0.146-0.008-0.295,0.006-0.418,0.073
				c-0.061,0.033-0.115,0.068-0.171,0.102c-0.242,0.112-0.465,0.265-0.642,0.457c-0.326,0.355-0.51,0.808-0.546,1.287
				c-0.009,0.123,0.035,0.239,0.122,0.324c0.095,0.094,0.203,0.122,0.337,0.134c0.192,0.017,0.383,0.007,0.574-0.022
				c0.237-0.036,0.45-0.135,0.654-0.257c0.099-0.059,0.189-0.14,0.271-0.219c0.081-0.078,0.153-0.171,0.211-0.267
				c0.116-0.19,0.184-0.401,0.204-0.622C189.316,204.924,189.3,204.796,189.287,204.674z"/>
			<path style="fill:#E14A31;" d="M199.108,207.182c-0.016-0.076-0.053-0.137-0.112-0.182c-0.048-0.058-0.11-0.096-0.186-0.113
				c-0.019-0.008-0.039-0.015-0.058-0.023c-0.044-0.006-0.088-0.013-0.132-0.019c-0.076-0.003-0.148,0.01-0.217,0.038
				c-0.053,0.012-0.101,0.033-0.145,0.064c-0.075,0.036-0.141,0.086-0.198,0.148l-0.072,0.066c-0.038,0.048-0.075,0.097-0.113,0.145
				c-0.049,0.071-0.079,0.148-0.09,0.231c-0.018,0.049-0.021,0.1-0.01,0.151c-0.004,0.051,0.008,0.097,0.036,0.139
				c0.023,0.071,0.067,0.127,0.133,0.167l0.134,0.062l0.156,0.023c0.09,0.003,0.175-0.012,0.257-0.045
				c0.063-0.014,0.12-0.04,0.173-0.077c0.061-0.027,0.114-0.064,0.16-0.112c0.076-0.057,0.139-0.126,0.188-0.209
				c0.025-0.051,0.049-0.103,0.074-0.154c0.011-0.052,0.021-0.103,0.032-0.155C199.116,207.281,199.112,207.231,199.108,207.182z"/>
			<path style="fill:#E14A31;" d="M202.165,210.708c-0.715,0-1.384,1.271-0.436,1.271
				C202.444,211.979,203.113,210.708,202.165,210.708z"/>
			<path style="fill:#E14A31;" d="M190.205,213.888c-0.01-0.087-0.03-0.174-0.061-0.256c-0.097-0.252-0.237-0.477-0.473-0.623
				c-0.286-0.178-0.622-0.23-0.951-0.172c-0.094,0.017-0.189,0.048-0.281,0.086c-0.31,0.091-0.57,0.296-0.766,0.564
				c-0.192,0.262-0.297,0.589-0.337,0.909c-0.04,0.319,0.022,0.635,0.184,0.913c0.19,0.324,0.533,0.475,0.891,0.515
				c0.191,0.021,0.396-0.004,0.58-0.056c0.401-0.114,0.724-0.35,0.96-0.694c0.154-0.225,0.239-0.505,0.268-0.774
				C190.235,214.163,190.221,214.024,190.205,213.888z"/>
			<path style="fill:#E14A31;" d="M156.518,205.242c-0.002-0.006-0.007-0.01-0.01-0.016c-0.039-0.098-0.052-0.204-0.075-0.306
				c0.036-0.09,0.05-0.187,0.024-0.285c-0.034-0.129-0.123-0.202-0.232-0.242c-0.009-0.022-0.018-0.044-0.027-0.065
				c-0.046-0.11-0.095-0.219-0.145-0.328c-0.055-0.075-0.127-0.125-0.217-0.15c-0.099-0.026-0.198-0.028-0.298-0.005
				c-0.223,0.046-0.437,0.194-0.555,0.389c-0.167,0.276-0.319,0.558-0.436,0.86c-0.067,0.174-0.027,0.392,0.135,0.501
				c0.046,0.03,0.092,0.058,0.142,0.082c0.073,0.035,0.146,0.075,0.225,0.092c0.189,0.04,0.368,0.017,0.547-0.048
				c0.001,0.001,0.002,0.003,0.003,0.004c0.081,0.084,0.131,0.132,0.253,0.15c0.233,0.034,0.481-0.106,0.603-0.304
				C156.508,205.482,156.556,205.346,156.518,205.242z"/>
			<path style="fill:#E14A31;" d="M157.917,199.139c-0.667,0-1.291,1.185-0.406,1.185
				C158.177,200.324,158.801,199.139,157.917,199.139z"/>
			<path style="fill:#E14A31;" d="M163.388,213.617c-0.008-0.058-0.016-0.116-0.023-0.174c-0.016-0.077-0.054-0.139-0.114-0.186
				c-0.049-0.059-0.112-0.098-0.189-0.115c-0.053-0.008-0.106-0.016-0.159-0.023c-0.091-0.003-0.178,0.012-0.262,0.046
				c-0.064,0.014-0.123,0.04-0.176,0.078c-0.091,0.044-0.171,0.104-0.239,0.179c-0.038,0.049-0.077,0.098-0.115,0.148
				c-0.062,0.096-0.097,0.201-0.108,0.314l-0.024,0.189c-0.008,0.107,0.017,0.205,0.077,0.294c0.036,0.036,0.073,0.071,0.109,0.107
				c0.093,0.059,0.195,0.089,0.306,0.09c0.094,0.003,0.185-0.012,0.271-0.048c0.099-0.025,0.19-0.069,0.272-0.132
				c0.087-0.056,0.159-0.127,0.217-0.211c0.063-0.069,0.108-0.149,0.137-0.239C163.405,213.831,163.412,213.725,163.388,213.617z"/>
			<path style="fill:#E14A31;" d="M208.276,208.962c0-0.011-0.01-0.133-0.012-0.145c0-0.001-0.001-0.003-0.001-0.004
				c0-0.002-0.001-0.003-0.002-0.005c0-0.001-0.001-0.002-0.001-0.003c-0.001-0.002-0.056-0.122-0.056-0.123
				c0,0,0-0.001-0.001-0.001c-0.002-0.004-0.005-0.008-0.008-0.011c-0.03-0.037-0.067-0.07-0.102-0.102
				c-0.056-0.039-0.117-0.061-0.184-0.064c-0.027-0.006-0.055,0.003-0.082,0.002c-0.01-0.001-0.019-0.004-0.029-0.004
				c-0.021,0.002-0.041,0.004-0.062,0.006c-0.014,0.002-0.028-0.003-0.042,0.001c-0.005,0.001-0.01,0.003-0.014,0.005
				c-0.018,0.002-0.036,0.004-0.055,0.005c-0.007,0.002-0.013,0.004-0.02,0.007c-0.012,0.003-0.024,0.006-0.036,0.007
				c0.007-0.001,0.013-0.001,0.02-0.002c-0.007,0.002-0.014,0.005-0.021,0.007c-0.047,0.007-0.095,0.006-0.14,0.024
				c-0.095,0.024-0.182,0.066-0.261,0.126c-0.05,0.043-0.1,0.086-0.15,0.129c-0.067,0.064-0.117,0.139-0.151,0.224
				c-0.031,0.048-0.048,0.099-0.053,0.156c-0.023,0.074-0.024,0.15-0.003,0.227c0.02,0.044,0.041,0.089,0.061,0.133
				c0.061,0.083,0.141,0.138,0.24,0.165c0.057,0.009,0.114,0.018,0.172,0.025c0.006,0.001,0.011,0.001,0.017,0.002
				c0.01,0.001,0.019,0.001,0.029,0.001c0.004,0,0.009-0.001,0.013-0.001c0.058-0.005,0.119-0.01,0.177-0.018
				c0.002,0,0.005-0.001,0.007-0.001c0.004-0.001,0.008-0.001,0.012-0.002c0.002,0,0.003-0.001,0.005-0.001
				c0.001,0,0.002-0.001,0.003-0.001c0.03-0.01,0.061-0.019,0.091-0.029c0.03-0.01,0.06-0.019,0.09-0.029
				c0.003-0.001,0.172-0.097,0.175-0.099c0.002-0.001,0.151-0.13,0.152-0.131c0.001-0.001,0.114-0.146,0.115-0.148
				c0.001-0.002,0.075-0.156,0.075-0.157c0.001-0.002,0.001-0.003,0.002-0.005c0-0.001,0.001-0.002,0.001-0.003
				c0.002-0.007,0.031-0.148,0.032-0.155c0-0.002,0-0.003,0-0.005C208.276,208.964,208.276,208.963,208.276,208.962z"/>
			<g>
				<path style="fill:#E14A31;" d="M212.723,200.005c-0.025-0.094-0.077-0.169-0.158-0.225c-0.055-0.051-0.108-0.105-0.166-0.153
					c-0.013-0.011-0.026-0.021-0.04-0.031c-0.005-0.003-0.01-0.007-0.016-0.01c-0.032-0.018-0.14-0.059-0.16-0.069
					c-0.095-0.026-0.135-0.02-0.229-0.011c-0.133,0.013-0.096,0.004-0.267,0.067c-0.002,0.001-0.004,0.001-0.006,0.002
					c-0.124,0.056-0.237,0.132-0.331,0.231c-0.043,0.045-0.082,0.094-0.115,0.148c-0.051,0.083-0.106,0.21-0.106,0.311
					c0,0.002,0.012,0.146,0.013,0.148c0.01,0.047,0.033,0.093,0.06,0.132c0.001,0.002,0.003,0.003,0.005,0.004
					c0,0.001,0.001,0.001,0.001,0.002l0-0.001c0.002,0.004,0.006,0.006,0.009,0.009c0.025,0.039,0.056,0.075,0.1,0.101
					c0.045,0.025,0.091,0.046,0.138,0.064c0.004,0.001,0.007,0.002,0.011,0.003c0.009,0.003,0.018,0.006,0.027,0.009
					c0.001,0,0.002,0.001,0.003,0.001c0.025,0.013,0.051,0.025,0.076,0.038c0.01,0.005,0.021,0.01,0.031,0.016
					c0.062,0.044,0.131,0.068,0.205,0.071c0.079,0.018,0.159,0.016,0.239-0.005c0.091-0.017,0.175-0.051,0.251-0.101
					c0.086-0.042,0.162-0.098,0.227-0.17c0.036-0.047,0.073-0.093,0.109-0.14c0.058-0.091,0.092-0.19,0.102-0.298
					C212.731,200.099,212.727,200.052,212.723,200.005z"/>
				<path style="fill:#E14A31;" d="M212.183,199.517c0.008,0.002,0.011,0.001,0.02,0.004
					C212.179,199.514,212.176,199.514,212.183,199.517z"/>
			</g>
			<path style="fill:#E14A31;" d="M205.854,199.264c-0.061-0.077-0.164-0.135-0.265-0.126c-0.07,0.007-0.14,0.014-0.21,0.021
				c-0.039,0.004-0.079,0.007-0.119,0.01c-0.014-0.095-0.051-0.192-0.133-0.242c-0.113-0.07-0.254-0.088-0.383-0.057
				c-0.152,0.037-0.309,0.114-0.412,0.234c-0.096,0.112-0.178,0.22-0.228,0.36c-0.015,0.042-0.025,0.1-0.028,0.144
				c-0.002,0.019,0.003,0.094,0.013,0.136c0.005,0.018,0.03,0.067,0.026,0.059c-0.01-0.021,0.017,0.044,0.027,0.058
				c0.024,0.034,0.069,0.076,0.091,0.092c0.005,0.004,0.01,0.007,0.015,0.01c0.025,0.016,0.081,0.04,0.109,0.051
				c0.003,0.001,0.007,0.003,0.01,0.004c0.052,0.016,0.108,0.022,0.162,0.024c0.05,0.003,0.1-0.008,0.15-0.015
				c0.248,0.002,0.498-0.046,0.743-0.082c0.063-0.012,0.122-0.035,0.175-0.071c0.06-0.029,0.113-0.068,0.158-0.118
				c0.066-0.074,0.116-0.155,0.136-0.253C205.908,199.425,205.907,199.33,205.854,199.264z"/>
			<path style="fill:#E14A31;" d="M202.874,220.003c-0.624,0-1.208,1.11-0.38,1.11C203.118,221.113,203.702,220.003,202.874,220.003
				z"/>
			<path style="fill:#E14A31;" d="M195.487,222.627c-0.576,0-1.115,1.023-0.351,1.023
				C195.712,223.65,196.251,222.627,195.487,222.627z"/>
			<path style="fill:#E14A31;" d="M182.777,219.472c-0.6,0-1.161,1.066-0.365,1.066
				C183.012,220.539,183.574,219.472,182.777,219.472z"/>
			<path style="fill:#E14A31;" d="M186.662,213.896c-0.032-0.032-0.064-0.063-0.097-0.095c-0.083-0.053-0.174-0.08-0.273-0.08
				c-0.053,0.005-0.106,0.011-0.159,0.016c-0.118,0.026-0.226,0.074-0.325,0.144c-0.073,0.061-0.156,0.123-0.217,0.199
				c-0.04,0.05-0.081,0.099-0.117,0.151c-0.006,0.008-0.011,0.016-0.016,0.024c-0.036,0.059-0.063,0.123-0.091,0.185
				c-0.033,0.072-0.045,0.161-0.059,0.236c-0.007,0.038-0.008,0.076-0.006,0.115c-0.009,0.07,0.004,0.134,0.039,0.192
				c0.021,0.064,0.061,0.114,0.12,0.151c0.058,0.041,0.122,0.063,0.192,0.066c0.074,0.016,0.149,0.015,0.224-0.005
				c0.053-0.017,0.105-0.034,0.158-0.051c0.11-0.049,0.206-0.116,0.289-0.203c0.034-0.044,0.068-0.087,0.102-0.131
				c0.046-0.071,0.071-0.148,0.085-0.23c0.021-0.023,0.049-0.039,0.066-0.065c0.056-0.062,0.096-0.133,0.122-0.213
				c0.029-0.07,0.037-0.142,0.024-0.214C186.726,214.018,186.705,213.954,186.662,213.896z"/>
			<path style="fill:#E14A31;" d="M173.776,215.328c-0.023-0.086-0.07-0.154-0.143-0.204c-0.039-0.018-0.078-0.036-0.118-0.055
				c-0.043-0.011-0.086-0.016-0.129-0.018c-0.001-0.048-0.003-0.095-0.027-0.137c-0.019-0.06-0.057-0.107-0.112-0.141
				c-0.038-0.017-0.075-0.035-0.113-0.052c-0.067-0.021-0.135-0.025-0.203-0.012c-0.05,0-0.099,0.01-0.145,0.031
				c-0.079,0.02-0.152,0.055-0.217,0.105l-0.125,0.107c-0.07,0.073-0.123,0.157-0.157,0.252c-0.021,0.096-0.048,0.198-0.048,0.298
				c0,0.065,0.006,0.13,0.016,0.194c0.003,0.02,0.008,0.04,0.016,0.059c0.019,0.047,0.039,0.093,0.063,0.137
				c0.004,0.008,0.009,0.016,0.015,0.024c0.023,0.03,0.086,0.095,0.134,0.122c0.004,0.002,0.007,0.004,0.011,0.006
				c0.042,0.021,0.085,0.042,0.128,0.059c0.009,0.004,0.018,0.007,0.028,0.009c0.031,0.008,0.066,0.011,0.096,0.015
				c0.033,0.005,0.067,0.012,0.1,0.013c0.012,0.001,0.025,0,0.037,0c0.063-0.004,0.125-0.01,0.187-0.019
				c0.031-0.004,0.062-0.012,0.092-0.02c0.083-0.016,0.159-0.046,0.228-0.092c0.078-0.038,0.147-0.089,0.206-0.154
				c0.058-0.056,0.102-0.121,0.131-0.195c0.036-0.062,0.057-0.13,0.06-0.203C173.783,215.414,173.779,215.371,173.776,215.328z"/>
			<path style="fill:#E14A31;" d="M169.443,217.212c-0.023-0.113-0.047-0.225-0.07-0.338c-0.01-0.048-0.033-0.086-0.07-0.115
				c-0.03-0.037-0.069-0.06-0.117-0.071c-0.033-0.005-0.066-0.01-0.098-0.014c-0.056-0.002-0.11,0.007-0.162,0.028
				c-0.039,0.009-0.076,0.025-0.109,0.048c-0.056,0.027-0.105,0.064-0.147,0.111c-0.024,0.03-0.047,0.061-0.071,0.091
				c-0.038,0.059-0.06,0.124-0.066,0.194c-0.024,0.128-0.048,0.256-0.072,0.384c-0.006,0.074,0.012,0.143,0.054,0.205
				c0.025,0.025,0.051,0.05,0.076,0.075c0.065,0.042,0.136,0.062,0.213,0.062c0.066,0.003,0.129-0.009,0.189-0.033
				c0.069-0.018,0.132-0.048,0.19-0.092c0.061-0.039,0.111-0.088,0.151-0.147c0.044-0.048,0.076-0.104,0.096-0.167
				C169.455,217.361,169.46,217.287,169.443,217.212z"/>
			<path style="fill:#E14A31;" d="M165.941,214.263c-0.012-0.056-0.039-0.1-0.082-0.134c-0.035-0.043-0.08-0.07-0.136-0.083
				l-0.159-0.042c-0.087-0.023-0.175-0.025-0.263-0.005c-0.101,0.022-0.194,0.064-0.279,0.123c-0.04,0.034-0.08,0.069-0.12,0.103
				c-0.067,0.07-0.118,0.15-0.15,0.241c-0.025,0.06-0.032,0.122-0.021,0.184c-0.001,0.06,0.016,0.115,0.054,0.165
				c0.1,0.143,0.295,0.172,0.454,0.137l0.187-0.042c0.043-0.014,0.086-0.028,0.128-0.042c0.068-0.028,0.128-0.067,0.18-0.118
				c0.039-0.027,0.071-0.06,0.096-0.1c0.044-0.048,0.076-0.104,0.096-0.166c0.008-0.038,0.016-0.076,0.023-0.114
				C165.947,214.335,165.944,214.299,165.941,214.263z"/>
			<path style="fill:#E14A31;" d="M197.316,225.615c-0.051-0.077-0.118-0.13-0.202-0.158c-0.081-0.047-0.17-0.068-0.266-0.064
				c-0.143,0-0.28,0.029-0.41,0.087c-0.136,0.06-0.269,0.149-0.374,0.258c-0.012,0.008-0.027,0.01-0.039,0.019
				c-0.051,0.044-0.102,0.088-0.153,0.131c-0.039,0.05-0.077,0.1-0.116,0.149c-0.05,0.073-0.081,0.152-0.092,0.238
				c-0.023,0.076-0.025,0.153-0.003,0.231c0.01,0.04,0.019,0.081,0.025,0.122c0.003,0.024,0.005,0.048,0.009,0.071
				c0.001,0.008,0.003,0.015,0.005,0.023c0.001,0.002,0.002,0.004,0.002,0.006c0.011,0.029,0.05,0.116,0.065,0.143
				c0.002,0.003,0.004,0.007,0.006,0.01c0.002,0.003,0.005,0.006,0.007,0.009c0.002,0.002,0.003,0.004,0.005,0.005
				c0.033,0.035,0.079,0.08,0.114,0.112c0.008,0.008,0.018,0.015,0.027,0.022c0.038,0.029,0.078,0.055,0.118,0.081
				c0.205,0.137,0.477,0.106,0.692,0.013c0.132-0.059,0.249-0.14,0.349-0.244c0.091-0.094,0.159-0.203,0.203-0.326
				c0.016-0.049,0.03-0.099,0.047-0.148c0.03-0.083,0.045-0.173,0.06-0.259c0.011-0.065,0.007-0.133,0.009-0.199
				C197.412,225.826,197.383,225.716,197.316,225.615z"/>
			<path style="fill:#E14A31;" d="M213.035,206.333c-0.023-0.057-0.049-0.118-0.079-0.173c-0.005-0.008-0.01-0.016-0.016-0.023
				c-0.04-0.049-0.09-0.093-0.137-0.136c-0.007-0.007-0.014-0.013-0.021-0.019c-0.016-0.012-0.033-0.022-0.051-0.031
				c-0.067-0.034-0.139-0.074-0.214-0.093c-0.08-0.02-0.164-0.031-0.246-0.036c-0.027-0.002-0.055-0.001-0.082,0.001
				c-0.094,0.008-0.192,0.013-0.285,0.034c-0.016,0.004-0.031,0.008-0.047,0.012c-0.008,0.002-0.016,0.005-0.024,0.008
				c-0.048,0.015-0.163,0.048-0.21,0.068c-0.003,0.001-0.005,0.002-0.008,0.003c-0.067,0.038-0.134,0.076-0.201,0.114
				c-0.016,0.011-0.031,0.023-0.046,0.035c-0.007,0.006-0.015,0.012-0.022,0.018c-0.008,0.007-0.025,0.021-0.038,0.032
				c-0.015,0.009-0.032,0.016-0.047,0.025c-0.112,0.07-0.204,0.186-0.278,0.292c-0.044,0.063-0.078,0.136-0.102,0.209
				c-0.018,0.055-0.028,0.115-0.037,0.172c-0.003,0.016-0.004,0.033-0.004,0.049c0.001,0.169,0.039,0.296,0.125,0.442
				c0.024,0.04,0.052,0.077,0.083,0.112c0.059,0.066,0.122,0.131,0.193,0.186c0.082,0.064,0.184,0.11,0.28,0.146
				c0.021,0.008,0.043,0.013,0.065,0.017c0.071,0.013,0.149,0.03,0.223,0.028c0.068-0.002,0.139-0.01,0.206-0.02
				c0.01-0.002,0.02-0.003,0.029-0.005c0.07-0.017,0.141-0.042,0.208-0.067c0.01-0.004,0.02-0.007,0.029-0.011
				c0.008-0.004,0.016-0.008,0.023-0.012c0.069-0.037,0.141-0.073,0.205-0.117c0.008-0.006,0.016-0.012,0.023-0.017
				c0.062-0.049,0.124-0.101,0.181-0.156c0.061-0.059,0.111-0.133,0.16-0.2c0.011-0.016,0.022-0.031,0.032-0.048
				c0.039-0.071,0.076-0.146,0.106-0.222c0.007-0.019,0.013-0.038,0.018-0.057c0.022-0.089,0.05-0.19,0.046-0.285
				C213.07,206.52,213.07,206.418,213.035,206.333z"/>
			<path style="fill:#E14A31;" d="M195.185,201.519l-0.104-0.102c-0.089-0.057-0.186-0.085-0.292-0.085
				c-0.09-0.003-0.176,0.012-0.259,0.046c-0.094,0.024-0.181,0.066-0.26,0.126c-0.083,0.054-0.152,0.121-0.207,0.202
				c-0.06,0.066-0.103,0.142-0.131,0.228c-0.011,0.052-0.021,0.104-0.032,0.156c-0.008,0.102,0.017,0.196,0.073,0.281l0.104,0.102
				c0.089,0.057,0.186,0.085,0.292,0.085c0.09,0.003,0.176-0.012,0.259-0.045c0.094-0.024,0.181-0.066,0.26-0.126
				c0.083-0.054,0.152-0.121,0.207-0.202c0.06-0.066,0.103-0.142,0.131-0.228c0.011-0.052,0.021-0.104,0.032-0.156
				C195.266,201.698,195.242,201.604,195.185,201.519z"/>
			<path style="fill:#E14A31;" d="M166.017,205.602c-0.003-0.023-0.007-0.046-0.014-0.069c-0.02-0.068-0.054-0.135-0.086-0.197
				c-0.01-0.019-0.02-0.037-0.034-0.054c-0.043-0.055-0.097-0.106-0.151-0.15c-0.056-0.045-0.132-0.071-0.195-0.099
				c-0.022-0.009-0.043-0.017-0.066-0.022c-0.078-0.017-0.161-0.031-0.242-0.032c-0.09-0.001-0.181,0.011-0.269,0.025
				c-0.116,0.018-0.222,0.068-0.323,0.125c-0.045,0.025-0.091,0.049-0.135,0.078c-0.034,0.022-0.065,0.047-0.096,0.072
				c-0.05,0.043-0.1,0.086-0.15,0.129c-0.067,0.064-0.117,0.139-0.151,0.224c-0.037,0.077-0.067,0.17-0.07,0.26
				c-0.035,0.059-0.068,0.12-0.096,0.187c-0.031,0.075-0.045,0.158-0.058,0.237c-0.013,0.077-0.002,0.159,0.009,0.235
				c0.005,0.038,0.016,0.074,0.032,0.109c0.032,0.074,0.063,0.152,0.115,0.216c0.069,0.084,0.157,0.174,0.256,0.226
				c0.138,0.071,0.247,0.109,0.405,0.115c0.075,0.003,0.152-0.007,0.226-0.021c0.078-0.014,0.156-0.043,0.229-0.073
				c0.079-0.031,0.154-0.079,0.225-0.124c0.073-0.046,0.137-0.109,0.201-0.166c0.083-0.073,0.149-0.164,0.211-0.255
				c0.061-0.09,0.106-0.193,0.148-0.292c0.021-0.05,0.036-0.101,0.048-0.154c0.022-0.1,0.049-0.205,0.049-0.309
				C166.035,205.75,166.027,205.675,166.017,205.602z"/>
			<path style="fill:#E14A31;" d="M154.864,194.93c-0.012-0.042-0.033-0.08-0.053-0.119c0,0,0-0.001,0-0.001
				c0.009,0.019,0.018,0.039,0.027,0.058c-0.014-0.031-0.019-0.064-0.026-0.096c0.001-0.01-0.001-0.021,0.001-0.031
				c0.007-0.058-0.003-0.112-0.032-0.16c-0.017-0.053-0.051-0.095-0.1-0.126c-0.034-0.016-0.067-0.031-0.101-0.047
				c-0.06-0.018-0.121-0.022-0.182-0.011c-0.045,0-0.088,0.009-0.13,0.028c-0.071,0.018-0.136,0.049-0.195,0.094
				c-0.037,0.032-0.075,0.064-0.112,0.096c-0.063,0.065-0.11,0.14-0.141,0.225c-0.013,0.054-0.025,0.108-0.033,0.163
				c-0.003,0.018-0.005,0.036-0.005,0.055c-0.001,0.017,0,0.034,0.001,0.05c0.004,0.053,0.006,0.107,0.016,0.16
				c0.003,0.016,0.007,0.033,0.012,0.048c0.003,0.008,0.005,0.017,0.008,0.025c0.001,0.004,0.003,0.007,0.004,0.011
				c0.001,0.002,0.002,0.004,0.002,0.005c0.016,0.034,0.031,0.068,0.047,0.103c0.005,0.007,0.011,0.014,0.017,0.02
				c0.031,0.031,0.062,0.063,0.094,0.092c0.013,0.012,0.028,0.023,0.042,0.034c0.033,0.016,0.066,0.031,0.1,0.046
				c0.059,0.018,0.119,0.022,0.179,0.011c0.045,0,0.087-0.009,0.128-0.027c0.07-0.018,0.134-0.049,0.192-0.093l0.111-0.095
				l0.084-0.108c0.036-0.053,0.059-0.11,0.067-0.172c0.017-0.055,0.018-0.11,0.002-0.167
				C154.879,194.978,154.87,194.954,154.864,194.93z"/>
		</g>
		<g style="opacity:0.26;">
			<path style="fill:#E14A31;" d="M97.81,206.598c0.021-0.064,0.061-0.114,0.12-0.151c0.058-0.041,0.122-0.063,0.192-0.066
				c0.074-0.017,0.149-0.015,0.224,0.005c0.053,0.017,0.105,0.034,0.158,0.051c0.11,0.049,0.206,0.116,0.289,0.203
				c0.034,0.044,0.068,0.087,0.102,0.131c0.055,0.085,0.087,0.178,0.095,0.279v0.184c0.009,0.07-0.004,0.134-0.039,0.192
				c-0.021,0.064-0.061,0.114-0.12,0.151c-0.058,0.041-0.122,0.063-0.192,0.066c-0.074,0.017-0.149,0.015-0.224-0.005
				c-0.053-0.017-0.105-0.034-0.158-0.051c-0.11-0.049-0.206-0.116-0.289-0.203c-0.034-0.044-0.068-0.087-0.102-0.131
				c-0.055-0.085-0.086-0.178-0.096-0.279v-0.184C97.762,206.721,97.775,206.657,97.81,206.598z"/>
			<path style="fill:#E14A31;" d="M91.751,205.107c0.588,0,1.138,1.045,0.358,1.045C91.521,206.152,90.971,205.107,91.751,205.107z"
				/>
			<path style="fill:#E14A31;" d="M84.685,204.674c0.009-0.087,0.027-0.171,0.052-0.254c0.01-0.031,0.025-0.061,0.04-0.09
				c0.014-0.087,0.045-0.17,0.124-0.219c0.114-0.07,0.232-0.069,0.362-0.054c0.146-0.008,0.295,0.006,0.418,0.073
				c0.061,0.033,0.115,0.068,0.171,0.102c0.242,0.112,0.465,0.265,0.642,0.457c0.326,0.355,0.51,0.808,0.546,1.287
				c0.009,0.123-0.035,0.239-0.123,0.324c-0.095,0.094-0.203,0.122-0.337,0.134c-0.192,0.017-0.382,0.007-0.574-0.022
				c-0.237-0.036-0.45-0.135-0.654-0.257c-0.099-0.059-0.189-0.14-0.271-0.219c-0.081-0.078-0.153-0.171-0.211-0.267
				c-0.116-0.19-0.184-0.401-0.204-0.622C84.656,204.924,84.671,204.796,84.685,204.674z"/>
			<path style="fill:#E14A31;" d="M74.864,207.182c0.016-0.076,0.053-0.137,0.112-0.182c0.048-0.058,0.11-0.096,0.186-0.113
				c0.019-0.008,0.039-0.015,0.058-0.023c0.044-0.006,0.088-0.013,0.132-0.019c0.075-0.003,0.148,0.01,0.217,0.038
				c0.053,0.012,0.101,0.033,0.146,0.064c0.075,0.036,0.141,0.086,0.197,0.148l0.072,0.066c0.038,0.048,0.075,0.097,0.113,0.145
				c0.049,0.071,0.079,0.148,0.09,0.231c0.018,0.049,0.021,0.1,0.01,0.151c0.004,0.051-0.008,0.097-0.037,0.139
				c-0.023,0.071-0.067,0.127-0.133,0.167l-0.134,0.062l-0.156,0.023c-0.09,0.003-0.175-0.012-0.257-0.045
				c-0.063-0.014-0.12-0.04-0.173-0.077c-0.061-0.027-0.114-0.064-0.16-0.112c-0.076-0.057-0.139-0.126-0.188-0.209
				c-0.025-0.051-0.049-0.103-0.074-0.154c-0.011-0.052-0.021-0.103-0.032-0.155C74.855,207.281,74.86,207.231,74.864,207.182z"/>
			<path style="fill:#E14A31;" d="M71.807,210.708c0.715,0,1.384,1.271,0.436,1.271C71.527,211.979,70.858,210.708,71.807,210.708z"
				/>
			<path style="fill:#E14A31;" d="M83.766,213.888c0.01-0.087,0.03-0.174,0.061-0.256c0.097-0.252,0.237-0.477,0.473-0.623
				c0.286-0.178,0.621-0.23,0.951-0.172c0.094,0.017,0.188,0.048,0.281,0.086c0.31,0.091,0.57,0.296,0.766,0.564
				c0.192,0.262,0.297,0.589,0.338,0.909c0.04,0.319-0.022,0.635-0.184,0.913c-0.19,0.324-0.533,0.475-0.891,0.515
				c-0.191,0.021-0.396-0.004-0.58-0.056c-0.401-0.114-0.724-0.35-0.96-0.694c-0.154-0.225-0.239-0.505-0.268-0.774
				C83.737,214.163,83.751,214.024,83.766,213.888z"/>
			<path style="fill:#E14A31;" d="M117.453,205.242c0.002-0.006,0.007-0.01,0.01-0.016c0.039-0.098,0.052-0.204,0.075-0.306
				c-0.036-0.09-0.05-0.187-0.024-0.285c0.034-0.129,0.123-0.202,0.232-0.242c0.009-0.022,0.018-0.044,0.027-0.065
				c0.046-0.11,0.095-0.219,0.145-0.328c0.055-0.075,0.127-0.125,0.217-0.15c0.099-0.026,0.198-0.028,0.298-0.005
				c0.223,0.046,0.437,0.194,0.555,0.389c0.167,0.276,0.319,0.558,0.436,0.86c0.067,0.174,0.027,0.392-0.135,0.501
				c-0.046,0.03-0.092,0.058-0.142,0.082c-0.073,0.035-0.146,0.075-0.226,0.092c-0.189,0.04-0.368,0.017-0.547-0.048
				c-0.001,0.001-0.002,0.003-0.003,0.004c-0.081,0.084-0.131,0.132-0.253,0.15c-0.233,0.034-0.481-0.106-0.603-0.304
				C117.463,205.482,117.416,205.346,117.453,205.242z"/>
			<path style="fill:#E14A31;" d="M116.055,199.139c0.667,0,1.29,1.185,0.406,1.185C115.794,200.324,115.17,199.139,116.055,199.139
				z"/>
			<path style="fill:#E14A31;" d="M110.584,213.617c0.008-0.058,0.016-0.116,0.023-0.174c0.016-0.077,0.054-0.139,0.114-0.186
				c0.049-0.059,0.112-0.098,0.189-0.115c0.053-0.008,0.106-0.016,0.159-0.023c0.091-0.003,0.178,0.012,0.262,0.046
				c0.064,0.014,0.123,0.04,0.176,0.078c0.091,0.044,0.17,0.104,0.239,0.179c0.038,0.049,0.077,0.098,0.115,0.148
				c0.062,0.096,0.097,0.201,0.108,0.314l0.024,0.189c0.008,0.107-0.017,0.205-0.077,0.294c-0.036,0.036-0.073,0.071-0.109,0.107
				c-0.093,0.059-0.195,0.089-0.306,0.09c-0.094,0.003-0.185-0.012-0.271-0.048c-0.099-0.025-0.19-0.069-0.272-0.132
				c-0.087-0.056-0.159-0.127-0.216-0.211c-0.063-0.069-0.108-0.149-0.137-0.239C110.566,213.831,110.56,213.725,110.584,213.617z"
				/>
			<path style="fill:#E14A31;" d="M65.696,208.962c0-0.011,0.01-0.133,0.012-0.145c0-0.001,0.001-0.003,0.001-0.004
				c0-0.002,0.001-0.003,0.001-0.005c0-0.001,0.001-0.002,0.001-0.003c0.001-0.002,0.056-0.122,0.056-0.123c0,0,0-0.001,0.001-0.001
				c0.002-0.004,0.005-0.008,0.008-0.011c0.03-0.037,0.067-0.07,0.102-0.102c0.056-0.039,0.117-0.061,0.184-0.064
				c0.027-0.006,0.055,0.003,0.082,0.002c0.01-0.001,0.019-0.004,0.029-0.004c0.021,0.002,0.041,0.004,0.062,0.006
				c0.014,0.002,0.028-0.003,0.042,0.001c0.005,0.001,0.01,0.003,0.014,0.005c0.018,0.002,0.036,0.004,0.055,0.005
				c0.007,0.002,0.013,0.004,0.02,0.007c0.012,0.003,0.024,0.006,0.036,0.007c-0.007-0.001-0.013-0.001-0.02-0.002
				c0.007,0.002,0.014,0.005,0.021,0.007c0.047,0.007,0.095,0.006,0.14,0.024c0.095,0.024,0.182,0.066,0.261,0.126
				c0.05,0.043,0.1,0.086,0.15,0.129c0.067,0.064,0.117,0.139,0.151,0.224c0.031,0.048,0.048,0.099,0.053,0.156
				c0.023,0.074,0.024,0.15,0.003,0.227c-0.02,0.044-0.041,0.089-0.061,0.133c-0.061,0.083-0.141,0.138-0.24,0.165
				c-0.057,0.009-0.114,0.018-0.172,0.025c-0.006,0.001-0.011,0.001-0.017,0.002c-0.009,0.001-0.019,0.001-0.029,0.001
				c-0.004,0-0.009-0.001-0.013-0.001c-0.058-0.005-0.119-0.01-0.177-0.018c-0.002,0-0.005-0.001-0.007-0.001
				c-0.004-0.001-0.008-0.001-0.012-0.002c-0.002,0-0.004-0.001-0.005-0.001c-0.001,0-0.002-0.001-0.003-0.001
				c-0.03-0.01-0.061-0.019-0.091-0.029c-0.03-0.01-0.06-0.019-0.09-0.029c-0.003-0.001-0.172-0.097-0.175-0.099
				c-0.002-0.001-0.151-0.13-0.152-0.131c-0.001-0.001-0.114-0.146-0.115-0.148c-0.001-0.002-0.075-0.156-0.075-0.157
				c-0.001-0.002-0.001-0.003-0.002-0.005c0-0.001-0.001-0.002-0.001-0.003c-0.002-0.007-0.031-0.148-0.032-0.155
				c0-0.002,0-0.003,0-0.005C65.696,208.964,65.696,208.963,65.696,208.962z"/>
			<g>
				<path style="fill:#E14A31;" d="M61.237,200.147c0.01,0.107,0.044,0.207,0.102,0.298c0.036,0.047,0.073,0.093,0.109,0.14
					c0.065,0.072,0.14,0.128,0.227,0.17c0.076,0.05,0.16,0.084,0.251,0.101c0.08,0.021,0.16,0.023,0.239,0.005
					c0.074-0.003,0.143-0.027,0.205-0.071c0.01-0.005,0.021-0.01,0.031-0.016c0.025-0.013,0.05-0.025,0.075-0.038
					c0.001,0,0.002-0.001,0.003-0.001c0.009-0.003,0.018-0.006,0.027-0.009c0.004-0.001,0.007-0.002,0.011-0.003
					c0.048-0.018,0.094-0.039,0.139-0.064c0.043-0.027,0.074-0.062,0.099-0.101c0.003-0.003,0.007-0.006,0.009-0.009l0,0.001
					c0-0.001,0.001-0.001,0.001-0.002c0.001-0.002,0.003-0.003,0.005-0.004c0.027-0.039,0.051-0.085,0.06-0.132
					c0-0.002,0.013-0.145,0.013-0.148c-0.001-0.101-0.056-0.228-0.106-0.311c-0.033-0.053-0.072-0.102-0.115-0.148
					c-0.094-0.099-0.207-0.175-0.331-0.231c-0.002-0.001-0.004-0.002-0.006-0.002c-0.172-0.063-0.134-0.054-0.267-0.067
					c-0.093-0.009-0.133-0.015-0.229,0.011c-0.02,0.01-0.129,0.051-0.16,0.069c-0.005,0.003-0.011,0.006-0.016,0.01
					c-0.014,0.009-0.027,0.02-0.04,0.031c-0.058,0.048-0.111,0.102-0.166,0.153c-0.08,0.056-0.133,0.131-0.158,0.225
					C61.245,200.052,61.241,200.099,61.237,200.147z"/>
				<path style="fill:#E14A31;" d="M61.788,199.517c-0.008,0.002-0.011,0.001-0.02,0.004
					C61.792,199.514,61.795,199.514,61.788,199.517z"/>
			</g>
			<path style="fill:#E14A31;" d="M68.118,199.264c0.061-0.077,0.164-0.135,0.265-0.126c0.07,0.007,0.14,0.014,0.21,0.021
				c0.039,0.004,0.079,0.007,0.119,0.01c0.014-0.095,0.051-0.192,0.133-0.242c0.114-0.07,0.254-0.088,0.383-0.057
				c0.152,0.037,0.309,0.114,0.412,0.234c0.096,0.112,0.178,0.22,0.228,0.36c0.015,0.042,0.025,0.1,0.028,0.144
				c0.002,0.019-0.003,0.094-0.013,0.136c-0.005,0.018-0.03,0.067-0.026,0.059c0.01-0.021-0.017,0.044-0.027,0.058
				c-0.024,0.034-0.069,0.076-0.091,0.092c-0.005,0.004-0.009,0.007-0.015,0.01c-0.025,0.016-0.081,0.04-0.109,0.051
				c-0.003,0.001-0.007,0.003-0.01,0.004c-0.052,0.016-0.108,0.022-0.162,0.024c-0.05,0.003-0.1-0.008-0.149-0.015
				c-0.248,0.002-0.498-0.046-0.743-0.082c-0.063-0.012-0.122-0.035-0.175-0.071c-0.06-0.029-0.113-0.068-0.158-0.118
				c-0.066-0.074-0.116-0.155-0.136-0.253C68.063,199.425,68.065,199.33,68.118,199.264z"/>
			<path style="fill:#E14A31;" d="M71.097,220.003c0.624,0,1.209,1.11,0.38,1.11C70.854,221.113,70.269,220.003,71.097,220.003z"/>
			<path style="fill:#E14A31;" d="M78.484,222.627c0.576,0,1.115,1.023,0.351,1.023C78.259,223.65,77.721,222.627,78.484,222.627z"
				/>
			<path style="fill:#E14A31;" d="M91.194,219.472c0.6,0,1.161,1.066,0.365,1.066C90.96,220.539,90.398,219.472,91.194,219.472z"/>
			<path style="fill:#E14A31;" d="M87.31,213.896c0.032-0.032,0.065-0.063,0.097-0.095c0.083-0.053,0.174-0.08,0.272-0.08
				c0.053,0.005,0.106,0.011,0.16,0.016c0.118,0.026,0.226,0.074,0.325,0.144c0.073,0.061,0.156,0.123,0.217,0.199
				c0.04,0.05,0.081,0.099,0.117,0.151c0.005,0.008,0.011,0.016,0.016,0.024c0.036,0.059,0.063,0.123,0.091,0.185
				c0.033,0.072,0.045,0.161,0.059,0.236c0.007,0.038,0.008,0.076,0.006,0.115c0.009,0.07-0.004,0.134-0.039,0.192
				c-0.021,0.064-0.061,0.114-0.12,0.151c-0.058,0.041-0.122,0.063-0.192,0.066c-0.074,0.016-0.149,0.015-0.224-0.005
				c-0.053-0.017-0.105-0.034-0.158-0.051c-0.11-0.049-0.206-0.116-0.289-0.203c-0.034-0.044-0.068-0.087-0.102-0.131
				c-0.046-0.071-0.071-0.148-0.085-0.23c-0.021-0.023-0.049-0.039-0.066-0.065c-0.056-0.062-0.096-0.133-0.122-0.213
				c-0.029-0.07-0.037-0.142-0.024-0.214C87.246,214.018,87.267,213.954,87.31,213.896z"/>
			<path style="fill:#E14A31;" d="M100.196,215.328c0.022-0.086,0.07-0.154,0.143-0.204c0.039-0.018,0.078-0.036,0.118-0.055
				c0.043-0.011,0.086-0.016,0.129-0.018c0.001-0.048,0.003-0.095,0.027-0.137c0.019-0.06,0.057-0.107,0.112-0.141
				c0.038-0.017,0.075-0.035,0.113-0.052c0.067-0.021,0.135-0.025,0.203-0.012c0.05,0,0.099,0.01,0.145,0.031
				c0.079,0.02,0.152,0.055,0.217,0.105l0.125,0.107c0.07,0.073,0.123,0.157,0.157,0.252c0.021,0.096,0.048,0.198,0.048,0.298
				c0,0.065-0.006,0.13-0.016,0.194c-0.003,0.02-0.008,0.04-0.016,0.059c-0.019,0.047-0.039,0.093-0.063,0.137
				c-0.004,0.008-0.009,0.016-0.015,0.024c-0.023,0.03-0.086,0.095-0.134,0.122c-0.004,0.002-0.007,0.004-0.011,0.006
				c-0.042,0.021-0.085,0.042-0.128,0.059c-0.009,0.004-0.018,0.007-0.028,0.009c-0.031,0.008-0.066,0.011-0.096,0.015
				c-0.032,0.005-0.066,0.012-0.1,0.013c-0.012,0.001-0.025,0-0.037,0c-0.063-0.004-0.125-0.01-0.188-0.019
				c-0.031-0.004-0.062-0.012-0.092-0.02c-0.083-0.016-0.159-0.046-0.228-0.092c-0.078-0.038-0.147-0.089-0.206-0.154
				c-0.058-0.056-0.102-0.121-0.131-0.195c-0.036-0.062-0.057-0.13-0.06-0.203C100.188,215.414,100.192,215.371,100.196,215.328z"/>
			<path style="fill:#E14A31;" d="M104.529,217.212c0.023-0.113,0.047-0.225,0.07-0.338c0.01-0.048,0.033-0.086,0.07-0.115
				c0.03-0.037,0.069-0.06,0.117-0.071c0.033-0.005,0.066-0.01,0.098-0.014c0.056-0.002,0.11,0.007,0.162,0.028
				c0.039,0.009,0.076,0.025,0.109,0.048c0.056,0.027,0.105,0.064,0.147,0.111c0.024,0.03,0.047,0.061,0.071,0.091
				c0.038,0.059,0.06,0.124,0.066,0.194c0.024,0.128,0.048,0.256,0.072,0.384c0.006,0.074-0.012,0.143-0.053,0.205
				c-0.025,0.025-0.051,0.05-0.076,0.075c-0.065,0.042-0.136,0.062-0.213,0.062c-0.066,0.003-0.129-0.009-0.189-0.033
				c-0.069-0.018-0.132-0.048-0.19-0.092c-0.061-0.039-0.111-0.088-0.151-0.147c-0.044-0.048-0.075-0.104-0.096-0.167
				C104.517,217.361,104.512,217.287,104.529,217.212z"/>
			<path style="fill:#E14A31;" d="M108.03,214.263c0.012-0.056,0.039-0.1,0.082-0.134c0.035-0.043,0.08-0.07,0.136-0.083
				l0.158-0.042c0.087-0.023,0.175-0.025,0.263-0.005c0.101,0.022,0.194,0.064,0.279,0.123c0.04,0.034,0.08,0.069,0.12,0.103
				c0.067,0.07,0.118,0.15,0.15,0.241c0.025,0.06,0.032,0.122,0.021,0.184c0.002,0.06-0.016,0.115-0.054,0.165
				c-0.1,0.143-0.295,0.172-0.454,0.137l-0.187-0.042c-0.043-0.014-0.086-0.028-0.128-0.042c-0.068-0.028-0.128-0.067-0.18-0.118
				c-0.039-0.027-0.071-0.06-0.096-0.1c-0.044-0.048-0.076-0.104-0.096-0.166c-0.008-0.038-0.016-0.076-0.023-0.114
				C108.024,214.335,108.027,214.299,108.03,214.263z"/>
			<path style="fill:#E14A31;" d="M76.655,225.615c0.051-0.077,0.118-0.13,0.203-0.158c0.081-0.047,0.17-0.068,0.266-0.064
				c0.143,0,0.28,0.029,0.41,0.087c0.136,0.06,0.269,0.149,0.375,0.258c0.012,0.008,0.027,0.01,0.039,0.019
				c0.051,0.044,0.102,0.088,0.153,0.131c0.039,0.05,0.077,0.1,0.116,0.149c0.05,0.073,0.081,0.152,0.092,0.238
				c0.023,0.076,0.025,0.153,0.003,0.231c-0.011,0.04-0.019,0.081-0.025,0.122c-0.003,0.024-0.005,0.048-0.009,0.071
				c-0.001,0.008-0.003,0.015-0.006,0.023c-0.001,0.002-0.002,0.004-0.002,0.006c-0.011,0.029-0.05,0.116-0.065,0.143
				c-0.002,0.003-0.004,0.007-0.006,0.01c-0.002,0.003-0.005,0.006-0.007,0.009c-0.002,0.002-0.003,0.004-0.005,0.005
				c-0.032,0.035-0.079,0.08-0.114,0.112c-0.008,0.008-0.018,0.015-0.027,0.022c-0.038,0.029-0.078,0.055-0.118,0.081
				c-0.205,0.137-0.477,0.106-0.692,0.013c-0.132-0.059-0.248-0.14-0.349-0.244c-0.091-0.094-0.159-0.203-0.203-0.326
				c-0.016-0.049-0.03-0.099-0.047-0.148c-0.03-0.083-0.045-0.173-0.06-0.259c-0.011-0.065-0.007-0.133-0.009-0.199
				C76.559,225.826,76.588,225.716,76.655,225.615z"/>
			<path style="fill:#E14A31;" d="M60.937,206.333c0.023-0.057,0.049-0.118,0.079-0.173c0.005-0.008,0.01-0.016,0.016-0.023
				c0.041-0.049,0.09-0.093,0.137-0.136c0.007-0.007,0.014-0.013,0.021-0.019c0.016-0.012,0.033-0.022,0.051-0.031
				c0.067-0.034,0.139-0.074,0.214-0.093c0.08-0.02,0.164-0.031,0.246-0.036c0.027-0.002,0.055-0.001,0.082,0.001
				c0.094,0.008,0.192,0.013,0.285,0.034c0.016,0.004,0.031,0.008,0.047,0.012c0.008,0.002,0.016,0.005,0.024,0.008
				c0.048,0.015,0.163,0.048,0.21,0.068c0.003,0.001,0.005,0.002,0.008,0.003c0.067,0.038,0.134,0.076,0.201,0.114
				c0.016,0.011,0.031,0.023,0.046,0.035c0.007,0.006,0.015,0.012,0.022,0.018c0.008,0.007,0.025,0.021,0.038,0.032
				c0.015,0.009,0.032,0.016,0.047,0.025c0.112,0.07,0.204,0.186,0.278,0.292c0.044,0.063,0.078,0.136,0.102,0.209
				c0.018,0.055,0.028,0.115,0.037,0.172c0.003,0.016,0.004,0.033,0.004,0.049c-0.001,0.169-0.039,0.296-0.125,0.442
				c-0.024,0.04-0.052,0.077-0.084,0.112c-0.059,0.066-0.122,0.131-0.193,0.186c-0.082,0.064-0.184,0.11-0.28,0.146
				c-0.021,0.008-0.043,0.013-0.065,0.017c-0.071,0.013-0.149,0.03-0.223,0.028c-0.068-0.002-0.139-0.01-0.206-0.02
				c-0.01-0.002-0.02-0.003-0.029-0.005c-0.07-0.017-0.141-0.042-0.208-0.067c-0.01-0.004-0.02-0.007-0.029-0.011
				c-0.008-0.004-0.016-0.008-0.023-0.012c-0.069-0.037-0.141-0.073-0.205-0.117c-0.008-0.006-0.016-0.012-0.023-0.017
				c-0.062-0.049-0.124-0.101-0.181-0.156c-0.061-0.059-0.111-0.133-0.16-0.2c-0.011-0.016-0.022-0.031-0.031-0.048
				c-0.039-0.071-0.076-0.146-0.106-0.222c-0.007-0.019-0.013-0.038-0.018-0.057c-0.022-0.089-0.05-0.19-0.046-0.285
				C60.902,206.52,60.902,206.418,60.937,206.333z"/>
			<path style="fill:#E14A31;" d="M78.787,201.519l0.104-0.102c0.089-0.057,0.186-0.085,0.292-0.085
				c0.09-0.003,0.176,0.012,0.259,0.046c0.094,0.024,0.181,0.066,0.26,0.126c0.083,0.054,0.152,0.121,0.207,0.202
				c0.06,0.066,0.103,0.142,0.131,0.228c0.011,0.052,0.021,0.104,0.032,0.156c0.008,0.102-0.017,0.196-0.073,0.281l-0.104,0.102
				c-0.089,0.057-0.186,0.085-0.292,0.085c-0.09,0.003-0.176-0.012-0.259-0.045c-0.095-0.024-0.181-0.066-0.26-0.126
				c-0.083-0.054-0.152-0.121-0.207-0.202c-0.06-0.066-0.103-0.142-0.131-0.228c-0.011-0.052-0.021-0.104-0.032-0.156
				C78.705,201.698,78.73,201.604,78.787,201.519z"/>
			<path style="fill:#E14A31;" d="M107.954,205.602c0.003-0.023,0.007-0.046,0.014-0.069c0.02-0.068,0.054-0.135,0.086-0.197
				c0.01-0.019,0.02-0.037,0.034-0.054c0.044-0.055,0.097-0.106,0.151-0.15c0.056-0.045,0.131-0.071,0.195-0.099
				c0.022-0.009,0.043-0.017,0.066-0.022c0.078-0.017,0.161-0.031,0.242-0.032c0.09-0.001,0.181,0.011,0.269,0.025
				c0.116,0.018,0.222,0.068,0.323,0.125c0.045,0.025,0.091,0.049,0.134,0.078c0.034,0.022,0.065,0.047,0.096,0.072
				c0.05,0.043,0.1,0.086,0.15,0.129c0.067,0.064,0.117,0.139,0.151,0.224c0.037,0.077,0.067,0.17,0.07,0.26
				c0.035,0.059,0.068,0.12,0.096,0.187c0.031,0.075,0.045,0.158,0.058,0.237c0.013,0.077,0.002,0.159-0.009,0.235
				c-0.006,0.038-0.017,0.074-0.032,0.109c-0.032,0.074-0.063,0.152-0.115,0.216c-0.069,0.084-0.157,0.174-0.257,0.226
				c-0.138,0.071-0.247,0.109-0.405,0.115c-0.075,0.003-0.152-0.007-0.225-0.021c-0.078-0.014-0.156-0.043-0.229-0.073
				c-0.079-0.031-0.154-0.079-0.224-0.124c-0.073-0.046-0.137-0.109-0.201-0.166c-0.083-0.073-0.149-0.164-0.211-0.255
				c-0.061-0.09-0.106-0.193-0.148-0.292c-0.021-0.05-0.036-0.101-0.048-0.154c-0.022-0.1-0.049-0.205-0.049-0.309
				C107.937,205.75,107.945,205.675,107.954,205.602z"/>
			<path style="fill:#E14A31;" d="M119.108,194.93c0.011-0.042,0.033-0.08,0.053-0.119c0,0,0-0.001,0-0.001
				c-0.009,0.019-0.018,0.039-0.027,0.058c0.014-0.031,0.019-0.064,0.026-0.096c-0.001-0.01,0.001-0.021-0.001-0.031
				c-0.007-0.058,0.003-0.112,0.032-0.16c0.017-0.053,0.051-0.095,0.1-0.126c0.034-0.016,0.067-0.031,0.101-0.047
				c0.06-0.018,0.121-0.022,0.182-0.011c0.045,0,0.089,0.009,0.13,0.028c0.071,0.018,0.135,0.049,0.195,0.094
				c0.037,0.032,0.075,0.064,0.112,0.096c0.063,0.065,0.11,0.14,0.14,0.225c0.013,0.054,0.025,0.108,0.033,0.163
				c0.003,0.018,0.005,0.036,0.005,0.055c0.001,0.017,0,0.034-0.001,0.05c-0.004,0.053-0.006,0.107-0.016,0.16
				c-0.003,0.016-0.007,0.033-0.012,0.048c-0.003,0.008-0.005,0.017-0.008,0.025c-0.001,0.004-0.003,0.007-0.004,0.011
				c-0.001,0.002-0.002,0.004-0.002,0.005c-0.016,0.034-0.031,0.068-0.047,0.103c-0.005,0.007-0.011,0.014-0.017,0.02
				c-0.031,0.031-0.062,0.063-0.094,0.092c-0.014,0.012-0.028,0.023-0.042,0.034c-0.033,0.016-0.066,0.031-0.1,0.046
				c-0.06,0.018-0.119,0.022-0.179,0.011c-0.045,0-0.087-0.009-0.128-0.027c-0.07-0.018-0.134-0.049-0.192-0.093l-0.111-0.095
				l-0.084-0.108c-0.036-0.053-0.059-0.11-0.067-0.172c-0.017-0.055-0.018-0.11-0.002-0.167
				C119.093,194.978,119.102,194.954,119.108,194.93z"/>
		</g>
	</g>
	<path style="fill:#582B2C;" d="M231.85,168.254c-4.606-0.576-9.789-0.576-17.85-4.031c-8.061-3.455-27.063-4.606-41.457-1.727
		c-14.395,2.879-19.916,11.274-21.592,12.956c-2.801,2.81-10.364,3.455-11.804,3.167c-1.439,0.288-9.003-0.356-11.804-3.167
		c-1.676-1.682-7.197-10.077-21.592-12.956s-33.396-1.727-41.457,1.727s-13.243,3.455-17.85,4.031
		c-4.606,0.576-4.606,4.031-4.606,4.031c0.576,8.637,3.616,7.807,5.182,10.94c0.576,1.152,1.152,7.485,1.727,15.547
		c0.576,8.061,7.485,21.304,18.425,25.911c10.94,4.606,32.245,6.91,45.488,0c13.243-6.91,16.122-23.032,18.426-31.093
		c2.303-8.061,8.061-6.334,8.061-6.334s5.758-1.727,8.061,6.334c2.303,8.061,5.182,24.183,18.425,31.093
		c13.243,6.91,34.548,4.606,45.488,0c10.94-4.606,17.85-17.85,18.426-25.911c0.576-8.061,1.152-14.395,1.727-15.547
		c1.566-3.133,4.606-2.303,5.182-10.94C236.456,172.285,236.456,168.83,231.85,168.254z M109.493,220.364
		c-13.243,6.91-34.548,5.758-45.488-2.879c-10.94-8.637-10.94-28.214-9.788-35.699c0,0,0-9.788,17.274-12.667
		s32.82-3.455,44.912,4.606c0,0,7.485,4.031,8.061,13.819C125.039,197.332,122.736,213.454,109.493,220.364z M214.288,217.485
		c-10.94,8.637-32.245,9.789-45.488,2.879c-13.243-6.91-15.546-23.032-14.971-32.82c0.576-9.789,8.061-13.819,8.061-13.819
		c12.092-8.061,27.638-7.485,44.912-4.606s17.274,12.667,17.274,12.667C225.228,189.271,225.228,208.848,214.288,217.485z"/>
</g>
</svg>
