<svg width="75" height="70" viewBox="0 0 75 70" fill="none" xmlns="http://www.w3.org/2000/svg">
<path d="M17.5981 46.4446C16.8624 47.4389 17.1887 48.8802 18.2789 49.4512C19.1553 49.9103 20.2232 49.6342 20.7755 48.8057L50.6295 4.02419C50.8437 3.70288 50.7444 3.26057 50.414 3.0644C50.1289 2.89512 49.7671 2.96871 49.5691 3.23625L17.5981 46.4446Z" fill="white"/>
<path d="M28.9184 59.8099C28.1827 60.8042 28.5091 62.2455 29.5992 62.8165C30.4756 63.2755 31.5435 62.9994 32.0958 62.1709L61.9498 17.3894C62.164 17.0681 62.0647 16.6258 61.7343 16.4296C61.4492 16.2604 61.0874 16.3339 60.8894 16.6015L28.9184 59.8099Z" fill="white"/>
<path d="M15.1547 64.1497C14.419 65.144 14.7454 66.5853 15.8355 67.1563C16.7119 67.6154 17.7798 67.3393 18.3321 66.5108L48.1861 21.7293C48.4003 21.408 48.301 20.9657 47.9707 20.7695C47.6856 20.6002 47.3237 20.6738 47.1258 20.9413L15.1547 64.1497Z" fill="white"/>
</svg>
