<svg width="81" height="81" viewBox="0 0 81 81" fill="none" xmlns="http://www.w3.org/2000/svg">
<path d="M38.1515 3.65168C39.0128 2.28432 40.9363 1.97088 42.1656 2.99755C43.1557 3.82438 43.3362 5.24194 42.5875 6.31015L2.39233 63.6587C2.10239 64.0723 1.51235 64.1694 1.11147 63.8694C0.765069 63.6102 0.679422 63.1397 0.911541 62.7712L38.1515 3.65168Z" fill="white"/>
<path d="M74.2709 26.7787C75.4082 25.6306 77.3539 25.7416 78.3313 27.0104C79.1185 28.0322 78.9874 29.4552 78.0249 30.3357L26.3517 77.6049C25.9789 77.9459 25.3819 77.9127 25.0556 77.5329C24.7736 77.2047 24.792 76.7269 25.0985 76.4175L74.2709 26.7787Z" fill="white"/>
<path d="M67.2406 2.71236C68.2569 1.45585 70.2039 1.37091 71.3038 2.53509C72.1897 3.47268 72.2022 4.90163 71.333 5.87433L24.6691 58.0949C24.3325 58.4716 23.7352 58.4986 23.3724 58.1535C23.0589 57.8553 23.0292 57.378 23.303 57.0394L67.2406 2.71236Z" fill="white"/>
</svg>
