<svg width="16" height="16" viewBox="0 0 16 16" fill="none" xmlns="http://www.w3.org/2000/svg">
<g clip-path="url(#clip0_955_5195)">
<path d="M15.04 8.16602C15.04 7.64602 14.9933 7.14602 14.9067 6.66602H8V9.50268H11.9467C11.7767 10.4193 11.26 11.196 10.4833 11.716V13.556H12.8533C14.24 12.2793 15.04 10.3993 15.04 8.16602Z" fill="#4285F4"/>
<path d="M7.99962 15.3326C9.97962 15.3326 11.6396 14.6759 12.853 13.5559L10.483 11.7159C9.82629 12.1559 8.98629 12.4159 7.99962 12.4159C6.08962 12.4159 4.47296 11.1259 3.89629 9.39258H1.44629V11.2926C2.65296 13.6892 5.13296 15.3326 7.99962 15.3326Z" fill="#34A853"/>
<path d="M3.89699 9.3937C3.75033 8.9537 3.66699 8.4837 3.66699 8.00036C3.66699 7.51703 3.75033 7.04703 3.89699 6.60703V4.70703H1.44699C0.933659 5.72894 0.66654 6.85677 0.666993 8.00036C0.666993 9.1837 0.950326 10.3037 1.44699 11.2937L3.89699 9.3937Z" fill="#FBBC05"/>
<path d="M7.99962 3.58268C9.07629 3.58268 10.043 3.95268 10.803 4.67935L12.9063 2.57602C11.6363 1.39268 9.97629 0.666016 7.99962 0.666016C5.13296 0.666016 2.65296 2.30935 1.44629 4.70602L3.89629 6.60602C4.47296 4.87268 6.08962 3.58268 7.99962 3.58268Z" fill="#EA4335"/>
</g>
<defs>
<clipPath id="clip0_955_5195">
<rect width="16" height="16" fill="white"/>
</clipPath>
</defs>
</svg>
