<svg width="123" height="116" viewBox="0 0 123 116" fill="none" xmlns="http://www.w3.org/2000/svg">
<path d="M52.7301 10.0155L51.9364 8.74268L51.8166 8.81737L51.7129 8.91309L52.7301 10.0155ZM86.0316 83.3333L86.8802 84.5702L86.9295 84.5364L86.9759 84.4987L86.0316 83.3333ZM48.4535 43.6731L48.1233 45.1363L48.1688 45.1466L48.2149 45.154L48.4535 43.6731ZM18.5706 115.191C19.399 115.182 20.0634 114.503 20.0546 113.675L19.9112 100.176C19.9024 99.3474 19.2237 98.683 18.3953 98.6918C17.5669 98.7006 16.9025 99.3793 16.9113 100.208L17.0388 112.207L5.03952 112.334C4.21114 112.343 3.54674 113.022 3.55555 113.85C3.56435 114.679 4.24302 115.343 5.0714 115.334L18.5706 115.191ZM122.444 36.0796C120.566 27.7591 112.433 15.1017 100.107 7.41729C87.6452 -0.351662 70.856 -3.05676 51.9364 8.74268L53.5239 11.2882C71.3886 0.146685 86.9433 2.746 98.52 9.9631C110.232 17.2647 117.833 29.275 119.518 36.7401L122.444 36.0796ZM51.7129 8.91309C44.2527 15.7975 33.4877 36.2088 47.4724 63.947L50.1512 62.5964C36.8073 36.1292 47.2084 17.152 53.7474 11.1178L51.7129 8.91309ZM47.4724 63.947C54.4188 77.7248 62.3066 84.2532 69.5634 86.6192C76.8078 88.9811 83.178 87.1101 86.8802 84.5702L85.183 82.0964C82.172 84.1621 76.7645 85.8116 70.4933 83.767C64.2346 81.7264 56.8691 75.9212 50.1512 62.5964L47.4724 63.947ZM86.9759 84.4987C88.7222 83.0836 89.8072 81.3248 90.262 79.3329C90.7114 77.3647 90.5261 75.26 89.8958 73.1431C88.6432 68.9363 85.5592 64.4258 81.4758 60.2207C73.3056 51.807 60.6418 44.1178 48.6922 42.1922L48.2149 45.154C59.389 46.9546 71.4951 54.2489 79.3235 62.3106C83.2393 66.3431 85.9618 70.4433 87.0205 73.9992C87.5459 75.7638 87.6425 77.3284 87.3373 78.6651C87.0375 79.9782 86.3314 81.1597 85.0872 82.1679L86.9759 84.4987ZM48.7837 42.2099C34.0521 38.8855 15.8579 46.81 6.53365 60.594C1.83639 67.5379 -0.648312 76.0171 0.702378 85.3459C2.05168 94.665 7.20523 104.679 17.5054 114.763L19.604 112.619C9.65264 102.877 4.90466 93.4335 3.67142 84.916C2.43957 76.408 4.69132 68.6718 9.01852 62.2749C17.7432 49.3772 34.75 42.1184 48.1233 45.1363L48.7837 42.2099Z" fill="#0F0BC7"/>
</svg>
