<svg width="18" height="18" viewBox="0 0 18 18" fill="none" xmlns="http://www.w3.org/2000/svg">
<path d="M9.00002 0.686275C4.39653 0.686275 0.666687 4.41611 0.666687 9.01961C0.666687 13.6231 4.39653 17.3529 9.00002 17.3529C13.6035 17.3529 17.3334 13.6231 17.3334 9.01961C17.3334 4.41611 13.6035 0.686275 9.00002 0.686275ZM13.8387 9.96047C13.8387 10.1822 13.6573 10.3637 13.4355 10.3637H10.3441V13.4551C10.3441 13.6769 10.1627 13.8583 9.94088 13.8583H8.05916C7.83739 13.8583 7.65593 13.6769 7.65593 13.4551V10.3637H4.56454C4.34276 10.3637 4.16131 10.1822 4.16131 9.96047V8.07875C4.16131 7.85697 4.34276 7.67552 4.56454 7.67552H7.65593V4.58412C7.65593 4.36235 7.83739 4.1809 8.05916 4.1809H9.94088C10.1627 4.1809 10.3441 4.36235 10.3441 4.58412V7.67552H13.4355C13.6573 7.67552 13.8387 7.85697 13.8387 8.07875V9.96047Z" fill="#0966AB"/>
</svg>
