<svg width="25" height="25" viewBox="0 0 25 25" fill="none" xmlns="http://www.w3.org/2000/svg">
<path d="M23.7188 12.1094C23.7188 18.5225 18.5206 23.7188 12.1094 23.7188C5.69811 23.7188 0.5 18.5225 0.5 12.1094C0.5 5.70006 5.69822 0.5 12.1094 0.5C18.5205 0.5 23.7188 5.70006 23.7188 12.1094ZM12.9183 14.1719H13.2946C13.8713 14.1719 14.3475 13.721 14.3789 13.1451L14.7411 6.50448C14.775 5.88244 14.2798 5.35938 13.6568 5.35938H10.5619C9.93886 5.35938 9.44372 5.8825 9.47765 6.50448L9.83985 13.1451C9.87126 13.721 10.3475 14.1719 10.9242 14.1719H11.3004C10.1786 14.5172 9.36328 15.5618 9.36328 16.7969C9.36328 18.3135 10.5928 19.543 12.1094 19.543C13.626 19.543 14.8555 18.3135 14.8555 16.7969C14.8555 15.5618 14.0401 14.5172 12.9183 14.1719Z" stroke="#F75F74"/>
</svg>
