<svg width="24" height="21" viewBox="0 0 24 21" fill="none" xmlns="http://www.w3.org/2000/svg">
<path d="M2.25562 6.48185H20.7844V5.69717C20.7844 3.95904 19.8984 3.08154 18.135 3.08154H4.90499C3.14155 3.08154 2.25562 3.95904 2.25562 5.69717V6.48185ZM2.25562 14.6662C2.25562 16.4044 3.14155 17.2735 4.90499 17.2735H18.135C19.8984 17.2735 20.7844 16.4044 20.7844 14.6662V8.39717H2.25562V14.6662ZM5.07374 12.6075V11.0465C5.07374 10.574 5.4028 10.2366 5.90061 10.2366H7.9678C8.46561 10.2366 8.79467 10.574 8.79467 11.0465V12.6075C8.79467 13.0884 8.46561 13.4175 7.9678 13.4175H5.90061C5.4028 13.4175 5.07374 13.0884 5.07374 12.6075Z" fill="#407BFF"/>
</svg>
