<svg width="24" height="24" viewBox="0 0 24 24" fill="none" xmlns="http://www.w3.org/2000/svg">
<path d="M20.75 4.2H3.25C2.69772 4.2 2.25 4.64772 2.25 5.2V18.8C2.25 19.3523 2.69772 19.8 3.25 19.8H20.75C21.3023 19.8 21.75 19.3523 21.75 18.8V5.2C21.75 4.64772 21.3023 4.2 20.75 4.2Z" stroke="#082038" stroke-linecap="round" stroke-linejoin="round"/>
<path d="M19.25 6.2H4.75C4.47386 6.2 4.25 6.42386 4.25 6.7V17.3C4.25 17.5761 4.47386 17.8 4.75 17.8H19.25C19.5261 17.8 19.75 17.5761 19.75 17.3V6.7C19.75 6.42386 19.5261 6.2 19.25 6.2Z" stroke="#082038" stroke-linecap="round" stroke-linejoin="round"/>
<path d="M14.84 16.705H18.15V17.8H14.84V16.705ZM12.92 9.5C12.7993 9.37906 12.6558 9.28311 12.498 9.21764C12.3401 9.15217 12.1709 9.11848 12 9.11848C11.8291 9.11848 11.6599 9.15217 11.502 9.21764C11.3441 9.28311 11.2007 9.37906 11.08 9.5C10.929 9.65174 10.8176 9.8383 10.7558 10.0432C10.6939 10.2482 10.6833 10.4652 10.7251 10.6751C10.7669 10.8851 10.8597 11.0815 10.9953 11.2472C11.1309 11.4128 11.3051 11.5426 11.5027 11.625C11.7003 11.7074 11.9151 11.7399 12.1282 11.7197C12.3413 11.6995 12.5462 11.6271 12.7248 11.5091C12.9034 11.391 13.0501 11.2308 13.1522 11.0426C13.2542 10.8545 13.3084 10.6441 13.31 10.43C13.3107 10.2558 13.2755 10.0834 13.2067 9.92342C13.1379 9.76343 13.0369 9.61931 12.91 9.5H12.92ZM11 12.765H13C13.3978 12.765 13.7794 12.923 14.0607 13.2043C14.342 13.4856 14.5 13.8672 14.5 14.265V14.87H9.5V14.265C9.5 13.8672 9.65803 13.4856 9.93933 13.2043C10.2206 12.923 10.6022 12.765 11 12.765ZM8.71 10.735C8.61703 10.6413 8.50643 10.5669 8.38457 10.5161C8.26271 10.4653 8.13201 10.4392 8 10.4392C7.86798 10.4392 7.73728 10.4653 7.61542 10.5161C7.49356 10.5669 7.38296 10.6413 7.29 10.735C7.17481 10.8512 7.08989 10.9938 7.04267 11.1505C6.99546 11.3071 6.98739 11.4729 7.01919 11.6334C7.05098 11.7939 7.12166 11.9441 7.22502 12.0709C7.32839 12.1977 7.46129 12.2972 7.61206 12.3607C7.76284 12.4242 7.92689 12.4497 8.08983 12.435C8.25276 12.4204 8.40961 12.3659 8.54662 12.2765C8.68362 12.1871 8.7966 12.0655 8.87565 11.9222C8.95469 11.779 8.99739 11.6186 9 11.455C9.00011 11.3219 8.97363 11.19 8.92212 11.0672C8.8706 10.9445 8.79508 10.8332 8.7 10.74L8.71 10.735Z" stroke="#082038" stroke-linecap="round" stroke-linejoin="round"/>
<path d="M9.67 13.57C9.57663 13.4679 9.4631 13.3864 9.33659 13.3304C9.21007 13.2745 9.07333 13.2454 8.935 13.245H7.065C6.79979 13.245 6.54543 13.3504 6.3579 13.5379C6.17036 13.7254 6.065 13.9798 6.065 14.245V14.87H9.5M14.5 14.87H17.93V14.245C17.93 13.9798 17.8246 13.7254 17.6371 13.5379C17.4496 13.3504 17.1952 13.245 16.93 13.245H15.065C14.9267 13.2454 14.7899 13.2745 14.6634 13.3304C14.5369 13.3864 14.4234 13.4679 14.33 13.57M16.71 10.735C16.617 10.6413 16.5064 10.5669 16.3846 10.5161C16.2627 10.4653 16.132 10.4392 16 10.4392C15.868 10.4392 15.7373 10.4653 15.6154 10.5161C15.4936 10.5669 15.383 10.6413 15.29 10.735C15.1748 10.8512 15.0899 10.9938 15.0427 11.1505C14.9955 11.3071 14.9874 11.4729 15.0192 11.6334C15.051 11.7939 15.1217 11.9441 15.225 12.0709C15.3284 12.1977 15.4613 12.2972 15.6121 12.3607C15.7628 12.4242 15.9269 12.4497 16.0898 12.435C16.2528 12.4204 16.4096 12.3659 16.5466 12.2765C16.6836 12.1871 16.7966 12.0655 16.8757 11.9222C16.9547 11.779 16.9974 11.6186 17 11.455C17.0001 11.3219 16.9736 11.19 16.9221 11.0672C16.8706 10.9445 16.7951 10.8332 16.7 10.74L16.71 10.735Z" stroke="#082038" stroke-linecap="round" stroke-linejoin="round"/>
</svg>
