<svg width="12" height="14" viewBox="0 0 12 14" fill="none" xmlns="http://www.w3.org/2000/svg">
<path d="M1.33333 13.6667C0.966668 13.6667 0.652668 13.536 0.391334 13.2747C0.130001 13.0134 -0.000443313 12.6996 1.13186e-06 12.3334V3.00004H1.33333V12.3334H8.66667V13.6667H1.33333ZM4 11C3.63333 11 3.31933 10.8694 3.058 10.608C2.79667 10.3467 2.66622 10.0329 2.66667 9.66671V1.66671C2.66667 1.30004 2.79733 0.986042 3.05867 0.724708C3.32 0.463375 3.63378 0.332931 4 0.333375H10C10.3667 0.333375 10.6807 0.464042 10.942 0.725375C11.2033 0.986708 11.3338 1.30049 11.3333 1.66671V9.66671C11.3333 10.0334 11.2027 10.3474 10.9413 10.6087C10.68 10.87 10.3662 11.0005 10 11H4ZM4 9.66671H10V1.66671H4V9.66671Z" fill="#109AB7"/>
</svg>
