<svg width="25" height="19" viewBox="0 0 25 19" fill="none" xmlns="http://www.w3.org/2000/svg">
<path d="M17.3014 12.1472C21.798 8.88055 23.4175 7.67629 24.5 6.84376V16.4062C24.5 17.4241 23.6741 18.25 22.6562 18.25H2.34375C1.32595 18.25 0.5 17.4241 0.5 16.4062V6.84841C1.5836 7.68045 3.20752 8.881 7.70373 12.1474C7.84181 12.2482 8.00292 12.3724 8.18164 12.5103C8.61629 12.8455 9.15508 13.2611 9.72005 13.6147C10.5243 14.1182 11.4902 14.572 12.4994 14.5674C13.5151 14.5748 14.493 14.1124 15.3012 13.6053C15.8681 13.2495 16.4076 12.8324 16.8349 12.502C17.0116 12.3654 17.1691 12.2437 17.3014 12.1472ZM12.5086 12.0001L12.5 11.9999L12.4914 12.0001C12.3094 12.0032 12.0706 11.946 11.7777 11.818C11.4896 11.6921 11.1808 11.5118 10.8676 11.3036C10.4502 11.0261 10.0731 10.7343 9.7355 10.473C9.54815 10.328 9.37296 10.1924 9.20982 10.0739L9.20968 10.0738C3.21033 5.72013 2.34936 5.04632 1.0725 4.04703C0.971409 3.96792 0.867711 3.88676 0.758651 3.80158C0.593396 3.66991 0.5 3.47659 0.5 3.27148V2.34375C0.5 1.32595 1.32595 0.5 2.34375 0.5H22.6562C23.6741 0.5 24.5 1.32595 24.5 2.34375V3.27148C24.5 3.48031 24.4038 3.6755 24.2443 3.79929L24.2422 3.80091C24.1578 3.86713 24.0766 3.9309 23.9973 3.99314C22.6805 5.02718 21.8999 5.64013 15.7903 10.0738L15.7902 10.0739C15.627 10.1924 15.4518 10.328 15.2645 10.473C14.9269 10.7343 14.5498 11.0261 14.1324 11.3036C13.8192 11.5118 13.5104 11.6921 13.2223 11.818C12.9294 11.946 12.6906 12.0032 12.5086 12.0001Z" stroke="#4D4BAC"/>
</svg>
