<svg width="24" height="25" viewBox="0 0 24 25" fill="none" xmlns="http://www.w3.org/2000/svg">
<g clip-path="url(#clip0_126_2015)">
<path fill-rule="evenodd" clip-rule="evenodd" d="M17 4.48114C17.763 4.48114 18.394 4.91514 18.856 5.37114C19.337 5.84414 19.778 6.48014 20.17 7.18114C20.957 8.58714 21.642 10.4241 22.095 12.2391C22.545 14.0401 22.794 15.9211 22.635 17.4001C22.475 18.8851 21.71 20.4811 20 20.4811C18.524 20.4811 17.348 19.7211 16.386 18.9501L16.035 18.6611L15.543 18.2461L15.099 17.8781C14.08 17.0531 13.175 16.4811 12 16.4811C10.825 16.4811 9.92 17.0531 8.901 17.8781L8.457 18.2461L7.965 18.6611L7.615 18.9501C6.651 19.7211 5.475 20.4811 4 20.4811C2.289 20.4811 1.524 18.8851 1.365 17.4001C1.207 15.9201 1.455 14.0401 1.905 12.2381C2.358 10.4241 3.043 8.58814 3.83 7.18014C4.222 6.48014 4.663 5.84414 5.144 5.37014C5.606 4.91514 6.237 4.48114 7 4.48114C7.515 4.48114 8.018 4.60414 8.513 4.75114L9.105 4.93214C9.204 4.96214 9.302 4.99214 9.4 5.01914C10.265 5.26714 11.15 5.48114 12 5.48114C12.85 5.48114 13.735 5.26714 14.6 5.01914L15.485 4.75214C15.983 4.60514 16.49 4.48114 17 4.48114ZM17 6.48114C16.617 6.48114 16.217 6.59714 15.829 6.72414L15.371 6.87514C15.2977 6.89898 15.224 6.92165 15.15 6.94314C14.265 7.19514 13.15 7.48114 12 7.48114C10.85 7.48114 9.735 7.19514 8.85 6.94314L8.63 6.87514L8.171 6.72414C7.783 6.59614 7.383 6.48114 7 6.48114C6.582 6.55914 6.207 7.06614 5.924 7.53614L5.766 7.81114L5.576 8.15714C4.894 9.37514 4.266 11.0371 3.846 12.7231C3.451 14.3001 3.259 15.8101 3.332 16.9341L3.358 17.2271L3.378 17.4031L3.408 17.6111C3.477 18.0121 3.626 18.4811 4 18.4811C4.812 18.4811 5.49 18.0771 6.333 17.4071L6.736 17.0791L7.496 16.4431L7.84 16.1631C8.904 15.3201 10.235 14.4811 12 14.4811C13.765 14.4811 15.096 15.3211 16.16 16.1631L16.505 16.4431L17.265 17.0791L17.667 17.4071C18.51 18.0771 19.187 18.4811 20 18.4811C20.34 18.4811 20.494 18.0941 20.571 17.7221L20.609 17.5041L20.646 17.1871C20.769 16.0411 20.579 14.4221 20.155 12.7241C19.769 11.1781 19.209 9.65214 18.593 8.47014L18.234 7.81014L18.076 7.53714C17.793 7.06614 17.418 6.55914 17 6.48114ZM8.5 8.48114C9.16304 8.48114 9.79893 8.74453 10.2678 9.21337C10.7366 9.68221 11 10.3181 11 10.9811C11 11.6442 10.7366 12.2801 10.2678 12.7489C9.79893 13.2177 9.16304 13.4811 8.5 13.4811C7.83696 13.4811 7.20108 13.2177 6.73223 12.7489C6.26339 12.2801 6 11.6442 6 10.9811C6 10.3181 6.26339 9.68221 6.73223 9.21337C7.20108 8.74453 7.83696 8.48114 8.5 8.48114ZM15.5 8.48114C15.7449 8.48117 15.9813 8.5711 16.1644 8.73386C16.3474 8.89661 16.4643 9.12089 16.493 9.36414L16.5 9.48114V9.98114H17C17.2549 9.98142 17.5 10.079 17.6854 10.254C17.8707 10.429 17.9822 10.6681 17.9972 10.9225C18.0121 11.177 17.9293 11.4275 17.7657 11.623C17.6021 11.8184 17.3701 11.944 17.117 11.9741L17 11.9811H16.5V12.4811C16.4997 12.736 16.4021 12.9812 16.2272 13.1665C16.0522 13.3518 15.813 13.4634 15.5586 13.4783C15.3042 13.4932 15.0536 13.4105 14.8582 13.2469C14.6627 13.0833 14.5371 12.8512 14.507 12.5981L14.5 12.4811V11.9811H14C13.7451 11.9809 13.5 11.8833 13.3146 11.7083C13.1293 11.5333 13.0178 11.2942 13.0028 11.0397C12.9879 10.7853 13.0707 10.5348 13.2343 10.3393C13.3979 10.1439 13.6299 10.0182 13.883 9.98814L14 9.98114H14.5V9.48114C14.5 9.21592 14.6054 8.96157 14.7929 8.77403C14.9804 8.5865 15.2348 8.48114 15.5 8.48114ZM8.5 10.4811C8.36739 10.4811 8.24022 10.5338 8.14645 10.6276C8.05268 10.7214 8 10.8485 8 10.9811C8 11.1137 8.05268 11.2409 8.14645 11.3347C8.24022 11.4285 8.36739 11.4811 8.5 11.4811C8.63261 11.4811 8.75979 11.4285 8.85356 11.3347C8.94732 11.2409 9 11.1137 9 10.9811C9 10.8485 8.94732 10.7214 8.85356 10.6276C8.75979 10.5338 8.63261 10.4811 8.5 10.4811Z" fill="#082038"/>
</g>
<defs>
<clipPath id="clip0_126_2015">
<rect width="24" height="24" fill="white" transform="translate(0 0.48114)"/>
</clipPath>
</defs>
</svg>
