<svg width="593" height="35" viewBox="0 0 593 35" fill="none" xmlns="http://www.w3.org/2000/svg">
<g clip-path="url(#clip0_134_1037)">
<rect width="593" height="35" fill="#082038"/>
<rect x="57" y="26" width="479" height="1" fill="#D9D9D9"/>
<rect x="57" y="26" width="142.985" height="1" fill="#78B710"/>
<path d="M295 13.5V6.5L300.5 10L295 13.5Z" fill="white"/>
<path d="M243.5 6C243.633 6 243.76 6.05268 243.854 6.14645C243.947 6.24021 244 6.36739 244 6.5V9.6665L249.111 6.259C249.149 6.23395 249.193 6.21958 249.238 6.21741C249.283 6.21525 249.328 6.22539 249.368 6.24673C249.408 6.26807 249.441 6.29983 249.464 6.33862C249.488 6.37741 249.5 6.42178 249.5 6.467V13.533C249.5 13.5782 249.488 13.6226 249.464 13.6614C249.441 13.7002 249.408 13.7319 249.368 13.7533C249.328 13.7746 249.283 13.7847 249.238 13.7826C249.193 13.7804 249.149 13.7661 249.111 13.741L244 10.3335V13.5C244 13.6326 243.947 13.7598 243.854 13.8536C243.76 13.9473 243.633 14 243.5 14C243.367 14 243.24 13.9473 243.146 13.8536C243.053 13.7598 243 13.6326 243 13.5V6.5C243 6.36739 243.053 6.24021 243.146 6.14645C243.24 6.05268 243.367 6 243.5 6ZM248.5 7.8685L245.303 10L248.5 12.1315V7.8685Z" fill="white"/>
<path d="M350.5 6C350.367 6 350.24 6.05268 350.146 6.14645C350.053 6.24021 350 6.36739 350 6.5V9.6665L344.889 6.259C344.851 6.23395 344.807 6.21958 344.762 6.21741C344.717 6.21525 344.672 6.22539 344.632 6.24673C344.592 6.26807 344.559 6.29983 344.536 6.33862C344.512 6.37741 344.5 6.42178 344.5 6.467V13.533C344.5 13.5782 344.512 13.6226 344.536 13.6614C344.559 13.7002 344.592 13.7319 344.632 13.7533C344.672 13.7746 344.717 13.7847 344.762 13.7826C344.807 13.7804 344.851 13.7661 344.889 13.741L350 10.3335V13.5C350 13.6326 350.053 13.7598 350.146 13.8536C350.24 13.9473 350.367 14 350.5 14C350.633 14 350.76 13.9473 350.854 13.8536C350.947 13.7598 351 13.6326 351 13.5V6.5C351 6.36739 350.947 6.24021 350.854 6.14645C350.76 6.05268 350.633 6 350.5 6ZM345.5 7.8685L348.697 10L345.5 12.1315V7.8685Z" fill="white"/>
<path d="M18.7002 27.1172C17.971 27.1172 17.4014 26.8193 16.9912 26.2236C16.5843 25.6279 16.3809 24.7669 16.3809 23.6406C16.3809 22.4036 16.5941 21.4678 17.0205 20.833C17.4469 20.1982 18.0622 19.8809 18.8662 19.8809C20.4059 19.8809 21.1758 21.0771 21.1758 23.4697C21.1758 24.6546 20.9577 25.5596 20.5215 26.1846C20.0885 26.8063 19.4814 27.1172 18.7002 27.1172ZM18.8125 20.7842C17.9629 20.7842 17.5381 21.7201 17.5381 23.5918C17.5381 25.3431 17.9548 26.2188 18.7881 26.2188C19.6084 26.2188 20.0186 25.3285 20.0186 23.5479C20.0186 21.7054 19.6165 20.7842 18.8125 20.7842ZM24.2568 27.1172C23.5277 27.1172 22.958 26.8193 22.5479 26.2236C22.141 25.6279 21.9375 24.7669 21.9375 23.6406C21.9375 22.4036 22.1507 21.4678 22.5771 20.833C23.0036 20.1982 23.6188 19.8809 24.4229 19.8809C25.9626 19.8809 26.7324 21.0771 26.7324 23.4697C26.7324 24.6546 26.5143 25.5596 26.0781 26.1846C25.6452 26.8063 25.0381 27.1172 24.2568 27.1172ZM24.3691 20.7842C23.5195 20.7842 23.0947 21.7201 23.0947 23.5918C23.0947 25.3431 23.5114 26.2188 24.3447 26.2188C25.165 26.2188 25.5752 25.3285 25.5752 23.5479C25.5752 21.7054 25.1732 20.7842 24.3691 20.7842ZM28.3193 27.1074C28.124 27.1074 27.958 27.0439 27.8213 26.917C27.6846 26.7868 27.6162 26.6322 27.6162 26.4531C27.6162 26.2708 27.6846 26.1146 27.8213 25.9844C27.958 25.8542 28.124 25.7891 28.3193 25.7891C28.5179 25.7891 28.6855 25.8542 28.8223 25.9844C28.9622 26.1146 29.0322 26.2708 29.0322 26.4531C29.0322 26.6322 28.9622 26.7868 28.8223 26.917C28.6855 27.0439 28.5179 27.1074 28.3193 27.1074ZM28.3193 23.2451C28.124 23.2451 27.958 23.1816 27.8213 23.0547C27.6846 22.9245 27.6162 22.7699 27.6162 22.5908C27.6162 22.4085 27.6846 22.2523 27.8213 22.1221C27.958 21.9919 28.124 21.9268 28.3193 21.9268C28.5179 21.9268 28.6855 21.9919 28.8223 22.1221C28.9622 22.2523 29.0322 22.4085 29.0322 22.5908C29.0322 22.7699 28.9622 22.9245 28.8223 23.0547C28.6855 23.1816 28.5179 23.2451 28.3193 23.2451ZM34.3984 27H30.0039V26.458C30.0039 26.2367 30.0348 26.0299 30.0967 25.8379C30.1585 25.6426 30.2415 25.4603 30.3457 25.291C30.4499 25.1185 30.5719 24.9574 30.7119 24.8076C30.8519 24.6546 31.0016 24.5081 31.1611 24.3682C31.3206 24.2249 31.4834 24.0882 31.6494 23.958C31.8154 23.8245 31.9782 23.6911 32.1377 23.5576C32.2874 23.4307 32.4242 23.307 32.5479 23.1865C32.6715 23.0628 32.7773 22.9359 32.8652 22.8057C32.9531 22.6755 33.0215 22.5387 33.0703 22.3955C33.1191 22.249 33.1436 22.0911 33.1436 21.9219C33.1436 21.7363 33.1143 21.5752 33.0557 21.4385C33.0003 21.2985 32.9206 21.1829 32.8164 21.0918C32.7155 20.9974 32.5951 20.9274 32.4551 20.8818C32.3151 20.833 32.1621 20.8086 31.9961 20.8086C31.7096 20.8086 31.4183 20.8753 31.1221 21.0088C30.8258 21.1423 30.541 21.3424 30.2676 21.6094V20.5205C30.4108 20.4131 30.5557 20.3203 30.7021 20.2422C30.8486 20.1608 31 20.0941 31.1562 20.042C31.3125 19.9867 31.4769 19.946 31.6494 19.9199C31.8219 19.8939 32.0059 19.8809 32.2012 19.8809C32.5169 19.8809 32.8034 19.9232 33.0605 20.0078C33.3177 20.0892 33.5374 20.2113 33.7197 20.374C33.902 20.5335 34.042 20.7337 34.1396 20.9746C34.2406 21.2155 34.291 21.4922 34.291 21.8047C34.291 22.0879 34.2552 22.3434 34.1836 22.5713C34.1152 22.7959 34.016 23.0059 33.8857 23.2012C33.7588 23.3965 33.6042 23.582 33.4219 23.7578C33.2396 23.9336 33.0361 24.1143 32.8115 24.2998C32.6227 24.4528 32.4339 24.6025 32.2451 24.749C32.0596 24.8923 31.8919 25.0339 31.7422 25.1738C31.5924 25.3105 31.4704 25.4489 31.376 25.5889C31.2848 25.7256 31.2393 25.8639 31.2393 26.0039V26.0283H34.3984V27ZM37.7822 27.1172C37.0531 27.1172 36.4834 26.8193 36.0732 26.2236C35.6663 25.6279 35.4629 24.7669 35.4629 23.6406C35.4629 22.4036 35.6761 21.4678 36.1025 20.833C36.529 20.1982 37.1442 19.8809 37.9482 19.8809C39.488 19.8809 40.2578 21.0771 40.2578 23.4697C40.2578 24.6546 40.0397 25.5596 39.6035 26.1846C39.1706 26.8063 38.5635 27.1172 37.7822 27.1172ZM37.8945 20.7842C37.0449 20.7842 36.6201 21.7201 36.6201 23.5918C36.6201 25.3431 37.0368 26.2188 37.8701 26.2188C38.6904 26.2188 39.1006 25.3285 39.1006 23.5479C39.1006 21.7054 38.6986 20.7842 37.8945 20.7842Z" fill="white"/>
<path d="M549.7 27.1172C548.971 27.1172 548.401 26.8193 547.991 26.2236C547.584 25.6279 547.381 24.7669 547.381 23.6406C547.381 22.4036 547.594 21.4678 548.021 20.833C548.447 20.1982 549.062 19.8809 549.866 19.8809C551.406 19.8809 552.176 21.0771 552.176 23.4697C552.176 24.6546 551.958 25.5596 551.521 26.1846C551.089 26.8063 550.481 27.1172 549.7 27.1172ZM549.812 20.7842C548.963 20.7842 548.538 21.7201 548.538 23.5918C548.538 25.3431 548.955 26.2188 549.788 26.2188C550.608 26.2188 551.019 25.3285 551.019 23.5479C551.019 21.7054 550.617 20.7842 549.812 20.7842ZM553.157 26.7412V25.6768C553.613 26.0381 554.127 26.2188 554.7 26.2188C555.166 26.2188 555.537 26.113 555.813 25.9014C556.093 25.6898 556.233 25.4033 556.233 25.042C556.233 24.2477 555.626 23.8506 554.412 23.8506H553.87V22.9424H554.388C555.465 22.9424 556.004 22.568 556.004 21.8193C556.004 21.1292 555.584 20.7842 554.744 20.7842C554.275 20.7842 553.834 20.9518 553.421 21.2871V20.2812C553.896 20.0143 554.458 19.8809 555.105 19.8809C555.727 19.8809 556.225 20.0371 556.6 20.3496C556.974 20.6621 557.161 21.0625 557.161 21.5508C557.161 22.472 556.692 23.0645 555.755 23.3281V23.3477C556.259 23.3965 556.658 23.5739 556.951 23.8799C557.244 24.1826 557.391 24.5618 557.391 25.0176C557.391 25.6458 557.155 26.1536 556.683 26.541C556.211 26.9251 555.589 27.1172 554.817 27.1172C554.124 27.1172 553.571 26.9919 553.157 26.7412ZM559.319 27.1074C559.124 27.1074 558.958 27.0439 558.821 26.917C558.685 26.7868 558.616 26.6322 558.616 26.4531C558.616 26.2708 558.685 26.1146 558.821 25.9844C558.958 25.8542 559.124 25.7891 559.319 25.7891C559.518 25.7891 559.686 25.8542 559.822 25.9844C559.962 26.1146 560.032 26.2708 560.032 26.4531C560.032 26.6322 559.962 26.7868 559.822 26.917C559.686 27.0439 559.518 27.1074 559.319 27.1074ZM559.319 23.2451C559.124 23.2451 558.958 23.1816 558.821 23.0547C558.685 22.9245 558.616 22.7699 558.616 22.5908C558.616 22.4085 558.685 22.2523 558.821 22.1221C558.958 21.9919 559.124 21.9268 559.319 21.9268C559.518 21.9268 559.686 21.9919 559.822 22.1221C559.962 22.2523 560.032 22.4085 560.032 22.5908C560.032 22.7699 559.962 22.9245 559.822 23.0547C559.686 23.1816 559.518 23.2451 559.319 23.2451ZM561.282 26.8389V25.75C561.741 26.0592 562.207 26.2139 562.679 26.2139C563.154 26.2139 563.536 26.0934 563.826 25.8525C564.116 25.6084 564.261 25.2845 564.261 24.8809C564.261 24.4837 564.113 24.1745 563.816 23.9531C563.523 23.7318 563.102 23.6211 562.552 23.6211C562.363 23.6211 561.98 23.6406 561.404 23.6797L561.653 19.998H565.101V20.9648H562.596L562.479 22.7178C562.703 22.7048 562.907 22.6982 563.089 22.6982C563.831 22.6982 564.404 22.8887 564.808 23.2695C565.215 23.6504 565.418 24.1712 565.418 24.832C565.418 25.5254 565.185 26.082 564.72 26.502C564.257 26.9186 563.621 27.127 562.811 27.127C562.127 27.127 561.618 27.0309 561.282 26.8389ZM568.782 27.1172C568.053 27.1172 567.483 26.8193 567.073 26.2236C566.666 25.6279 566.463 24.7669 566.463 23.6406C566.463 22.4036 566.676 21.4678 567.103 20.833C567.529 20.1982 568.144 19.8809 568.948 19.8809C570.488 19.8809 571.258 21.0771 571.258 23.4697C571.258 24.6546 571.04 25.5596 570.604 26.1846C570.171 26.8063 569.563 27.1172 568.782 27.1172ZM568.895 20.7842C568.045 20.7842 567.62 21.7201 567.62 23.5918C567.62 25.3431 568.037 26.2188 568.87 26.2188C569.69 26.2188 570.101 25.3285 570.101 23.5479C570.101 21.7054 569.699 20.7842 568.895 20.7842Z" fill="white"/>
</g>
<defs>
<clipPath id="clip0_134_1037">
<rect width="593" height="35" fill="white"/>
</clipPath>
</defs>
</svg>
