<svg width="24" height="25" viewBox="0 0 24 25" fill="none" xmlns="http://www.w3.org/2000/svg">
<path d="M4 18.5907C4 17.5299 4.42143 16.5124 5.17157 15.7623C5.92172 15.0122 6.93913 14.5907 8 14.5907H16C17.0609 14.5907 18.0783 15.0122 18.8284 15.7623C19.5786 16.5124 20 17.5299 20 18.5907C20 19.1212 19.7893 19.6299 19.4142 20.0049C19.0391 20.38 18.5304 20.5907 18 20.5907H6C5.46957 20.5907 4.96086 20.38 4.58579 20.0049C4.21071 19.6299 4 19.1212 4 18.5907Z" stroke="#082038" stroke-linejoin="round"/>
<path d="M12 10.5907C13.6569 10.5907 15 9.24758 15 7.59073C15 5.93387 13.6569 4.59073 12 4.59073C10.3431 4.59073 9 5.93387 9 7.59073C9 9.24758 10.3431 10.5907 12 10.5907Z" stroke="#082038"/>
</svg>
