<svg width="22" height="21" viewBox="0 0 22 21" fill="none" xmlns="http://www.w3.org/2000/svg">
<path d="M4.6875 3.56014H5.6875V2.56014V1H6.8125V2.56014V3.56014H7.8125H14.0625H15.0625V2.56014V1H16.1875V2.56014V3.56014H17.1875H19.5312C20.4686 3.56014 20.875 4.14967 20.875 4.48025V5.40035H1V4.48025C1 4.14967 1.40642 3.56014 2.34375 3.56014H4.6875ZM1 18.561V8.68043H20.875V18.561C20.875 18.8916 20.4686 19.4811 19.5312 19.4811H2.34375C1.40642 19.4811 1 18.8916 1 18.561ZM15.4297 16.3609C16.1086 16.3609 17.0156 15.8743 17.0156 14.8808V13.2807C17.0156 12.2872 16.1086 11.8007 15.4297 11.8007H6.44531C5.76643 11.8007 4.85938 12.2872 4.85938 13.2807V14.8808C4.85938 15.8743 5.76643 16.3609 6.44531 16.3609H15.4297Z" stroke="#082038" stroke-width="2"/>
</svg>
