<svg width="24" height="24" viewBox="0 0 24 24" fill="none" xmlns="http://www.w3.org/2000/svg">
<path d="M7.91248 1.54172L6.38435 3.06656L7.38279 4.0589L8.90623 2.535L7.91248 1.54172ZM9.50154 3.13359L9.03747 3.59812L14.8031 9.36562L15.2672 8.90156L9.50154 3.13359ZM16.9734 3.98015C16.8 3.98015 16.6265 3.98484 16.4625 3.99422C14.9672 4.07765 13.8047 4.54547 12.7922 5.23125L15.8625 8.30625C16.0265 8.64844 18.3 12.8156 18.9328 14.0859C18.4781 13.7859 13.1484 11.0203 13.1484 11.0203L12.4312 10.3078V16.8844C13.5515 16.2 14.7797 15.5859 16.35 15.4219C18.1078 15.2344 20.264 15.6234 23.1094 16.9734V5.56406C20.6859 4.4864 18.7359 4.02234 17.1468 3.98484C17.0859 3.98484 17.0297 3.97969 16.9734 3.98015ZM6.15466 4.02844C4.70623 4.16859 2.97373 4.64062 0.892944 5.56406V16.9734C3.74294 15.6234 5.89685 15.2344 7.65466 15.4219C9.20154 15.6656 10.3781 16.1625 11.5734 16.8844V9.45C9.76404 7.64531 7.95935 5.83594 6.15466 4.02844ZM8.44216 4.19484L7.9781 4.65844L13.7437 10.425L14.2078 9.96094L8.44216 4.19484ZM15.75 9.61406L14.4609 10.9031L17.0437 12.1969L15.75 9.61406ZM6.7406 16.2516C5.2406 16.2656 3.37263 16.7109 0.892944 17.9391V19.9312C3.74294 18.5812 5.89685 18.1922 7.65466 18.3797C8.52654 18.4734 9.2906 18.7031 9.98904 19.0031C9.76873 19.2891 9.5531 19.6266 9.33747 20.0203H14.8312C14.55 19.6359 14.2781 19.2984 14.0015 19.0078C14.7047 18.7031 15.4734 18.4734 16.35 18.3797C18.1078 18.1922 20.264 18.5812 23.1094 19.9312V17.9391C20.6203 16.7062 18.7453 16.2562 17.2406 16.2516H17.0953C16.8703 16.2562 16.6547 16.2703 16.4437 16.2937C14.85 16.4625 13.65 17.1375 12.4312 17.9062C12.164 17.8687 11.8218 17.8219 11.5734 17.8641C10.2984 17.1047 8.84529 16.4391 7.5656 16.2937C7.3031 16.2656 7.02654 16.2516 6.7406 16.2516Z" fill="#082038"/>
</svg>
