<svg width="24" height="25" viewBox="0 0 24 25" fill="none" xmlns="http://www.w3.org/2000/svg">
<path d="M12 2.73114C12.3202 2.73101 12.6373 2.79396 12.9332 2.91639C13.229 3.03882 13.4979 3.21833 13.7244 3.44468C13.9509 3.67103 14.1306 3.93978 14.2532 4.23558C14.3758 4.53138 14.4389 4.84844 14.439 5.16864V19.7936C14.4389 20.1138 14.3758 20.4309 14.2532 20.7267C14.1306 21.0225 13.9509 21.2912 13.7244 21.5176C13.4979 21.7439 13.229 21.9235 12.9332 22.0459C12.6373 22.1683 12.3202 22.2313 12 22.2311C11.6798 22.2313 11.3627 22.1683 11.0668 22.0459C10.7709 21.9235 10.5021 21.7439 10.2756 21.5176C10.0491 21.2912 9.86943 21.0225 9.74681 20.7267C9.6242 20.4309 9.56106 20.1138 9.56099 19.7936V5.16864C9.56106 4.84844 9.6242 4.53138 9.74681 4.23558C9.86943 3.93978 10.0491 3.67103 10.2756 3.44468C10.5021 3.21833 10.7709 3.03882 11.0668 2.91639C11.3627 2.79396 11.6798 2.73101 12 2.73114ZM2.73249 3.17614C2.73243 3.11768 2.74389 3.05979 2.76623 3.00577C2.78857 2.95175 2.82135 2.90267 2.86269 2.86133C2.90402 2.82 2.9531 2.78722 3.00712 2.76488C3.06114 2.74254 3.11904 2.73107 3.17749 2.73114C4.35264 2.73141 5.47961 3.19821 6.31075 4.02898C7.14189 4.85974 7.6092 5.9865 7.60999 7.16164V21.7866C7.61006 21.8451 7.59859 21.903 7.57625 21.957C7.55391 22.011 7.52114 22.0601 7.4798 22.1014C7.43847 22.1428 7.38939 22.1756 7.33537 22.1979C7.28135 22.2202 7.22345 22.2317 7.16499 22.2316C5.98976 22.2315 4.86267 21.7648 4.03142 20.934C3.20017 20.1032 2.73279 18.9764 2.73199 17.8011L2.73249 3.17614ZM16.39 7.16114C16.3909 5.986 16.8584 4.85929 17.6896 4.02862C18.5208 3.19795 19.6478 2.73127 20.823 2.73114C20.8815 2.73107 20.9393 2.74254 20.9934 2.76488C21.0474 2.78722 21.0965 2.82 21.1378 2.86133C21.1791 2.90267 21.2119 2.95175 21.2343 3.00577C21.2566 3.05979 21.2681 3.11768 21.268 3.17614V17.8011C21.2671 18.9763 20.7996 20.103 19.9684 20.9337C19.1372 21.7643 18.0101 22.231 16.835 22.2311C16.7765 22.2312 16.7186 22.2197 16.6646 22.1974C16.6106 22.1751 16.5615 22.1423 16.5202 22.101C16.4789 22.0596 16.4461 22.0105 16.4237 21.9565C16.4014 21.9025 16.3899 21.8446 16.39 21.7861V7.16114Z" stroke="#082038" stroke-linecap="round" stroke-linejoin="round"/>
</svg>
