<svg xmlns="http://www.w3.org/2000/svg" width="18" height="20" viewBox="0 0 18 20" fill="none">
  <path d="M17.293 14.4979L17.2928 14.4977C17.2476 14.4505 17.1988 14.4006 17.1469 14.3477C16.7725 13.9657 16.2426 13.4251 15.8028 12.5594C15.3002 11.57 14.9253 10.1852 14.9253 8.125C14.9253 5.35017 12.9268 3.10772 10.1859 2.55417L9.78491 2.47318V2.06406V1.25C9.78491 0.84879 9.44647 0.5 9 0.5C8.55353 0.5 8.21509 0.84879 8.21509 1.25V2.06406V2.47318L7.81408 2.55417C5.07322 3.10772 3.07466 5.35017 3.07466 8.125C3.07466 10.1852 2.69977 11.57 2.19719 12.5594C1.75742 13.4251 1.22749 13.9657 0.853082 14.3477C0.80127 14.4006 0.752437 14.4504 0.707234 14.4976L17.293 14.4979ZM17.293 14.4979C17.4424 14.6538 17.5011 14.8293 17.5 14.9966L17.5 14.9969M17.293 14.4979L17.5 14.9969M17.5 14.9969C17.4976 15.379 17.1874 15.75 16.7102 15.75H1.28976C0.812916 15.75 0.50268 15.3793 0.500016 14.9966L17.5 14.9969ZM11.0046 18C10.7759 18.8556 9.97383 19.5 9 19.5C8.02617 19.5 7.22412 18.8556 6.99536 18H11.0046ZM0.500016 14.9966C0.498889 14.8295 0.557454 14.6542 0.707159 14.4977L0.500016 14.9966Z" stroke="#7C7C7C"/>
</svg>