<svg xmlns="http://www.w3.org/2000/svg" width="24" height="21" viewBox="0 0 24 21" fill="none">
  <path d="M2.25563 6.48185H20.7844V5.69717C20.7844 3.95904 19.8984 3.08154 18.135 3.08154H4.90501C3.14157 3.08154 2.25563 3.95904 2.25563 5.69717V6.48185ZM2.25563 14.6662C2.25563 16.4044 3.14157 17.2735 4.90501 17.2735H18.135C19.8984 17.2735 20.7844 16.4044 20.7844 14.6662V8.39717H2.25563V14.6662ZM5.07376 12.6075V11.0465C5.07376 10.574 5.40282 10.2366 5.90063 10.2366H7.96781C8.46563 10.2366 8.79469 10.574 8.79469 11.0465V12.6075C8.79469 13.0884 8.46563 13.4175 7.96781 13.4175H5.90063C5.40282 13.4175 5.07376 13.0884 5.07376 12.6075Z" fill="#407BFF"/>
</svg>