<svg width="24" height="24" viewBox="0 0 24 24" fill="none" xmlns="http://www.w3.org/2000/svg">
<path d="M21.1191 5.64469L12.1191 2.64469C12.0418 2.61882 11.9582 2.61882 11.8809 2.64469L2.88094 5.64469C2.80643 5.66964 2.74164 5.71736 2.69572 5.78111C2.6498 5.84487 2.62506 5.92143 2.625 6.00001V13.5C2.625 13.5995 2.66451 13.6948 2.73484 13.7652C2.80516 13.8355 2.90054 13.875 3 13.875C3.09946 13.875 3.19484 13.8355 3.26516 13.7652C3.33549 13.6948 3.375 13.5995 3.375 13.5V6.52032L7.48875 7.89188C6.98083 8.57411 6.63423 9.36263 6.47503 10.1981C6.31584 11.0336 6.34818 11.8944 6.56963 12.7156C6.79109 13.5368 7.19588 14.2971 7.75357 14.9392C8.31126 15.5814 9.00731 16.0888 9.78937 16.4231C7.83375 16.9613 6.13313 18.2166 4.93594 20.0466C4.88635 20.1298 4.8709 20.229 4.89283 20.3234C4.91476 20.4177 4.97236 20.5 5.05357 20.5528C5.13477 20.6056 5.23328 20.625 5.32844 20.6068C5.42361 20.5887 5.50804 20.5344 5.56406 20.4553C7.04719 18.18 9.39375 16.875 12 16.875C14.6062 16.875 16.9528 18.18 18.4359 20.4544C18.492 20.5334 18.5764 20.5877 18.6716 20.6059C18.7667 20.6241 18.8652 20.6047 18.9464 20.5519C19.0276 20.499 19.0852 20.4168 19.1072 20.3224C19.1291 20.2281 19.1136 20.1289 19.0641 20.0456C17.8716 18.2156 16.1663 16.9603 14.2106 16.4222C14.9927 16.0878 15.6887 15.5805 16.2464 14.9383C16.8041 14.2961 17.2089 13.5358 17.4304 12.7146C17.6518 11.8934 17.6842 11.0327 17.525 10.1972C17.3658 9.36169 17.0192 8.57317 16.5112 7.89094L21.1191 6.35438C21.1934 6.32929 21.258 6.28151 21.3038 6.21777C21.3495 6.15403 21.3742 6.07754 21.3742 5.99907C21.3742 5.9206 21.3495 5.84411 21.3038 5.78037C21.258 5.71663 21.1934 5.66885 21.1191 5.64376V5.64469ZM16.875 11.25C16.875 12.0323 16.6868 12.803 16.3262 13.4972C15.9657 14.1914 15.4433 14.7887 14.8034 15.2385C14.1634 15.6884 13.4246 15.9776 12.6493 16.0818C11.874 16.186 11.085 16.102 10.349 15.8371C9.61294 15.5722 8.95147 15.134 8.42043 14.5596C7.88939 13.9852 7.50437 13.2915 7.29789 12.537C7.09141 11.7825 7.06953 10.9893 7.23411 10.2246C7.39868 9.45984 7.74487 8.74592 8.24344 8.14313L11.8809 9.35532C11.9581 9.38154 12.0419 9.38154 12.1191 9.35532L15.7566 8.14313C16.4805 9.01652 16.8761 10.1156 16.875 11.25ZM12 8.60438L4.18594 6.00001L12 3.39563L19.8141 6.00001L12 8.60438Z" fill="#082038"/>
</svg>
