<svg width="24" height="24" viewBox="0 0 24 24" fill="none" xmlns="http://www.w3.org/2000/svg">
<path d="M11.6755 8.37137C12.7216 8.37137 13.5775 7.51548 13.5775 6.4694C13.5775 5.42333 12.7216 4.56744 11.6755 4.56744C10.6294 4.56744 9.77356 5.42333 9.77356 6.4694C9.77356 7.51548 10.6294 8.37137 11.6755 8.37137ZM11.6755 10.2733C10.6294 10.2733 9.77356 11.1292 9.77356 12.1753C9.77356 13.2214 10.6294 14.0772 11.6755 14.0772C12.7216 14.0772 13.5775 13.2214 13.5775 12.1753C13.5775 11.1292 12.7216 10.2733 11.6755 10.2733ZM11.6755 15.9792C10.6294 15.9792 9.77356 16.8351 9.77356 17.8812C9.77356 18.9272 10.6294 19.7831 11.6755 19.7831C12.7216 19.7831 13.5775 18.9272 13.5775 17.8812C13.5775 16.8351 12.7216 15.9792 11.6755 15.9792Z" fill="#C5C7CD"/>
</svg>
