<svg width="296" height="168" viewBox="0 0 296 168" fill="none" xmlns="http://www.w3.org/2000/svg">
<path d="M0 24H75V61H57.5L61 72.5L51 61H0V24Z" fill="#0966AB"/>
<rect x="15" y="34" width="18" height="18" rx="3" fill="#D9D9D9" fill-opacity="0.2"/>
<line x1="38" y1="38.5" x2="65" y2="38.5" stroke="#D9D9D9" stroke-opacity="0.2"/>
<line x1="38" y1="42.5" x2="51" y2="42.5" stroke="#D9D9D9" stroke-opacity="0.2"/>
<path d="M221 0H296V37H278.5H245L235 48L237 37H221V0Z" fill="#EC9E86"/>
<rect x="268" y="6" width="18" height="18" rx="3" fill="#D9D9D9" fill-opacity="0.2"/>
<line x1="259" y1="13.5" x2="229" y2="13.5" stroke="#CFC8C8" stroke-opacity="0.2"/>
<line x1="253" y1="17.5" x2="229" y2="17.5" stroke="#CFC8C8" stroke-opacity="0.2"/>
<line x1="255" y1="21.5" x2="229" y2="21.5" stroke="#CFC8C8" stroke-opacity="0.2"/>
<path d="M148 167.254C203.228 167.254 248 164.64 248 161.416C248 158.191 203.228 155.577 148 155.577C92.7715 155.577 48 158.191 48 161.416C48 164.64 92.7715 167.254 148 167.254Z" fill="#F5F5F5"/>
<path d="M149.994 13H134.188C132.749 13 131.369 13.5708 130.35 14.5872C129.332 15.6036 128.759 16.9825 128.756 18.4213V33.7673C128.755 34.4813 128.894 35.1886 129.166 35.8486C129.439 36.5086 129.839 37.1084 130.343 37.6136C130.848 38.1188 131.447 38.5195 132.107 38.7927C132.766 39.066 133.474 39.2064 134.188 39.2059H144.621L148.366 44.939V39.2059H149.994C150.707 39.2064 151.413 39.0663 152.072 38.7937C152.731 38.521 153.329 38.1212 153.834 37.617C154.338 37.1129 154.738 36.5143 155.01 35.8555C155.283 35.1967 155.423 34.4907 155.423 33.7777V18.4213C155.421 16.9829 154.848 15.6039 153.83 14.5874C152.812 13.571 151.433 13 149.994 13Z" fill="#407BFF"/>
<path opacity="0.7" d="M149.994 13H134.188C132.749 13 131.369 13.5708 130.35 14.5872C129.332 15.6036 128.759 16.9825 128.756 18.4213V33.7673C128.755 34.4813 128.894 35.1886 129.166 35.8486C129.439 36.5086 129.839 37.1084 130.343 37.6136C130.848 38.1188 131.447 38.5195 132.107 38.7927C132.766 39.066 133.474 39.2064 134.188 39.2059H144.621L148.366 44.939V39.2059H149.994C150.707 39.2064 151.413 39.0663 152.072 38.7937C152.731 38.521 153.329 38.1212 153.834 37.617C154.338 37.1129 154.738 36.5143 155.01 35.8555C155.283 35.1967 155.423 34.4907 155.423 33.7777V18.4213C155.421 16.9829 154.848 15.6039 153.83 14.5874C152.812 13.571 151.433 13 149.994 13Z" fill="white"/>
<path d="M140.42 36.0397C139.175 36.0248 137.949 35.7338 136.831 35.1876C135.317 34.467 134.305 33.4243 133.983 32.2777C133.865 32.2223 133.748 32.1599 133.637 32.0941C133.042 31.7081 132.537 31.1993 132.155 30.6018C131.773 30.0043 131.524 29.332 131.423 28.63C131.112 26.6005 131.427 24.5241 132.327 22.6787C132.242 22.2221 132.214 21.7566 132.244 21.293C132.341 19.658 133.155 18.1961 134.371 17.4825C135.161 17.0285 136.098 16.904 136.98 17.1361C138.265 16.2601 139.756 15.7336 141.306 15.6085C142.834 15.4996 144.353 15.9218 145.605 16.8036C146.306 16.6015 147.045 16.5693 147.761 16.7096C148.476 16.85 149.148 17.1589 149.721 17.6107C150.667 18.4252 151.283 19.5574 151.453 20.7942C151.539 21.4164 151.533 22.0478 151.435 22.6683C152.01 23.353 152.427 24.1558 152.657 25.0196C152.887 25.8834 152.924 26.7872 152.766 27.667C152.408 29.122 151.537 30.399 150.313 31.2627C150.455 31.6093 150.518 31.9834 150.497 32.3574C150.407 33.5941 149.371 34.4947 148.383 34.8377C147.338 35.14 146.232 35.1686 145.172 34.9208C144.435 35.3893 143.576 35.6303 142.702 35.6136C141.976 35.9 141.201 36.0447 140.42 36.0397ZM134.485 32.4786C135.002 33.7361 136.37 34.5121 137.007 34.8134C138.937 35.7314 140.974 35.8769 142.55 35.2326C142.559 35.2291 142.569 35.2291 142.578 35.2326C142.716 35.1737 142.851 35.1113 142.983 35.0421C143.243 34.9008 143.492 34.7399 143.728 34.5606C143.22 34.3819 142.749 34.1093 142.342 33.7569C142.177 33.6084 142.026 33.4449 141.892 33.2684C140.842 33.2584 139.802 33.0746 138.812 32.7246C138.592 32.6433 138.375 32.5509 138.164 32.4475C136.965 32.8024 135.69 32.8132 134.485 32.4786ZM144.206 34.7026C144.032 34.8512 143.849 34.9889 143.658 35.1148C143.979 35.0526 144.289 34.9466 144.58 34.7996L144.206 34.7026ZM145.591 34.5709C146.473 34.7443 147.383 34.7015 148.245 34.4462C149.104 34.1483 150.008 33.3758 150.081 32.3262C150.1 32.0484 150.06 31.7697 149.963 31.5087C149.707 31.6765 149.442 31.8303 149.17 31.9694C148.317 32.3898 147.412 32.695 146.478 32.877C146.354 33.5168 146.044 34.1058 145.588 34.5709H145.591ZM144.573 34.37C144.746 34.4116 144.919 34.4497 145.075 34.4809C145.551 34.0928 145.886 33.56 146.031 32.9636L145.685 33.0225C145.36 33.5043 144.986 33.9512 144.569 34.3562L144.573 34.37ZM142.443 33.265C142.501 33.3239 142.56 33.3828 142.623 33.4382C143.058 33.8063 143.565 34.0789 144.112 34.2384C144.485 33.8925 144.822 33.5095 145.117 33.0952C144.604 33.1576 144.112 33.1957 143.655 33.2234C143.264 33.2442 142.858 33.2615 142.439 33.265H142.443ZM142.096 32.8493C142.623 32.8493 143.135 32.8493 143.62 32.8077C144.175 32.7765 144.784 32.728 145.422 32.638C145.605 32.3505 145.785 32.0422 145.962 31.7096L146.111 31.4221C146.025 30.8677 145.865 30.3272 145.636 29.8147C144.935 30.0899 144.2 30.2682 143.451 30.3447C142.789 30.5942 142.141 30.8817 141.5 31.1623L141.389 31.2142C141.529 31.7969 141.771 32.3504 142.103 32.8493H142.096ZM138.771 32.2569L138.951 32.3262C139.801 32.6294 140.692 32.8 141.594 32.832C141.333 32.3768 141.135 31.8886 141.005 31.3805C140.278 31.7097 139.534 32.0022 138.778 32.2569H138.771ZM146.139 32.2569C146.08 32.3609 146.021 32.4648 145.962 32.5618L146.111 32.5375C146.109 32.5179 146.109 32.4982 146.111 32.4786C146.135 32.3955 146.142 32.3227 146.146 32.2465L146.139 32.2569ZM146.537 31.5052C146.572 31.8195 146.572 32.1366 146.537 32.4509C147.377 32.2724 148.192 31.9896 148.962 31.6091C149.24 31.4694 149.508 31.312 149.766 31.138C149.49 30.663 149.082 30.2788 148.591 30.033C148.184 29.8362 147.746 29.7131 147.296 29.6692C147.075 30.2918 146.82 30.9013 146.53 31.4948L146.537 31.5052ZM134.33 31.9902C135.386 32.3687 136.532 32.4241 137.621 32.1495C137.017 31.7902 136.502 31.3004 136.112 30.7159C135.722 30.1315 135.468 29.4673 135.369 28.772C134.707 29.7143 134.174 30.6946 134.295 31.765C134.304 31.8375 134.318 31.9092 134.337 31.9798L134.33 31.9902ZM135.715 28.2801C135.763 29.066 136.02 29.8249 136.459 30.4779C136.899 31.1309 137.506 31.6543 138.216 31.9937C139.141 31.7108 140.045 31.3635 140.922 30.9544C140.866 30.6946 140.821 30.4279 140.79 30.1611C140.294 30.0445 139.811 29.8773 139.349 29.6623C138.715 29.3609 137.233 28.5018 137.181 27.0227V26.8772C137.039 26.8772 136.893 26.8772 136.748 26.8772C136.547 27.1751 136.328 27.4765 136.1 27.7848L135.972 27.9545L135.715 28.2801ZM132.466 23.3542C131.761 24.9968 131.533 26.8048 131.808 28.5711C131.902 29.2132 132.132 29.828 132.48 30.3754C132.829 30.9228 133.289 31.3904 133.831 31.7477L133.865 31.7685C133.734 30.4036 134.531 29.1843 135.338 28.0965L135.615 27.7259L135.743 27.5561C135.923 27.3171 136.089 27.0781 136.259 26.8425C135.499 26.7145 134.784 26.3964 134.181 25.9176C133.37 25.2493 132.778 24.3525 132.483 23.3438L132.466 23.3542ZM147.431 29.2674C147.898 29.3221 148.352 29.4556 148.775 29.6623C149.326 29.9389 149.788 30.3666 150.105 30.8955C151.219 30.0941 152.011 28.9227 152.339 27.5908C152.476 26.8309 152.455 26.0509 152.276 25.2998C152.097 24.5487 151.765 23.8426 151.3 23.226C151.132 23.9348 150.878 24.6201 150.542 25.2664C149.841 26.6341 148.832 27.8201 147.594 28.7305C147.569 28.9071 147.504 29.0838 147.448 29.257L147.431 29.2674ZM141.195 30.2789C141.22 30.4556 141.251 30.6253 141.286 30.8124L141.324 30.7951L142.245 30.3932C141.899 30.372 141.554 30.3303 141.213 30.2685L141.195 30.2789ZM146.014 29.6831C146.171 30.0454 146.3 30.4195 146.399 30.802C146.568 30.421 146.724 30.033 146.866 29.6415C146.588 29.6343 146.309 29.6447 146.031 29.6727L146.014 29.6831ZM141.164 29.8494C141.887 29.987 142.625 30.0208 143.357 29.9498C144.032 29.693 144.727 29.4948 145.436 29.3575C145.14 28.7863 144.792 28.2436 144.396 27.7363C143.37 28.0953 142.27 28.1882 141.199 28.0065C141.124 28.6192 141.114 29.238 141.168 29.8528L141.164 29.8494ZM137.589 26.8737C137.586 26.9279 137.586 26.9823 137.589 27.0365C137.634 28.3217 139.079 29.115 139.522 29.3124C139.913 29.4989 140.322 29.6462 140.742 29.7524C140.7 29.1425 140.718 28.5299 140.794 27.9233C140.359 27.8201 139.937 27.6691 139.536 27.473C139.115 27.2683 138.722 27.0085 138.369 26.7005C138.116 26.7788 137.856 26.8333 137.593 26.8633L137.589 26.8737ZM144.795 27.5665C145.195 28.1027 145.542 28.6757 145.834 29.2778C146.32 29.0554 146.784 28.7875 147.22 28.4776C147.802 26.3921 147.975 24.2134 147.729 22.0621C147.67 21.5189 147.573 20.9806 147.438 20.4513C146.429 20.0985 145.383 19.8659 144.32 19.7585C143.86 19.7079 143.397 19.6813 142.934 19.6788C142.571 20.4217 142.258 21.1878 141.996 21.972L141.947 22.1036C141.665 22.9457 141.301 23.7579 140.859 24.5285C141.152 24.6008 141.438 24.7006 141.712 24.8264L141.836 24.5978C142.259 23.7143 142.95 22.9868 143.811 22.5193C144.26 22.2828 144.771 22.1892 145.275 22.2511C145.779 22.313 146.252 22.5275 146.631 22.8658C146.946 23.22 147.15 23.6588 147.218 24.1279C147.287 24.5971 147.216 25.076 147.015 25.5054C146.609 26.3275 145.938 26.9889 145.11 27.3829C145.027 27.4626 144.912 27.518 144.798 27.5665H144.795ZM146.873 29.2154H147.029C147.029 29.1773 147.053 29.1358 147.067 29.0942C147.001 29.1392 146.935 29.1773 146.877 29.2154H146.873ZM147.94 20.6349C148.045 21.0918 148.122 21.5545 148.172 22.0205C148.404 24.0469 148.274 26.0984 147.788 28.0792C148.784 27.2504 149.601 26.2273 150.188 25.0724C150.565 24.3573 150.833 23.5903 150.985 22.7965C150.751 22.5167 150.494 22.2571 150.216 22.0205C149.533 21.4431 148.764 20.9757 147.937 20.6349H147.94ZM141.265 27.5873C142.222 27.7512 143.206 27.6798 144.13 27.3795C143.72 26.8807 143.269 26.4172 142.782 25.9938C142.518 25.767 142.234 25.5653 141.933 25.3911C141.614 26.0906 141.388 26.829 141.261 27.5873H141.265ZM138.812 26.5204C139.095 26.7423 139.4 26.9339 139.723 27.092C140.086 27.269 140.467 27.4061 140.859 27.5007C140.991 26.7096 141.223 25.9388 141.552 25.2075C141.261 25.0699 140.954 24.9687 140.638 24.9061C140.239 25.5009 139.712 25.9991 139.096 26.3645C139.006 26.4199 138.909 26.4719 138.809 26.5204H138.812ZM142.113 25.0239C142.446 25.2128 142.76 25.4344 143.049 25.6855C143.592 26.1523 144.09 26.6684 144.538 27.2271C144.679 27.1706 144.816 27.107 144.951 27.0365C145.694 26.6878 146.298 26.0982 146.665 25.3634C146.833 25.0099 146.894 24.6154 146.841 24.2279C146.788 23.8404 146.623 23.4767 146.367 23.181C145.754 22.5609 144.722 22.5782 144.022 22.9142C143.241 23.3417 142.614 24.0032 142.228 24.8056L142.113 25.0239ZM137.014 26.4823C137.087 26.4823 137.16 26.4823 137.233 26.4823C137.293 26.2205 137.399 25.9718 137.548 25.7479L137.506 25.6855C137.35 25.9453 137.177 26.2121 137.011 26.4823H137.014ZM132.757 22.7272C132.973 23.8456 133.572 24.8537 134.451 25.5781C135.051 26.0532 135.77 26.355 136.529 26.4511C136.8 26.0423 137.045 25.644 137.264 25.2525C137.137 24.9778 137.046 24.6879 136.994 24.39C136.748 22.9662 137.458 21.4351 138.76 20.4582C138.81 19.7377 138.618 19.0213 138.216 18.4213C137.919 18.0324 137.509 17.7445 137.042 17.5969C136.716 17.8186 136.422 18.0472 136.162 18.262C134.722 19.4916 133.56 21.0138 132.753 22.7272H132.757ZM137.814 26.1151C137.759 26.2171 137.713 26.3237 137.676 26.4338C137.797 26.4338 137.915 26.3887 138.022 26.361C137.95 26.2814 137.87 26.1982 137.811 26.1151H137.814ZM138.057 25.7687C138.183 25.932 138.321 26.086 138.469 26.2294C138.618 26.17 138.763 26.1006 138.902 26.0215C139.4 25.7238 139.834 25.3292 140.177 24.8611C139.987 24.8511 139.797 24.8604 139.609 24.8888C139.004 24.9836 138.453 25.2906 138.054 25.7548L138.057 25.7687ZM137.742 25.2768L137.818 25.4084C138.274 24.9113 138.884 24.5829 139.55 24.4766C139.849 24.4366 140.152 24.4366 140.451 24.4766C140.92 23.6914 141.302 22.8574 141.59 21.9893L141.635 21.8542C141.886 21.1267 142.172 20.4122 142.494 19.7134C141.484 19.7338 140.491 19.985 139.592 20.4478C139.449 20.5241 139.311 20.6097 139.179 20.7041C139.179 20.8912 139.148 21.0887 139.12 21.2896C138.906 22.6874 138.438 24.0341 137.738 25.2629L137.742 25.2768ZM138.732 21.0506C137.835 21.8646 137.194 23.0771 137.413 24.3345C137.44 24.4898 137.479 24.6426 137.53 24.7918C138.125 23.6797 138.524 22.4741 138.712 21.2272L138.732 21.0506ZM147.808 20.1534C148.781 20.5167 149.685 21.0439 150.479 21.7122C150.681 21.886 150.874 22.0698 151.058 22.263C151.104 21.8017 151.094 21.3365 151.03 20.8774C150.877 19.7437 150.317 18.7044 149.454 17.9537C148.974 17.5743 148.416 17.3056 147.82 17.1667C147.224 17.0277 146.605 17.0221 146.007 17.15C146.25 17.3603 146.474 17.5922 146.676 17.8428C147.202 18.531 147.587 19.3161 147.808 20.1534ZM136.096 17.4514C135.564 17.4495 135.04 17.5894 134.579 17.8567C133.481 18.5044 132.743 19.8381 132.653 21.3415C132.637 21.5722 132.637 21.8037 132.653 22.0344C133.466 20.4846 134.568 19.1043 135.899 17.9675C136.086 17.8151 136.287 17.6557 136.505 17.4964C136.371 17.4664 136.234 17.4467 136.096 17.4375V17.4514ZM137.482 17.3301C137.911 17.5147 138.283 17.8086 138.563 18.1823C138.973 18.7729 139.192 19.4756 139.19 20.1949C139.256 20.1534 139.325 20.1153 139.398 20.0771C140.426 19.5528 141.565 19.2809 142.72 19.2839C143.08 18.6064 143.575 18.0099 144.175 17.531C144.465 17.3096 144.783 17.1267 145.12 16.9872C143.993 16.2713 142.666 15.934 141.334 16.0242C139.961 16.1326 138.636 16.5763 137.475 17.3163L137.482 17.3301ZM143.201 19.2839C143.589 19.2839 143.991 19.3185 144.414 19.3635C145.404 19.4669 146.382 19.6724 147.33 19.9767C147.119 19.2993 146.79 18.6647 146.357 18.1026C146.115 17.7949 145.835 17.518 145.526 17.2782C145.129 17.4085 144.758 17.6053 144.427 17.8601C143.93 18.2471 143.512 18.7257 143.194 19.27L143.201 19.2839Z" fill="#263238"/>
<path d="M167.227 109.154C154.333 106.06 139.511 99.1228 132.192 87.4925C131.565 86.5496 131.084 85.5165 130.769 84.4289C127.901 72.9843 143.704 66.2382 152.095 62.9837C155.088 61.8542 158.14 60.8917 161.239 60.1007L163.385 65.9132C158.227 68.7344 143.049 76.6925 141.429 81.7366C141.486 81.7366 141.512 81.4272 141.481 81.2209C141.477 81.1632 141.467 81.1061 141.45 81.0507C141.45 81.0507 141.45 81.0507 141.45 81.0197C147.721 89.3337 159.311 93.8002 169.058 96.7039L169.956 96.9515L167.222 109.149L167.227 109.154Z" fill="#EBC0BB"/>
<path d="M167.006 116.571L163.772 114.632L161.776 113.435L145.72 103.816L148.975 86.7137C148.975 86.7137 158.362 92.4695 163.174 94.0993C163.174 94.0993 166.118 96.8638 167.083 102.434C167.235 103.307 167.33 104.189 167.367 105.075C167.367 105.59 167.408 106.106 167.418 106.622C167.558 109.944 167.42 113.272 167.006 116.571Z" fill="#407BFF"/>
<path opacity="0.2" d="M167.006 116.571L163.772 114.632C164.396 111.537 166.036 108.633 167.418 106.606C167.559 109.934 167.421 113.267 167.006 116.571Z" fill="black"/>
<path d="M165.2 50.4044C165.169 50.4036 165.139 50.3918 165.115 50.371C165.092 50.3503 165.076 50.322 165.072 50.291C165.072 50.291 164.705 47.5781 162.936 46.5672C162.908 46.5491 162.888 46.521 162.879 46.4886C162.87 46.4561 162.874 46.4216 162.89 46.3918C162.907 46.3626 162.935 46.3413 162.968 46.3326C163.001 46.3239 163.036 46.3285 163.065 46.3454C164.948 47.4182 165.314 50.1414 165.329 50.26C165.332 50.294 165.322 50.3279 165.301 50.3547C165.28 50.3815 165.25 50.3993 165.216 50.4044H165.2Z" fill="#263238"/>
<path d="M216.596 151.72C217.034 137.816 216.089 123.903 213.774 110.186C213.233 106.962 212.655 103.997 212.083 101.371C211.022 96.2046 209.657 91.1052 207.993 86.0999C207.993 86.0999 193.742 96.4151 182.324 96.4151C175.879 96.4009 169.458 95.6165 163.199 94.0787C167.537 114.786 168.223 139.589 168.269 151.699L216.596 151.72Z" fill="#407BFF"/>
<path d="M158.913 63.4892L158.64 53.9838L167.367 56.6863C167.367 56.6863 166.196 65.6399 163.38 65.8358L158.913 63.4892Z" fill="#EEC1BB"/>
<path d="M164.85 48.1712L170.425 51.6267L167.367 56.6863L158.64 53.9838L164.85 48.1712Z" fill="#EEC1BB"/>
<path d="M177.517 92.1239C178.708 91.1388 191.081 87.7967 192.695 88.3331C194.31 88.8695 187.945 100.489 181.756 98.3491C175.567 96.2087 176.129 93.2637 177.517 92.1239Z" fill="#407BFF"/>
<path d="M193.779 91.1182C193.779 91.1182 193.583 96.1726 183.427 98.8546C182.448 99.9099 181.667 101.133 181.122 102.465C180.611 101.558 180.212 100.591 179.936 99.5869C170.425 101.103 175.696 95.4093 175.696 95.4093C178.925 93.7641 180.121 91.7217 180.23 89.5297C180.255 88.2742 180.038 87.0256 179.59 85.8524C179.287 84.9713 178.928 84.11 178.517 83.2736L180.018 81.2518L187.806 73.763C187.927 76.1125 188.197 78.4519 188.616 80.767C189.462 85.2334 191.014 89.4575 193.779 91.1182Z" fill="#EEC1BB"/>
<path opacity="0.2" d="M188.616 80.7567C187.136 84.2432 183.685 87.6214 180.23 89.5245C180.255 88.269 180.038 87.0204 179.59 85.8472C179.287 84.9661 178.928 84.1048 178.517 83.2684L180.018 81.2466L187.806 73.7579C187.927 76.1056 188.197 78.4433 188.616 80.7567Z" fill="black"/>
<path d="M183.427 98.8339L187.636 102.96C187.636 102.96 196.254 98.4781 197.868 91.6856L192.711 88.3383C192.711 88.3383 191.009 94.7904 183.427 98.8339Z" fill="#407BFF"/>
<path d="M179.936 99.5766L174.608 104.559C174.608 104.559 172.761 99.4683 173.308 95.6311L177.517 92.1085C177.517 92.1085 177.145 96.5595 179.936 99.5766Z" fill="#407BFF"/>
<path opacity="0.2" d="M183.427 98.8339L187.636 102.96C187.636 102.96 196.254 98.4781 197.868 91.6856L192.711 88.3383C192.711 88.3383 191.009 94.7904 183.427 98.8339Z" fill="white"/>
<path opacity="0.2" d="M179.936 99.5766L174.608 104.559C174.608 104.559 172.761 99.4683 173.308 95.6311L177.517 92.1085C177.517 92.1085 177.145 96.5595 179.936 99.5766Z" fill="white"/>
<path d="M167.934 58.4089C164.432 61.1786 165.01 72.8501 170.631 73.9796C176.253 75.1091 174.561 53.1689 167.934 58.4089Z" fill="#263238"/>
<path d="M188.936 65.939C189.188 74.1447 189.75 78.9206 186.037 83.6191C180.457 90.685 170.11 88.23 167.429 80.3492C165.015 73.2524 165.01 61.0238 172.648 56.7792C180.173 52.5912 188.688 57.7333 188.936 65.939Z" fill="#EEC1BB"/>
<path d="M183.979 61.9058C183.133 66.594 186.295 72.8604 188.858 73.4329C191.953 74.8977 195.682 69.5029 196.197 66.7281C196.656 64.2473 195.965 58.8525 194.366 56.7895L183.979 61.9058Z" fill="#263238"/>
<path d="M192.757 73.6134C191.88 75.448 190.395 76.9223 188.554 77.7859C186.202 78.8174 185.083 76.677 185.779 74.1756C186.408 71.9218 188.389 68.6622 190.725 68.6931C193.062 68.7241 193.871 71.3029 192.757 73.6134Z" fill="#EEC1BB"/>
<path d="M171.792 70.751C171.792 70.751 170.642 74.7688 169.161 76.8215C170.43 77.7705 172.37 77.0175 172.37 77.0175L171.792 70.751Z" fill="#D4827D"/>
<path d="M175.969 65.8255C175.905 65.8418 175.846 65.8757 175.799 65.9235C175.728 65.9975 175.688 66.0965 175.688 66.1994C175.688 66.3024 175.728 66.4013 175.799 66.4754C176.22 66.925 176.745 67.2639 177.328 67.4618C177.911 67.6598 178.534 67.7107 179.141 67.61C179.192 67.6004 179.24 67.5805 179.283 67.5515C179.325 67.5225 179.361 67.4851 179.389 67.4416C179.416 67.3981 179.435 67.3494 179.443 67.2986C179.451 67.2477 179.448 67.1957 179.435 67.1459C179.424 67.096 179.404 67.0487 179.374 67.0069C179.345 66.9651 179.308 66.9295 179.265 66.9021C179.221 66.8748 179.173 66.8563 179.123 66.8476C179.073 66.839 179.021 66.8405 178.971 66.8519C178.495 66.9192 178.009 66.8704 177.556 66.7097C177.102 66.5489 176.694 66.281 176.367 65.9287C176.316 65.8774 176.252 65.8408 176.182 65.8227C176.112 65.8045 176.039 65.8055 175.969 65.8255Z" fill="#263238"/>
<path d="M169.507 65.8771C169.443 65.8739 169.379 65.8869 169.322 65.9148C169.264 65.9427 169.214 65.9848 169.177 66.037C168.899 66.453 168.528 66.7993 168.094 67.0489C167.661 67.2985 167.175 67.4446 166.676 67.476C166.572 67.476 166.472 67.5172 166.398 67.5908C166.325 67.6643 166.284 67.764 166.284 67.8679C166.284 67.9719 166.325 68.0716 166.398 68.1451C166.472 68.2186 166.572 68.2599 166.676 68.2599C167.302 68.2306 167.912 68.056 168.459 67.7498C169.006 67.4437 169.474 67.0144 169.827 66.496C169.87 66.4389 169.896 66.371 169.903 66.2999C169.909 66.2288 169.896 66.1573 169.865 66.0932C169.833 66.0291 169.784 65.975 169.724 65.9369C169.664 65.8987 169.594 65.8781 169.523 65.8771H169.507Z" fill="#263238"/>
<path d="M177.914 70.4828C177.887 70.483 177.86 70.4777 177.835 70.467C177.81 70.4564 177.788 70.4407 177.769 70.4209C177.527 70.1528 176.738 70.1528 176.274 70.2146C176.234 70.2203 176.193 70.2135 176.157 70.195C176.121 70.1765 176.091 70.1474 176.073 70.1115C176.055 70.0766 176.048 70.0371 176.054 69.9983C176.059 69.9596 176.077 69.9234 176.104 69.8949C176.311 69.6382 176.571 69.4296 176.867 69.2835C177.162 69.1375 177.486 69.0575 177.816 69.049C177.862 69.0566 177.903 69.0801 177.934 69.1156C177.964 69.151 177.98 69.196 177.98 69.2424C177.98 69.2889 177.964 69.3339 177.934 69.3693C177.903 69.4048 177.862 69.4283 177.816 69.4359C177.443 69.4407 177.081 69.5654 176.784 69.7917C177.241 69.7472 177.697 69.8801 178.058 70.1631C178.094 70.1988 178.113 70.247 178.113 70.2972C178.113 70.3474 178.094 70.3955 178.058 70.4313C178.039 70.4499 178.017 70.4642 177.992 70.4731C177.967 70.4821 177.94 70.4854 177.914 70.4828Z" fill="#263238"/>
<path d="M167.862 71.5505C167.827 71.5499 167.794 71.5411 167.764 71.5247C167.72 71.4988 167.688 71.4569 167.674 71.4078C167.661 71.3587 167.667 71.3063 167.692 71.2616C167.987 70.9129 168.403 70.6897 168.857 70.6376C168.528 70.4805 168.158 70.4317 167.8 70.4983C167.75 70.5096 167.698 70.5014 167.654 70.4756C167.61 70.4497 167.577 70.4081 167.563 70.3591C167.55 70.3091 167.558 70.2563 167.584 70.2119C167.61 70.1675 167.652 70.1351 167.702 70.1218C168.026 70.0622 168.36 70.0737 168.68 70.1556C168.999 70.2376 169.298 70.3879 169.553 70.5963C169.585 70.6193 169.608 70.6516 169.62 70.6886C169.632 70.7257 169.632 70.7655 169.62 70.8026C169.611 70.8415 169.589 70.8764 169.559 70.9023C169.528 70.9282 169.49 70.9439 169.45 70.947C168.996 70.978 168.207 71.143 168.027 71.4628C168.009 71.4903 167.985 71.5128 167.956 71.5282C167.927 71.5436 167.894 71.5512 167.862 71.5505Z" fill="#263238"/>
<path d="M180.838 78.3532C180.798 78.6849 180.652 78.9947 180.422 79.2364C180.191 79.4781 179.888 79.6387 179.559 79.6942C177.95 80.2097 176.395 80.8817 174.917 81.7005L174.876 81.6283C174.549 81.0003 174.115 80.4347 173.592 79.9572C173.51 79.8898 173.415 79.839 173.313 79.8077V79.7767C173.556 79.4467 175.737 76.5532 179.224 76.7234C179.597 76.7294 179.958 76.854 180.255 77.0793C180.45 77.2273 180.605 77.421 180.706 77.6433C180.808 77.8655 180.853 78.1093 180.838 78.3532Z" fill="white"/>
<path opacity="0.2" d="M173.329 79.7664L173.587 79.947C173.504 79.8795 173.41 79.8287 173.308 79.7974L173.329 79.7664Z" fill="black"/>
<path opacity="0.1" d="M180.616 78.0954C179.78 78.1887 178.955 78.3614 178.151 78.6111L178.213 79.0289L177.965 78.673C177.295 78.895 176.646 79.1763 176.026 79.5137L176.171 79.8592L175.892 79.5911C175.374 79.8902 174.884 80.2354 174.427 80.6226L174.871 81.6231C174.544 80.9952 174.109 80.4295 173.587 79.9521L174.278 80.4266C174.669 80.0055 175.117 79.641 175.608 79.3435L175.366 78.771L175.825 79.2146C176.435 78.856 177.082 78.5638 177.754 78.3429L177.563 77.8272L178.079 78.2243C178.823 78.0046 179.586 77.8544 180.359 77.7756L180.235 77.0742C180.432 77.2226 180.589 77.4177 180.691 77.6419C180.794 77.8661 180.839 78.1124 180.823 78.3584L180.616 78.0954Z" fill="black"/>
<path d="M195.63 64.8456C195.63 64.8456 201.546 57.2073 195.228 54.7058C195.228 54.7058 193.588 49.2388 190.56 47.9236C187.533 46.6085 185.093 49.703 185.093 49.703C184.549 48.5162 183.663 47.5192 182.548 46.84C181.434 46.1608 180.141 45.8305 178.837 45.8916C174.231 46.0772 173.587 49.899 173.587 49.899C173.587 49.899 170.049 48.3827 167.006 50.4147C166.596 50.654 166.238 50.9724 165.952 51.3515C165.667 51.7305 165.46 52.1626 165.343 52.6225C165.227 53.0824 165.203 53.561 165.273 54.0302C165.343 54.4995 165.506 54.9501 165.752 55.3557C165.752 55.3557 161.193 57.8571 162.575 61.029C163.957 64.2009 167.733 62.6743 167.733 62.6743C167.733 62.6743 167.63 64.4536 169.863 64.5207C172.096 64.5877 175.712 62.0863 175.712 62.0863C176.075 62.542 176.538 62.9092 177.064 63.1602C177.59 63.4113 178.166 63.5396 178.749 63.5356C180.859 63.5975 182.808 62.1482 182.808 62.1482C183.134 62.8889 183.618 63.5496 184.225 64.0841C184.833 64.6185 185.55 65.014 186.326 65.2427C188.936 65.939 195.63 64.8456 195.63 64.8456Z" fill="#263238"/>
<path d="M200.122 55.0462L196.641 46.201L189.678 52.1116C189.678 52.1116 194.268 59.884 196.94 58.9608L200.122 55.0462Z" fill="#EEC1BB"/>
<path d="M188.652 43.2664L184.877 48.6354L189.678 52.0909L196.641 46.1804L188.652 43.2664Z" fill="#EEC1BB"/>
<path d="M173.587 51.4772H173.561C173.544 51.4741 173.529 51.4678 173.515 51.4585C173.501 51.4493 173.489 51.4373 173.48 51.4233C173.471 51.4094 173.465 51.3937 173.462 51.3772C173.459 51.3608 173.459 51.3439 173.463 51.3276C173.587 50.5208 173.487 49.6956 173.174 48.9417C172.861 48.1878 172.347 47.5342 171.689 47.052C171.647 47.3085 171.549 47.5525 171.401 47.7658C171.253 47.9792 171.058 48.1565 170.833 48.2847C170.767 48.3437 170.69 48.3889 170.607 48.4178C170.524 48.4467 170.436 48.4586 170.348 48.4528C170.26 48.4471 170.174 48.4237 170.095 48.3842C170.016 48.3447 169.946 48.2898 169.889 48.2228C169.732 47.9906 169.656 47.7131 169.673 47.4334C169.689 47.1537 169.798 46.8873 169.982 46.6755C170.152 46.4898 170.606 46.1597 171.446 46.5878C171.335 45.827 170.941 45.1362 170.343 44.6537C170.321 44.6307 170.308 44.6005 170.307 44.5689C170.306 44.5372 170.317 44.5063 170.338 44.4821C170.358 44.4579 170.387 44.442 170.418 44.4375C170.449 44.433 170.481 44.4402 170.508 44.4577C170.854 44.7344 171.14 45.0798 171.347 45.472C171.553 45.8643 171.677 46.2951 171.709 46.7374L171.833 46.8199C174.242 48.4961 173.721 51.3328 173.716 51.3637C173.711 51.3947 173.695 51.4231 173.672 51.4438C173.648 51.4645 173.618 51.4764 173.587 51.4772ZM170.693 46.6446C170.597 46.6411 170.501 46.6586 170.412 46.696C170.322 46.7334 170.243 46.7898 170.178 46.8612C170.042 47.0267 169.961 47.2303 169.946 47.4437C169.932 47.6572 169.983 47.87 170.095 48.0526C170.27 48.264 170.523 48.1712 170.698 48.0526C170.912 47.9359 171.093 47.7676 171.224 47.5631C171.356 47.3586 171.434 47.1243 171.451 46.8818C171.224 46.7381 170.962 46.6563 170.693 46.6446Z" fill="#263238"/>
<path d="M166.619 55.7941C165.28 55.8052 163.974 55.3819 162.896 54.5878C161.818 53.7936 161.027 52.6714 160.641 51.3895C160.636 51.3733 160.633 51.3561 160.634 51.3389C160.635 51.3217 160.64 51.305 160.648 51.2896C160.655 51.2742 160.666 51.2605 160.679 51.2494C160.692 51.2382 160.707 51.2297 160.724 51.2245C160.756 51.2147 160.791 51.2178 160.82 51.2332C160.85 51.2486 160.873 51.2751 160.884 51.307C161.267 52.5542 162.047 53.6419 163.106 54.4045C164.164 55.1671 165.443 55.5627 166.748 55.531C166.765 55.5296 166.782 55.5317 166.798 55.5373C166.814 55.5429 166.829 55.5518 166.842 55.5634C166.855 55.5751 166.865 55.5892 166.871 55.6049C166.878 55.6207 166.882 55.6377 166.882 55.6548C166.883 55.6882 166.872 55.7208 166.85 55.7458C166.827 55.7708 166.796 55.7863 166.763 55.7889L166.619 55.7941Z" fill="#263238"/>
<path d="M162.312 65.3614C162.283 65.3608 162.255 65.3503 162.232 65.3315C162.21 65.3128 162.194 65.2869 162.188 65.2582C162.185 65.2416 162.185 65.2243 162.188 65.2076C162.191 65.1908 162.198 65.1749 162.207 65.1609C162.217 65.1468 162.23 65.135 162.244 65.126C162.259 65.117 162.275 65.1111 162.292 65.1086C165.061 64.5929 166.624 61.6582 166.639 61.6325C166.647 61.6171 166.658 61.6034 166.671 61.5922C166.684 61.581 166.699 61.5725 166.715 61.5672C166.732 61.5619 166.749 61.56 166.766 61.5614C166.783 61.5629 166.8 61.5677 166.815 61.5757C166.83 61.5838 166.843 61.5948 166.854 61.608C166.864 61.6212 166.872 61.6364 166.877 61.6527C166.882 61.669 166.883 61.6861 166.882 61.7029C166.88 61.7198 166.875 61.7362 166.866 61.7511C166.804 61.8749 165.237 64.8198 162.338 65.3614H162.312Z" fill="#263238"/>
<path d="M193.325 47.5781C193.167 47.5779 193.01 47.5445 192.866 47.4801C192.67 47.3884 192.499 47.2526 192.364 47.0835C192.23 46.9144 192.137 46.7165 192.092 46.5053C191.633 46.7685 191.216 47.0987 190.854 47.4852C190.83 47.5088 190.798 47.5221 190.764 47.5221C190.73 47.5221 190.698 47.5088 190.674 47.4852C190.65 47.4602 190.636 47.427 190.636 47.3924C190.636 47.3578 190.65 47.3245 190.674 47.2995C191.072 46.8748 191.535 46.5162 192.046 46.2371C191.971 45.6715 192.008 45.0968 192.154 44.5454C192.157 44.5289 192.164 44.5133 192.174 44.4995C192.184 44.4858 192.197 44.4742 192.211 44.4655C192.226 44.4568 192.242 44.4512 192.259 44.449C192.275 44.4467 192.292 44.448 192.309 44.4526C192.341 44.46 192.37 44.4797 192.388 44.5076C192.406 44.5355 192.413 44.5694 192.407 44.6021C192.28 45.0987 192.241 45.6137 192.293 46.1236C192.496 46.0441 192.71 45.9988 192.928 45.9895C193.105 45.9818 193.282 46.0123 193.447 46.079C193.611 46.1458 193.76 46.2472 193.882 46.3763C194.012 46.4734 194.101 46.6152 194.132 46.7743C194.164 46.9334 194.135 47.0985 194.052 47.2377C193.968 47.3495 193.857 47.439 193.731 47.4984C193.604 47.5577 193.464 47.5851 193.325 47.5781ZM192.329 46.3918C192.362 46.5745 192.437 46.747 192.548 46.8956C192.659 47.0443 192.803 47.1649 192.969 47.248C193.109 47.318 193.268 47.3417 193.423 47.3157C193.578 47.2898 193.72 47.2155 193.83 47.1036C193.933 46.954 193.882 46.7632 193.686 46.5878C193.587 46.4856 193.468 46.4049 193.337 46.3508C193.206 46.2967 193.064 46.2702 192.922 46.2732C192.728 46.2814 192.536 46.3214 192.355 46.3918H192.329Z" fill="#263238"/>
<path d="M185.253 51.1626C185.228 51.162 185.204 51.1545 185.183 51.1408C185.162 51.1272 185.145 51.1079 185.134 51.0852C185.134 51.0543 184.015 48.2589 186.682 45.0767C186.692 45.0615 186.705 45.0487 186.72 45.039C186.736 45.0293 186.753 45.023 186.771 45.0204C186.789 45.0178 186.807 45.0191 186.825 45.0241C186.842 45.0291 186.858 45.0377 186.872 45.0494C186.886 45.0611 186.897 45.0756 186.905 45.092C186.913 45.1083 186.917 45.1262 186.918 45.1443C186.919 45.1625 186.915 45.1805 186.908 45.1973C186.901 45.2141 186.891 45.2292 186.878 45.2417C184.33 48.3001 185.372 50.9563 185.387 50.9872C185.399 51.0187 185.398 51.0536 185.385 51.0844C185.371 51.1153 185.346 51.1396 185.315 51.1523L185.253 51.1626Z" fill="#263238"/>
<path d="M198.544 66.2846C198.515 66.285 198.486 66.2748 198.463 66.2559C198.44 66.237 198.425 66.2105 198.42 66.1814C197.977 63.9791 194.887 63.1384 194.856 63.1281C194.839 63.1252 194.822 63.1186 194.806 63.1088C194.791 63.0989 194.778 63.0859 194.769 63.0708C194.759 63.0556 194.752 63.0385 194.75 63.0207C194.747 63.0028 194.748 62.9846 194.753 62.9671C194.757 62.9497 194.766 62.9335 194.777 62.9194C194.788 62.9054 194.803 62.894 194.819 62.8858C194.835 62.8777 194.853 62.873 194.871 62.8721C194.889 62.8712 194.907 62.8741 194.924 62.8806C195.058 62.9167 198.199 63.7677 198.673 66.1298C198.679 66.164 198.672 66.1991 198.653 66.228C198.633 66.2568 198.604 66.2771 198.57 66.2846H198.544Z" fill="#263238"/>
<path opacity="0.2" d="M213.749 110.186C208.075 107.72 207.395 100.995 207.395 100.995C208.948 100.716 210.548 100.846 212.036 101.371C212.629 104.043 213.207 106.962 213.749 110.186Z" fill="black"/>
<path d="M203.103 90.1434C211.108 83.6759 220.572 74.5315 223.063 64.2937C223.104 64.4743 223.249 64.923 223.367 64.9384C223.486 64.9539 223.321 64.7631 223.073 64.5465C217.477 60.6216 204.166 59.7757 196.961 59.0072L196.651 52.8182C205.723 51.5288 217.663 50.8428 226.359 54.2159C231.893 56.4439 235.395 60.9877 234.007 67.3006C231.589 80.1017 222.305 90.7469 212.531 98.6947L211.5 99.4683L210.984 99.8551L210.396 100.283L203.088 90.1383L203.103 90.1434Z" fill="#EBC0BB"/>
<path d="M201.582 90.1177C201.582 90.1177 213.8 80.0604 218.143 73.7011L228.154 86.1205L213.037 106.859C213.037 106.859 207.477 105.601 204.321 100.618C202.407 97.4585 201.455 93.8096 201.582 90.1177Z" fill="#407BFF"/>
<path d="M72.1116 144.839C70.6675 117.35 78.6617 99.231 85.6193 88.8695C93.2215 77.5538 101.138 72.8398 101.468 72.6438L103.294 75.7383L102.381 74.1911L103.299 75.7383C103.222 75.7796 95.6456 80.3337 88.4972 91.0408C81.9007 100.928 74.3293 118.247 75.7167 144.628L72.1116 144.839Z" fill="#407BFF"/>
<g opacity="0.2">
<path d="M72.1116 144.839C70.6675 117.35 78.6617 99.231 85.6193 88.8695C93.2215 77.5538 101.138 72.8398 101.468 72.6438L103.294 75.7383L102.381 74.1911L103.299 75.7383C103.222 75.7796 95.6456 80.3337 88.4972 91.0408C81.9007 100.928 74.3293 118.247 75.7167 144.628L72.1116 144.839Z" fill="black"/>
</g>
<g opacity="0.2">
<path d="M103.129 75.8621L101.2 72.8089L101.479 72.6387L103.289 75.7642L103.129 75.8621Z" fill="black"/>
<path d="M71.9775 141.425V140.909L75.5878 140.832V141.348L71.9775 141.425ZM71.9414 137.758V137.242L75.5517 137.273V137.789L71.9414 137.758ZM75.6239 134.22L72.0136 134.091V133.575L75.6239 133.725V134.22ZM75.8096 130.677L72.1993 130.424L72.2354 129.908L75.8457 130.176L75.8096 130.677ZM76.119 127.139L72.5087 126.767L72.5655 126.252L76.1758 126.649L76.119 127.139ZM76.5523 123.626L72.9781 123.111L73.0554 122.595L76.6245 123.111L76.5523 123.626ZM77.1144 120.13L73.5609 119.516L73.6589 119L77.2073 119.66L77.1144 120.13ZM77.8159 116.658L74.2881 115.905L74.4067 115.39L77.9242 116.194L77.8159 116.658ZM78.6514 113.224L75.1649 112.295L75.299 111.779L78.7803 112.728L78.6514 113.224ZM79.6313 109.835L76.1861 108.757L76.346 108.241L79.7861 109.34L79.6313 109.835ZM80.7608 106.493L77.3672 105.26L77.5477 104.745L80.931 105.998L80.7608 106.493ZM82.0399 103.202L78.703 101.82L78.9093 101.33L82.2307 102.738L82.0399 103.202ZM83.4634 99.9789L80.1987 98.4317L80.4256 97.952L83.68 99.4993L83.4634 99.9789ZM85.0468 96.8328L81.8594 95.136L82.1121 94.6666L85.284 96.3944L85.0468 96.8328ZM86.7797 93.7744L83.6852 91.9125L83.9585 91.4586L87.0531 93.3411L86.7797 93.7744ZM88.6674 90.8088L85.676 88.787L85.97 88.3538L88.951 90.391L88.6674 90.8088ZM90.7304 87.9463L87.8525 85.7647L88.1723 85.3469L91.0347 87.5441L90.7304 87.9463ZM92.9224 85.2025L90.1476 82.8971L90.4932 82.4948L93.2267 84.8466L92.9224 85.2025ZM95.2639 82.5928L92.649 80.1068L93.0204 79.72L95.5991 82.2369L95.2639 82.5928ZM97.755 80.1378L95.3052 77.4868L95.6971 77.1258L98.1212 79.7974L97.755 80.1378ZM100.391 77.8633L98.1367 75.0421L98.5596 74.7069L100.782 77.5538L100.391 77.8633Z" fill="black"/>
<path d="M72.1116 144.839L72.0961 144.571L75.7064 144.401L75.7167 144.628L72.1116 144.839Z" fill="black"/>
</g>
<path d="M107.771 64.3556C106.718 63.8933 105.568 63.6953 104.421 63.7789C103.274 63.8625 102.165 64.2252 101.191 64.8353C100.216 65.4455 99.4051 66.2846 98.8288 67.2797C98.2525 68.2748 97.9281 69.3956 97.8839 70.5447L101.757 79.065L107.761 75.2897L113.743 71.5504L107.771 64.3556Z" fill="#407BFF"/>
<path opacity="0.2" d="M107.771 64.3556C106.718 63.8933 105.568 63.6953 104.421 63.7789C103.274 63.8625 102.165 64.2252 101.191 64.8353C100.216 65.4455 99.4051 66.2846 98.8288 67.2797C98.2525 68.2748 97.9281 69.3956 97.8839 70.5447L101.757 79.065L107.761 75.2897L113.743 71.5504L107.771 64.3556Z" fill="white"/>
<path d="M119.633 74.1292C118.055 71.6226 115.038 70.849 114.197 70.6788H114.156L113.97 70.6427C112.165 70.3745 109.241 71.2461 106.348 73.0616C103.454 74.8771 101.407 77.1412 100.865 78.8793C100.865 78.8793 100.865 78.9464 100.813 79.065V79.1011C100.602 79.9366 99.9934 82.9848 101.566 85.4965C102.856 87.5595 107.952 86.6673 112.949 83.5263C117.947 80.3853 120.912 76.1922 119.633 74.1292Z" fill="#407BFF"/>
<path opacity="0.2" d="M101.525 85.5068C102.815 87.5698 107.91 86.6775 112.908 83.5366C117.906 80.3956 120.912 76.1922 119.633 74.1292C118.354 72.0662 113.243 72.9584 108.245 76.0994C103.248 79.2403 100.231 83.4541 101.525 85.5068Z" fill="white"/>
<path opacity="0.2" d="M119.21 74.3819C120.325 76.1561 117.359 80.0191 112.588 83.0208C107.817 86.0225 103.047 87.0179 101.927 85.2489C101.262 84.1813 102.072 82.3555 103.872 80.4111C106.692 77.5052 110.17 75.3205 114.012 74.0415C116.539 73.2576 118.545 73.3195 119.21 74.3819Z" fill="black"/>
<path d="M114.12 74.1963C114.539 74.8627 114.822 75.6052 114.954 76.3812C115.086 77.1573 115.064 77.9517 114.889 78.7192C114.714 79.4867 114.39 80.2121 113.934 80.8542C113.479 81.4963 112.901 82.0424 112.235 82.4613C111.568 82.8802 110.826 83.1637 110.05 83.2957C109.274 83.4277 108.479 83.4055 107.712 83.2305C106.944 83.0554 106.219 82.7309 105.577 82.2755C104.935 81.8201 104.389 81.2426 103.97 80.5762L103.872 80.4111C106.692 77.5052 110.17 75.3205 114.012 74.0415C114.048 74.088 114.084 74.1292 114.12 74.1963Z" fill="white"/>
<path d="M87.4553 150.9V147.459C87.4553 146.583 87.107 145.742 86.487 145.122C85.867 144.502 85.0261 144.153 84.1493 144.153H63.7615C62.8847 144.153 62.0438 144.502 61.4238 145.122C60.8038 145.742 60.4555 146.583 60.4555 147.459V150.9H87.4553Z" fill="#407BFF"/>
<path d="M87.4553 149.12H60.4555V150.9H87.4553V149.12Z" fill="black"/>
<path d="M90.6891 146.908V149.78C90.6891 150.518 91.5608 150.812 92.288 150.812H149.728C150.465 150.812 151.352 150.513 151.352 149.78V146.908H90.6891Z" fill="#263238"/>
<path opacity="0.4" d="M90.6891 146.908V149.78C90.6891 150.518 91.5608 150.812 92.288 150.812H149.728C150.465 150.812 151.352 150.513 151.352 149.78V146.908H90.6891Z" fill="white"/>
<path opacity="0.2" d="M90.6891 146.908V149.78C90.6891 150.518 91.5608 150.812 92.288 150.812H130.175C130.908 150.812 131.785 150.513 131.785 149.78V146.908H90.6891Z" fill="black"/>
<path d="M81.0806 117.061L87.9195 148.078C88.0433 148.576 88.3278 149.018 88.7288 149.337C89.1298 149.656 89.625 149.834 90.1373 149.842H127.494C127.729 149.839 127.96 149.781 128.169 149.673C128.378 149.565 128.558 149.41 128.697 149.219C128.835 149.029 128.927 148.809 128.965 148.577C129.003 148.345 128.987 148.107 128.917 147.882L122.083 117.102C121.856 116.071 120.871 115.586 119.865 115.586H82.4989C81.4674 115.596 80.8588 116.05 81.0806 117.061Z" fill="#263238"/>
<path opacity="0.4" d="M81.0806 117.061L87.9195 148.078C88.0433 148.576 88.3278 149.018 88.7288 149.337C89.1298 149.656 89.625 149.834 90.1373 149.842H126.24C126.473 149.837 126.702 149.778 126.909 149.67C127.115 149.562 127.294 149.407 127.431 149.218C127.568 149.029 127.659 148.812 127.698 148.582C127.736 148.352 127.721 148.116 127.653 147.893L120.814 117.112C120.593 116.081 119.597 115.596 118.597 115.596H82.4989C81.4674 115.596 80.8588 116.05 81.0806 117.061Z" fill="white"/>
<path opacity="0.2" d="M99.5189 132.827C99.5189 135.478 102.366 137.639 104.45 137.639C106.533 137.639 107.776 135.478 107.183 132.827C106.59 130.176 104.511 128.103 102.469 128.021C103.062 130.677 101.788 132.827 99.7097 132.827C99.6463 132.834 99.5824 132.834 99.5189 132.827Z" fill="black"/>
<path d="M242.574 151.812H55.8137V161.065H242.574V151.812Z" fill="#263238"/>
<path opacity="0.5" d="M242.574 151.812H55.8137V161.065H242.574V151.812Z" fill="white"/>
<path d="M244.596 150.92H53.7971C53.2217 150.92 52.7552 151.387 52.7552 151.962V153.458C52.7552 154.033 53.2217 154.5 53.7971 154.5H244.596C245.171 154.5 245.638 154.033 245.638 153.458V151.962C245.638 151.387 245.171 150.92 244.596 150.92Z" fill="#263238"/>
<path opacity="0.6" d="M244.596 150.92H53.7971C53.2217 150.92 52.7552 151.387 52.7552 151.962V153.458C52.7552 154.033 53.2217 154.5 53.7971 154.5H244.596C245.171 154.5 245.638 154.033 245.638 153.458V151.962C245.638 151.387 245.171 150.92 244.596 150.92Z" fill="white"/>
<path d="M201.953 136.773H226.503V130.986H201.953V136.773Z" fill="#407BFF"/>
<path opacity="0.7" d="M201.953 136.773H226.503V130.986H201.953V136.773Z" fill="white"/>
<path d="M217.008 130.45H236.241C237.127 130.484 237.965 130.86 238.58 131.499C239.194 132.138 239.538 132.99 239.538 133.877C239.538 134.764 239.194 135.616 238.58 136.255C237.965 136.894 237.127 137.27 236.241 137.304H217.008V136.051H219.933C220.491 136.024 221.017 135.783 221.403 135.378C221.788 134.973 222.003 134.436 222.003 133.877C222.003 133.318 221.788 132.781 221.403 132.376C221.017 131.971 220.491 131.73 219.933 131.703H217.008V130.45Z" fill="#407BFF"/>
<g opacity="0.4">
<path d="M217.008 130.45H236.241C237.127 130.484 237.965 130.86 238.58 131.499C239.194 132.138 239.538 132.99 239.538 133.877C239.538 134.764 239.194 135.616 238.58 136.255C237.965 136.894 237.127 137.27 236.241 137.304H217.008V136.051H219.933C220.491 136.024 221.017 135.783 221.403 135.378C221.788 134.973 222.003 134.436 222.003 133.877C222.003 133.318 221.788 132.781 221.403 132.376C221.017 131.971 220.491 131.73 219.933 131.703H217.008V130.45Z" fill="white"/>
</g>
<path d="M200.7 130.45H219.933C220.819 130.484 221.657 130.86 222.271 131.499C222.886 132.138 223.229 132.99 223.229 133.877C223.229 134.764 222.886 135.616 222.271 136.255C221.657 136.894 220.819 137.27 219.933 137.304H200.7V136.051H219.933C220.491 136.024 221.017 135.783 221.403 135.378C221.788 134.973 222.003 134.436 222.003 133.877C222.003 133.318 221.788 132.781 221.403 132.376C221.017 131.971 220.491 131.73 219.933 131.703H200.7V130.45Z" fill="#407BFF"/>
<g opacity="0.2">
<path d="M200.7 130.45H219.933C220.818 130.484 221.657 130.86 222.271 131.499C222.886 132.138 223.229 132.99 223.229 133.877C223.229 134.764 222.886 135.616 222.271 136.255C221.657 136.894 220.818 137.27 219.933 137.304H200.7V136.051H219.933C220.491 136.024 221.017 135.783 221.403 135.378C221.788 134.973 222.003 134.436 222.003 133.877C222.003 133.318 221.788 132.781 221.403 132.376C221.017 131.971 220.491 131.73 219.933 131.703H200.7V130.45Z" fill="white"/>
</g>
<path d="M237.159 124.132H212.609V129.919H237.159V124.132Z" fill="#407BFF"/>
<path opacity="0.7" d="M237.159 124.132H212.609V129.919H237.159V124.132Z" fill="white"/>
<path d="M222.104 123.601H202.877C202.427 123.601 201.981 123.689 201.566 123.861C201.15 124.033 200.773 124.286 200.455 124.604C200.137 124.922 199.885 125.299 199.713 125.715C199.54 126.13 199.452 126.575 199.452 127.025C199.452 127.475 199.54 127.92 199.713 128.336C199.885 128.751 200.137 129.129 200.455 129.447C200.773 129.765 201.15 130.017 201.566 130.189C201.981 130.361 202.427 130.45 202.877 130.45H222.104V129.196H219.174C218.599 129.196 218.046 128.968 217.639 128.561C217.232 128.153 217.003 127.601 217.003 127.025C217.003 126.449 217.232 125.897 217.639 125.49C218.046 125.083 218.599 124.854 219.174 124.854H222.094L222.104 123.601Z" fill="#407BFF"/>
<g opacity="0.4">
<path d="M222.104 123.601H202.877C202.427 123.601 201.981 123.689 201.566 123.861C201.15 124.033 200.773 124.286 200.455 124.604C200.137 124.922 199.885 125.299 199.713 125.715C199.54 126.13 199.452 126.575 199.452 127.025C199.452 127.475 199.54 127.92 199.713 128.336C199.885 128.751 200.137 129.129 200.455 129.447C200.773 129.765 201.15 130.017 201.566 130.189C201.981 130.361 202.427 130.45 202.877 130.45H222.104V129.196H219.174C218.599 129.196 218.046 128.968 217.639 128.561C217.232 128.153 217.003 127.601 217.003 127.025C217.003 126.449 217.232 125.897 217.639 125.49C218.046 125.083 218.599 124.854 219.174 124.854H222.094L222.104 123.601Z" fill="black"/>
</g>
<path d="M238.412 123.601H219.174C218.266 123.601 217.395 123.961 216.753 124.604C216.111 125.246 215.75 126.117 215.75 127.025C215.75 127.933 216.111 128.804 216.753 129.447C217.395 130.089 218.266 130.45 219.174 130.45H238.412V129.196H219.174C218.599 129.196 218.046 128.968 217.639 128.561C217.232 128.153 217.003 127.601 217.003 127.025C217.003 126.449 217.232 125.897 217.639 125.49C218.046 125.083 218.599 124.854 219.174 124.854H238.412V123.601Z" fill="#407BFF"/>
<g opacity="0.2">
<path d="M238.412 123.601H219.174C218.266 123.601 217.395 123.961 216.753 124.604C216.111 125.246 215.75 126.117 215.75 127.025C215.75 127.933 216.111 128.804 216.753 129.447C217.395 130.089 218.266 130.45 219.174 130.45H238.412V129.196H219.174C218.599 129.196 218.046 128.968 217.639 128.561C217.232 128.153 217.003 127.601 217.003 127.025C217.003 126.449 217.232 125.897 217.639 125.49C218.046 125.083 218.599 124.854 219.174 124.854H238.412V123.601Z" fill="black"/>
</g>
<path d="M196.914 143.622H221.464V137.835H196.914V143.622Z" fill="#407BFF"/>
<path opacity="0.7" d="M196.914 143.622H221.464V137.835H196.914V143.622Z" fill="white"/>
<path d="M211.954 137.304H231.181C231.631 137.304 232.076 137.393 232.492 137.565C232.907 137.737 233.285 137.989 233.603 138.307C233.921 138.625 234.173 139.003 234.345 139.418C234.517 139.834 234.606 140.279 234.606 140.729C234.606 141.179 234.517 141.624 234.345 142.039C234.173 142.455 233.921 142.832 233.603 143.15C233.285 143.468 232.907 143.721 232.492 143.893C232.076 144.065 231.631 144.153 231.181 144.153H211.954V142.9H214.873C215.449 142.9 216.001 142.671 216.408 142.264C216.816 141.857 217.044 141.305 217.044 140.729C217.044 140.153 216.816 139.601 216.408 139.193C216.001 138.786 215.449 138.557 214.873 138.557H211.954V137.304Z" fill="#263238"/>
<g opacity="0.2">
<path d="M211.954 137.304H231.181C231.631 137.304 232.076 137.393 232.492 137.565C232.907 137.737 233.285 137.989 233.603 138.307C233.921 138.625 234.173 139.003 234.345 139.418C234.517 139.834 234.606 140.279 234.606 140.729C234.606 141.179 234.517 141.624 234.345 142.039C234.173 142.455 233.921 142.832 233.603 143.15C233.285 143.468 232.907 143.721 232.492 143.893C232.076 144.065 231.631 144.153 231.181 144.153H211.954V142.9H214.873C215.449 142.9 216.001 142.671 216.408 142.264C216.816 141.857 217.044 141.305 217.044 140.729C217.044 140.153 216.816 139.601 216.408 139.193C216.001 138.786 215.449 138.557 214.873 138.557H211.954V137.304Z" fill="white"/>
</g>
<path d="M195.656 137.304H214.888C215.797 137.304 216.668 137.665 217.31 138.307C217.952 138.949 218.313 139.821 218.313 140.729C218.313 141.637 217.952 142.508 217.31 143.15C216.668 143.793 215.797 144.153 214.888 144.153H195.656V142.9H214.888C215.464 142.9 216.017 142.671 216.424 142.264C216.831 141.857 217.06 141.305 217.06 140.729C217.06 140.153 216.831 139.601 216.424 139.193C216.017 138.786 215.464 138.557 214.888 138.557H195.656V137.304Z" fill="#263238"/>
<g opacity="0.4">
<path d="M195.656 137.304H214.888C215.797 137.304 216.668 137.665 217.31 138.307C217.952 138.949 218.313 139.821 218.313 140.729C218.313 141.637 217.952 142.508 217.31 143.15C216.668 143.793 215.797 144.153 214.888 144.153H195.656V142.9H214.888C215.464 142.9 216.017 142.671 216.424 142.264C216.831 141.857 217.06 141.305 217.06 140.729C217.06 140.153 216.831 139.601 216.424 139.193C216.017 138.786 215.464 138.557 214.888 138.557H195.656V137.304Z" fill="white"/>
</g>
<path d="M236.54 144.685H211.99V150.471H236.54V144.685Z" fill="#407BFF"/>
<path opacity="0.7" d="M236.54 144.685H211.99V150.471H236.54V144.685Z" fill="white"/>
<path d="M237.798 144.153H218.566C217.68 144.188 216.842 144.564 216.227 145.203C215.612 145.842 215.269 146.694 215.269 147.581C215.269 148.467 215.612 149.319 216.227 149.958C216.842 150.597 217.68 150.973 218.566 151.008H237.798V149.755H218.566C218.008 149.727 217.481 149.486 217.096 149.082C216.71 148.677 216.495 148.14 216.495 147.581C216.495 147.022 216.71 146.484 217.096 146.08C217.481 145.675 218.008 145.434 218.566 145.407H237.798V144.153Z" fill="#263238"/>
<path d="M221.485 144.153H202.258C201.372 144.188 200.533 144.564 199.919 145.203C199.304 145.842 198.961 146.694 198.961 147.581C198.961 148.467 199.304 149.319 199.919 149.958C200.533 150.597 201.372 150.973 202.258 151.008H221.485V149.755H218.566C218.008 149.727 217.481 149.486 217.096 149.082C216.71 148.677 216.495 148.14 216.495 147.581C216.495 147.022 216.71 146.484 217.096 146.08C217.481 145.675 218.008 145.434 218.566 145.407H221.485V144.153Z" fill="#263238"/>
<g opacity="0.4">
<path d="M237.798 144.153H218.566C217.68 144.188 216.842 144.564 216.227 145.203C215.612 145.842 215.269 146.694 215.269 147.581C215.269 148.467 215.612 149.319 216.227 149.958C216.842 150.597 217.68 150.973 218.566 151.008H237.798V149.755H218.566C218.008 149.727 217.481 149.486 217.096 149.082C216.71 148.677 216.495 148.14 216.495 147.581C216.495 147.022 216.71 146.484 217.096 146.08C217.481 145.675 218.008 145.434 218.566 145.407H237.798V144.153Z" fill="white"/>
</g>
<path d="M199.075 123.069H223.625V117.283H199.075V123.069Z" fill="#407BFF"/>
<path opacity="0.7" d="M199.075 123.069H223.625V117.283H199.075V123.069Z" fill="white"/>
<path d="M197.822 123.601H217.049C217.511 123.618 217.971 123.543 218.402 123.379C218.834 123.215 219.228 122.965 219.56 122.645C219.893 122.325 220.157 121.941 220.338 121.517C220.519 121.092 220.612 120.635 220.612 120.173C220.612 119.712 220.519 119.255 220.338 118.83C220.157 118.405 219.893 118.022 219.56 117.702C219.228 117.382 218.834 117.132 218.402 116.968C217.971 116.804 217.511 116.728 217.049 116.746H197.822V117.999H217.049C217.344 117.985 217.638 118.031 217.914 118.133C218.191 118.236 218.443 118.394 218.656 118.597C218.87 118.801 219.04 119.045 219.156 119.316C219.272 119.587 219.332 119.879 219.332 120.173C219.332 120.468 219.272 120.76 219.156 121.031C219.04 121.302 218.87 121.546 218.656 121.749C218.443 121.953 218.191 122.11 217.914 122.213C217.638 122.316 217.344 122.362 217.049 122.347H197.822V123.601Z" fill="#263238"/>
<path d="M214.13 123.601H233.363C234.249 123.566 235.087 123.19 235.702 122.551C236.316 121.912 236.66 121.06 236.66 120.173C236.66 119.287 236.316 118.435 235.702 117.796C235.087 117.157 234.249 116.781 233.363 116.746H214.13V117.999H217.049C217.344 117.985 217.638 118.031 217.914 118.133C218.191 118.236 218.443 118.394 218.656 118.597C218.87 118.801 219.04 119.045 219.156 119.316C219.272 119.587 219.332 119.879 219.332 120.173C219.332 120.468 219.272 120.76 219.156 121.031C219.04 121.302 218.87 121.546 218.656 121.749C218.443 121.953 218.191 122.11 217.914 122.213C217.638 122.316 217.344 122.362 217.049 122.347H214.13V123.601Z" fill="#263238"/>
<g opacity="0.4">
<path d="M197.822 123.601H217.049C217.511 123.618 217.971 123.543 218.402 123.379C218.834 123.215 219.228 122.965 219.56 122.645C219.893 122.325 220.157 121.941 220.338 121.517C220.519 121.092 220.612 120.635 220.612 120.173C220.612 119.712 220.519 119.255 220.338 118.83C220.157 118.405 219.893 118.022 219.56 117.702C219.228 117.382 218.834 117.132 218.402 116.968C217.971 116.804 217.511 116.728 217.049 116.746H197.822V117.999H217.049C217.344 117.985 217.638 118.031 217.914 118.133C218.191 118.236 218.443 118.394 218.656 118.597C218.87 118.801 219.04 119.045 219.156 119.316C219.272 119.587 219.332 119.879 219.332 120.173C219.332 120.468 219.272 120.76 219.156 121.031C219.04 121.302 218.87 121.546 218.656 121.749C218.443 121.953 218.191 122.11 217.914 122.213C217.638 122.316 217.344 122.362 217.049 122.347H197.822V123.601Z" fill="white"/>
</g>
<g opacity="0.2">
<path d="M196.909 139.109L214.729 139.3L196.909 139.496V139.109Z" fill="black"/>
<path d="M196.909 140.058L208.761 140.254L196.909 140.445V140.058Z" fill="black"/>
<path d="M196.909 141.012L216.394 141.203L196.909 141.399V141.012Z" fill="black"/>
<path d="M196.909 141.961L213.723 142.152L196.909 142.348V141.961Z" fill="black"/>
</g>
<g opacity="0.2">
<path d="M201.953 132.255L219.773 132.451L201.953 132.642V132.255Z" fill="black"/>
<path d="M201.953 133.209L213.805 133.4L201.953 133.596V133.209Z" fill="black"/>
<path d="M201.953 134.158L221.433 134.354L201.953 134.545V134.158Z" fill="black"/>
<path d="M201.953 135.112L218.762 135.303L201.953 135.499V135.112Z" fill="black"/>
</g>
<g opacity="0.2">
<path d="M199.019 118.551L216.843 118.747L199.019 118.938V118.551Z" fill="black"/>
<path d="M199.019 119.505L210.871 119.696L199.019 119.892V119.505Z" fill="black"/>
<path d="M199.019 120.454L218.504 120.65L199.019 120.841V120.454Z" fill="black"/>
<path d="M199.019 121.409L215.832 121.599L199.019 121.795V121.409Z" fill="black"/>
</g>
<g opacity="0.2">
<path d="M236.493 149.223L218.674 149.027L236.493 148.836V149.223Z" fill="black"/>
<path d="M236.493 148.269L224.641 148.078L236.493 147.882V148.269Z" fill="black"/>
<path d="M236.493 147.32L217.013 147.129L236.493 146.933V147.32Z" fill="black"/>
<path d="M236.493 146.371L219.68 146.175L236.493 145.984V146.371Z" fill="black"/>
</g>
<g opacity="0.2">
<path d="M237.164 128.645L219.339 128.449L237.164 128.258V128.645Z" fill="black"/>
<path d="M237.164 127.696L225.312 127.5L237.164 127.309V127.696Z" fill="black"/>
<path d="M237.164 126.742L217.679 126.551L237.164 126.355V126.742Z" fill="black"/>
<path d="M237.164 125.793L220.35 125.597L237.164 125.406V125.793Z" fill="black"/>
</g>
<path d="M200.122 147.408C200.122 147.408 193.005 143.834 189.08 143.731H152.054L154.323 150.827L170.178 150.275L199.452 149.847L200.122 147.408Z" fill="#407BFF"/>
<path opacity="0.7" d="M200.122 147.408C200.122 147.408 193.005 143.834 189.08 143.731H152.054L154.323 150.827L170.178 150.275L199.452 149.847L200.122 147.408Z" fill="white"/>
<path d="M142.069 147.759C142.069 147.759 146.241 144.288 151.296 143.782C156.35 143.277 158.119 147.248 158.119 147.248C158.119 147.248 160.522 143.942 164.308 143.736C168.094 143.529 175.851 147.408 175.851 147.408L175.206 149.847L142.476 150.327L142.069 147.759Z" fill="#407BFF"/>
<path opacity="0.6" d="M142.069 147.759C142.069 147.759 146.241 144.288 151.296 143.782C156.35 143.277 158.119 147.248 158.119 147.248C158.119 147.248 160.522 143.942 164.308 143.736C168.094 143.529 175.851 147.408 175.851 147.408L175.206 149.847L142.476 150.327L142.069 147.759Z" fill="white"/>
<path opacity="0.2" d="M200.122 147.408L199.993 147.888L199.911 148.192L199.467 149.847H175.18L175.459 148.79L175.552 148.47L175.83 147.408H200.122Z" fill="black"/>
<g opacity="0.2">
<path d="M175.18 147.697C173.772 147.078 172.331 146.537 170.863 146.077C169.415 145.581 167.915 145.252 166.392 145.097C164.87 145.018 163.354 145.33 161.987 146.005C160.602 146.645 159.307 147.463 158.135 148.439L158.011 148.537L157.908 148.419C156.984 147.361 155.869 146.486 154.622 145.84C153.999 145.515 153.332 145.282 152.642 145.149C151.959 145.035 151.262 145.035 150.579 145.149C149.188 145.421 147.833 145.852 146.54 146.433C145.228 146.981 143.949 147.605 142.708 148.3C143.919 147.577 145.169 146.92 146.453 146.335C147.748 145.719 149.11 145.255 150.512 144.953C151.225 144.81 151.958 144.791 152.678 144.896C153.395 145.03 154.089 145.264 154.741 145.592C156.031 146.253 157.184 147.153 158.14 148.243H157.913C159.111 147.25 160.436 146.421 161.853 145.778C163.266 145.091 164.834 144.783 166.402 144.886C167.939 145.076 169.449 145.437 170.905 145.964C172.361 146.461 173.789 147.039 175.18 147.697Z" fill="black"/>
</g>
<g opacity="0.2">
<path d="M142.956 148.625C144.153 148.071 145.387 147.598 146.649 147.212C147.914 146.819 149.218 146.561 150.537 146.443C151.871 146.338 153.212 146.471 154.498 146.835C155.786 147.186 157.007 147.749 158.109 148.501H157.944C159.246 147.9 160.597 147.412 161.982 147.042C163.362 146.626 164.803 146.451 166.242 146.526C167.666 146.658 169.079 146.887 170.471 147.212C171.847 147.535 173.222 147.905 174.598 148.321C173.22 147.96 171.833 147.64 170.435 147.372C169.048 147.074 167.642 146.876 166.227 146.779C164.819 146.718 163.41 146.893 162.059 147.294C160.697 147.674 159.367 148.162 158.083 148.754L157.995 148.79L157.918 148.739C156.849 147.996 155.661 147.442 154.406 147.098C153.15 146.738 151.842 146.592 150.537 146.665C149.23 146.757 147.935 146.983 146.674 147.341C145.408 147.686 144.166 148.115 142.956 148.625Z" fill="black"/>
</g>
<g opacity="0.2">
<path d="M144.596 148.625C146.806 148.121 149.07 147.891 151.337 147.939C152.472 147.949 153.606 148.033 154.731 148.192C155.855 148.345 156.969 148.565 158.067 148.852H158C159.264 148.625 160.538 148.481 161.812 148.336C163.086 148.192 164.36 148.114 165.644 148.073C166.928 148.032 168.223 148.047 169.481 148.114C170.758 148.206 172.027 148.378 173.282 148.63C170.756 148.276 168.2 148.18 165.654 148.347C163.109 148.476 160.572 148.748 158.057 149.161H157.985C156.901 148.867 155.801 148.64 154.689 148.481C153.576 148.32 152.456 148.218 151.332 148.176C150.206 148.132 149.078 148.149 147.954 148.228C146.827 148.286 145.705 148.418 144.596 148.625Z" fill="black"/>
</g>
<g opacity="0.2">
<path d="M199.993 147.888L199.911 148.192L176.635 148.042L199.993 147.888Z" fill="black"/>
</g>
<g opacity="0.2">
<path d="M197.739 148.63L175.459 148.79L175.552 148.47L197.739 148.63Z" fill="black"/>
</g>
<path d="M157.108 149.43C157.108 149.43 157.232 147.454 158.14 147.274C159.047 147.093 158.97 149.43 158.97 149.43H157.108Z" fill="#263238"/>
<path d="M201.211 149.002H140.542V150.92H201.211V149.002Z" fill="#263238"/>
<path opacity="0.2" d="M201.211 149.002H140.542V150.92H201.211V149.002Z" fill="white"/>
<path opacity="0.2" d="M201.216 149.002H176.949V150.92H201.216V149.002Z" fill="black"/>
<path d="M194.444 152.823L192.897 148.635L194.444 145.262H197.435L200.344 141.766H204.388C205.151 141.766 208.514 144.231 208.514 144.231C208.514 144.231 208.246 146.675 208.514 146.964C208.782 147.253 210.231 148.635 210.231 148.635L209.019 149.667V152.008L208.503 152.942L204.377 152.684C203.816 152.503 203.211 152.503 202.65 152.684C201.618 152.978 200.819 154.402 200.071 154.051C199.323 153.7 194.444 152.823 194.444 152.823Z" fill="#407BFF"/>
<path opacity="0.7" d="M210.231 148.641L209.024 149.672V152.008L208.508 152.947L204.382 152.684C203.821 152.499 203.216 152.499 202.655 152.684C201.623 152.983 200.824 154.402 200.076 154.056C199.328 153.71 194.433 152.823 194.433 152.823L192.886 148.646L194.433 145.267H197.425L200.334 141.771H204.377C205.135 141.771 208.503 144.231 208.503 144.231C208.4 145.086 208.381 145.95 208.447 146.81C208.457 146.859 208.476 146.906 208.503 146.949C208.782 147.253 210.231 148.641 210.231 148.641Z" fill="white"/>
<path opacity="0.4" d="M208.452 146.851L207.281 144.272L205.105 147.64L203.557 146.939V143.767L200.38 144.989L200.834 147.64L199.885 149.703L196.115 146.32L195.207 148.754L192.897 148.682L194.444 145.304H197.435L200.344 141.807H204.388C205.146 141.807 208.514 144.267 208.514 144.267C208.408 145.124 208.387 145.99 208.452 146.851Z" fill="white"/>
<path opacity="0.1" d="M194.444 152.818L196.316 152.369V148.218L199.978 151.312L202.041 146.541L203.16 148.403L205.61 148.635L207.157 147.042L207.972 147.851L207.095 149.435L207.972 150.064L209.035 149.657L207.828 150.461L206.796 149.863L205.62 149.043L202.835 148.62L201.86 149.945L202.727 150.796L202.639 149.44L204.728 151.947L205.605 150.482L204.212 150.214L205.904 150.177L206.115 150.642L204.878 152.189C204.878 152.189 202.727 151.307 202.851 151.302C202.974 151.297 200.705 153.318 200.705 153.318L197.92 152.354L197.889 150.085L196.77 152.663L194.444 152.911" fill="black"/>
<path d="M133.26 149.027L133.157 149.079L132.888 149.244C132.834 149.269 132.783 149.298 132.734 149.332L132.388 149.553C132.333 149.579 132.281 149.61 132.233 149.646L131.893 149.863C131.604 150.038 131.289 150.234 130.99 150.435C130.928 150.477 130.861 150.508 130.805 150.554C130.748 150.6 130.562 150.714 130.449 150.791L130.273 150.905C129.854 151.158 129.462 151.454 129.103 151.787C129.064 151.832 129.017 151.869 128.963 151.895C128.933 151.9 128.901 151.9 128.871 151.895H128.695C128.378 151.829 128.073 151.712 127.793 151.549C127.38 151.313 126.924 151.162 126.452 151.106C125.935 151.071 125.425 151.241 125.033 151.58L121.748 152.973L120.964 152.184L120.056 149.863L118.664 149.187C118.664 149.187 118.829 148.749 119.004 148.254C119.051 148.14 119.092 148.011 119.143 147.893C119.16 147.83 119.181 147.768 119.205 147.707C119.267 147.532 119.324 147.377 119.36 147.258L119.432 147.052C119.435 147.033 119.435 147.014 119.432 146.995C119.432 146.969 119.432 146.933 119.432 146.897C119.359 146.602 119.261 146.314 119.138 146.036C118.994 145.68 118.824 145.298 118.679 145.004C118.638 144.906 118.592 144.814 118.55 144.731C118.548 144.711 118.539 144.693 118.525 144.68C118.457 144.535 118.411 144.437 118.385 144.391C118.494 144.184 120.201 141.018 120.809 140.827L124.136 139.713L124.982 140.311L127.88 142.374L130.34 141.554L132.919 144.473L133.26 149.027Z" fill="#407BFF"/>
<path opacity="0.7" d="M133.249 149.033L133.151 149.1L132.883 149.265C132.829 149.289 132.777 149.319 132.728 149.352L132.383 149.574C132.328 149.599 132.276 149.63 132.228 149.667C132.122 149.729 132.008 149.801 131.888 149.884C131.599 150.059 131.284 150.255 130.985 150.456C130.923 150.497 130.856 150.528 130.8 150.575C130.743 150.621 130.557 150.735 130.444 150.812L130.268 150.925C129.849 151.179 129.457 151.474 129.098 151.807C129.059 151.852 129.011 151.889 128.958 151.916C128.928 151.921 128.896 151.921 128.865 151.916H128.69C128.373 151.849 128.068 151.733 127.788 151.57C127.375 151.334 126.919 151.183 126.447 151.126C125.93 151.092 125.42 151.262 125.028 151.601L121.743 152.994L120.959 152.204L120.051 149.884L118.659 149.208C118.659 149.208 118.824 148.769 118.999 148.274C119.045 148.161 119.087 148.032 119.138 147.913C119.155 147.85 119.176 147.788 119.2 147.728C119.257 147.552 119.319 147.398 119.355 147.279L119.427 147.073C119.43 147.054 119.43 147.035 119.427 147.016C119.427 146.99 119.427 146.954 119.427 146.918C119.354 146.623 119.256 146.335 119.133 146.057C118.989 145.701 118.819 145.319 118.674 145.025C118.633 144.927 118.586 144.834 118.545 144.752C118.543 144.732 118.534 144.714 118.519 144.7C118.452 144.556 118.406 144.458 118.38 144.411C118.488 144.205 120.196 141.038 120.804 140.847L124.131 139.733L124.977 140.332L127.875 142.395L130.33 141.575L132.909 144.484L133.249 149.033Z" fill="white"/>
<path opacity="0.4" d="M133.26 149.027L130.851 148.708L131.939 144.468L129.531 145.087L128.241 142.91L125.792 142.023L128.025 144.819L126.575 146.67L121.748 142.544L122.692 145.752L118.375 144.386C118.483 144.179 120.19 141.013 120.799 140.822L124.126 139.708L124.971 140.306L127.87 142.369L130.33 141.549L132.909 144.468L133.26 149.027Z" fill="white"/>
<path opacity="0.1" d="M126.447 151.157C125.93 151.122 125.42 151.293 125.028 151.632L121.743 153.024L120.959 152.235L120.051 149.914L118.659 149.239C118.659 149.239 118.824 148.8 118.999 148.305C119.045 148.192 119.087 148.063 119.138 147.944C119.155 147.881 119.176 147.819 119.2 147.759C119.257 147.583 119.319 147.429 119.355 147.31L119.427 147.104L124.322 147.661L124.188 146.309L126.766 148.331L124.126 148.991L124.234 150.188H125.967L126.447 151.157Z" fill="black"/>
<path opacity="0.1" d="M128.834 151.941H128.69C128.373 151.875 128.068 151.758 127.787 151.596C127.375 151.359 126.919 151.209 126.447 151.152L128.798 149.605L128.401 147.367L130.304 147.171C130.304 147.171 129.479 149.569 129.618 149.626C129.758 149.682 128.7 151.89 128.834 151.941Z" fill="black"/>
<path d="M106.843 147.48L106.874 147.542L106.956 147.722C106.976 147.755 106.994 147.79 107.008 147.826L107.111 148.063C107.131 148.095 107.147 148.129 107.157 148.166L107.26 148.398C107.348 148.594 107.446 148.806 107.529 149.022C107.551 149.064 107.57 149.107 107.585 149.151C107.621 149.228 107.658 149.316 107.688 149.394L107.74 149.517C107.871 149.799 107.972 150.092 108.044 150.394C108.045 150.433 108.058 150.471 108.08 150.502C108.091 150.517 108.103 150.531 108.117 150.544C108.138 150.568 108.164 150.588 108.194 150.6C108.383 150.679 108.583 150.726 108.787 150.74C109.087 150.763 109.38 150.845 109.648 150.982C109.93 151.147 110.136 151.415 110.221 151.73L111.448 153.623L112.139 153.483L113.434 152.591L114.404 152.73L114.553 152.122C114.553 152.045 114.594 151.962 114.61 151.879C114.625 151.841 114.637 151.801 114.646 151.761C114.646 151.647 114.698 151.549 114.723 151.472C114.749 151.395 114.749 151.369 114.76 151.338C114.757 151.328 114.757 151.317 114.76 151.307C114.772 151.292 114.784 151.277 114.796 151.261C114.939 151.133 115.092 151.017 115.255 150.915C115.456 150.776 115.683 150.637 115.868 150.523C115.92 150.487 115.982 150.456 116.033 150.425C116.085 150.394 116.033 150.425 116.064 150.425L116.235 150.322C116.235 150.177 116.472 147.913 116.235 147.599L114.93 145.819H114.27L112.026 145.871L111.025 144.571L108.648 145.19L106.843 147.48Z" fill="#407BFF"/>
<path opacity="0.7" d="M106.848 147.485C106.849 147.508 106.849 147.53 106.848 147.552L106.93 147.733C106.951 147.766 106.968 147.8 106.982 147.836L107.085 148.073C107.106 148.105 107.121 148.14 107.131 148.176C107.17 148.252 107.204 148.329 107.235 148.408C107.322 148.604 107.42 148.816 107.503 149.033C107.525 149.074 107.544 149.117 107.56 149.161C107.596 149.239 107.632 149.326 107.663 149.404L107.714 149.528C107.845 149.809 107.947 150.103 108.019 150.404C108.02 150.443 108.032 150.481 108.055 150.513C108.065 150.528 108.077 150.542 108.091 150.554C108.112 150.578 108.138 150.598 108.168 150.611C108.357 150.689 108.557 150.737 108.761 150.75C109.061 150.773 109.354 150.856 109.623 150.992C109.904 151.157 110.11 151.426 110.195 151.74L111.423 153.633L112.114 153.494L113.408 152.602L114.378 152.741L114.527 152.132C114.527 152.055 114.569 151.972 114.584 151.89C114.599 151.851 114.611 151.812 114.62 151.771C114.651 151.663 114.672 151.56 114.698 151.482C114.723 151.405 114.723 151.379 114.734 151.348C114.732 151.338 114.732 151.328 114.734 151.317C114.747 151.303 114.759 151.287 114.77 151.271C114.913 151.143 115.066 151.028 115.229 150.925C115.43 150.786 115.657 150.647 115.843 150.533C115.894 150.497 115.956 150.466 116.008 150.435C116.059 150.404 116.008 150.435 116.039 150.435L116.209 150.332C116.209 150.188 116.446 147.924 116.209 147.609L114.93 145.819H114.27L112.026 145.876L111.025 144.576L108.648 145.19L106.848 147.485Z" fill="white"/>
<path opacity="0.4" d="M106.843 147.48L108.22 148.161L109.148 145.556L110.18 146.732L111.624 146.046L113.223 146.449L111.062 147.124L111.165 148.61L115.151 148.156L113.527 149.502L116.271 150.312C116.271 150.167 116.508 147.903 116.271 147.588L114.93 145.819H114.27L112.026 145.871L111.025 144.571L108.648 145.19L106.843 147.48Z" fill="white"/>
<path opacity="0.1" d="M109.664 151.003C109.945 151.167 110.151 151.436 110.236 151.751L111.464 153.643L112.155 153.504L113.449 152.612L114.419 152.751L114.569 152.143C114.569 152.065 114.61 151.983 114.625 151.9C114.64 151.862 114.653 151.822 114.661 151.781C114.692 151.673 114.713 151.57 114.739 151.493C114.765 151.415 114.765 151.39 114.775 151.359L112.011 149.945L112.557 149.285L110.494 149.43L111.639 150.709L111.165 151.297L110.262 150.678L109.664 151.003Z" fill="black"/>
<path opacity="0.1" d="M108.132 150.564C108.153 150.589 108.18 150.608 108.209 150.621C108.398 150.7 108.598 150.747 108.803 150.76C109.103 150.784 109.395 150.866 109.664 151.003L108.968 149.373L109.999 148.31L109.076 147.537C108.95 148.067 108.778 148.585 108.56 149.084C108.457 149.043 108.22 150.59 108.132 150.564Z" fill="black"/>
</svg>
