<svg xmlns="http://www.w3.org/2000/svg" width="30" height="30" viewBox="0 0 40 40" fill="none">
  <path d="M29.728 27.2913L25.8332 23.3971C25.6574 23.2214 25.4191 23.1237 25.1691 23.1237H24.5323C25.6105 21.7449 26.2512 20.0107 26.2512 18.1242C26.2512 13.6364 22.6142 10 18.1256 10C13.637 10 10 13.6364 10 18.1242C10 22.612 13.637 26.2484 18.1256 26.2484C20.0125 26.2484 21.747 25.6079 23.126 24.5298V25.1665C23.126 25.4165 23.2236 25.6547 23.3994 25.8305L27.2942 29.7246C27.6614 30.0918 28.2552 30.0918 28.6185 29.7246L29.7241 28.6193C30.0913 28.2521 30.0913 27.6584 29.728 27.2913ZM18.1256 23.1237C15.3637 23.1237 13.1252 20.8896 13.1252 18.1242C13.1252 15.3628 15.3598 13.1247 18.1256 13.1247C20.8875 13.1247 23.126 15.3589 23.126 18.1242C23.126 20.8857 20.8914 23.1237 18.1256 23.1237Z" fill="#082038"/>
</svg>