<svg width="70" height="70" viewBox="0 0 70 70" fill="none" xmlns="http://www.w3.org/2000/svg">
<circle cx="35" cy="35" r="34.5" stroke="#082038"/>
<g clip-path="url(#clip0_141_4356)">
<path d="M35 34.6667C36.8459 34.6667 38.6504 34.1193 40.1853 33.0937C41.7201 32.0682 42.9164 30.6105 43.6228 28.905C44.3293 27.1996 44.5141 25.323 44.154 23.5125C43.7938 21.702 42.9049 20.039 41.5996 18.7337C40.2943 17.4284 38.6313 16.5395 36.8208 16.1793C35.0103 15.8192 33.1337 16.004 31.4282 16.7105C29.7228 17.4169 28.2651 18.6131 27.2396 20.148C26.214 21.6829 25.6666 23.4874 25.6666 25.3333C25.6666 27.8087 26.65 30.1827 28.4003 31.933C30.1506 33.6833 32.5246 34.6667 35 34.6667ZM35 18.6667C36.3185 18.6667 37.6074 19.0577 38.7038 19.7902C39.8001 20.5227 40.6546 21.5639 41.1592 22.7821C41.6637 24.0003 41.7958 25.3407 41.5385 26.6339C41.2813 27.9271 40.6464 29.115 39.714 30.0474C38.7817 30.9797 37.5938 31.6147 36.3006 31.8719C35.0074 32.1291 33.6669 31.9971 32.4487 31.4925C31.2306 30.9879 30.1894 30.1335 29.4568 29.0371C28.7243 27.9408 28.3333 26.6519 28.3333 25.3333C28.3333 23.5652 29.0357 21.8695 30.2859 20.6193C31.5362 19.369 33.2318 18.6667 35 18.6667Z" fill="#082038"/>
<path d="M51.6266 44.4933C49.4884 42.2333 46.9117 40.4332 44.054 39.2029C41.1964 37.9727 38.1178 37.3382 35.0066 37.3382C31.8954 37.3382 28.8169 37.9727 25.9592 39.2029C23.1016 40.4332 20.5249 42.2333 18.3866 44.4933C17.923 44.9885 17.6656 45.6417 17.6666 46.32V53.3333C17.6666 54.0406 17.9476 54.7189 18.4477 55.2189C18.9478 55.719 19.6261 56 20.3333 56H49.6666C50.3739 56 51.0522 55.719 51.5522 55.2189C52.0523 54.7189 52.3333 54.0406 52.3333 53.3333V46.32C52.338 45.6435 52.0854 44.9905 51.6266 44.4933ZM49.6666 53.3333H20.3333V46.3067C22.2229 44.3169 24.4977 42.7324 27.0191 41.6497C29.5405 40.567 32.2559 40.0086 35 40.0086C37.744 40.0086 40.4594 40.567 42.9808 41.6497C45.5022 42.7324 47.777 44.3169 49.6666 46.3067V53.3333Z" fill="#082038"/>
</g>
<defs>
<clipPath id="clip0_141_4356">
<rect width="48" height="48" fill="white" transform="translate(11 12)"/>
</clipPath>
</defs>
</svg>
